<svg width="18" height="18" viewBox="0 0 18 18" fill="none" xmlns="http://www.w3.org/2000/svg">
<g id="vuesax/outline/copyright">
<g id="copyright">
<path id="Vector" d="M9 17.0625C4.5525 17.0625 0.9375 13.4475 0.9375 9C0.9375 4.5525 4.5525 0.9375 9 0.9375C13.4475 0.9375 17.0625 4.5525 17.0625 9C17.0625 13.4475 13.4475 17.0625 9 17.0625ZM9 2.0625C5.175 2.0625 2.0625 5.175 2.0625 9C2.0625 12.825 5.175 15.9375 9 15.9375C12.825 15.9375 15.9375 12.825 15.9375 9C15.9375 5.175 12.825 2.0625 9 2.0625Z" fill="white"/>
<path id="Vector_2" d="M9.18018 12.5625C7.21518 12.5625 5.61768 10.965 5.61768 9C5.61768 7.035 7.21518 5.4375 9.18018 5.4375C10.0427 5.4375 10.8827 5.7525 11.5277 6.33C11.7602 6.5325 11.7827 6.8925 11.5802 7.125C11.3777 7.3575 11.0177 7.38001 10.7852 7.17751C10.3427 6.78751 9.77268 6.57001 9.18018 6.57001C7.83768 6.57001 6.74268 7.66501 6.74268 9.00751C6.74268 10.35 7.83768 11.445 9.18018 11.445C9.76518 11.445 10.3427 11.2275 10.7852 10.8375C11.0177 10.635 11.3777 10.6575 11.5802 10.89C11.7827 11.1225 11.7602 11.4825 11.5277 11.685C10.8752 12.2475 10.0427 12.5625 9.18018 12.5625Z" fill="white"/>
</g>
</g>
</svg>
