<svg width="24" height="25" viewBox="0 0 24 25" fill="none" xmlns="http://www.w3.org/2000/svg">
<g id="vuesax/linear/eye-slash">
<g id="eye-slash">
<path id="Vector" d="M14.5299 9.96992L9.46992 15.0299C8.81992 14.3799 8.41992 13.4899 8.41992 12.4999C8.41992 10.5199 10.0199 8.91992 11.9999 8.91992C12.9899 8.91992 13.8799 9.31992 14.5299 9.96992Z" stroke="#292D32" stroke-width="1.79395" stroke-linecap="round" stroke-linejoin="round"/>
<path id="Vector_2" d="M17.8198 6.26998C16.0698 4.94998 14.0698 4.22998 11.9998 4.22998C8.46984 4.22998 5.17984 6.30998 2.88984 9.90998C1.98984 11.32 1.98984 13.69 2.88984 15.1C3.67984 16.34 4.59984 17.41 5.59984 18.27" stroke="#292D32" stroke-width="1.79395" stroke-linecap="round" stroke-linejoin="round"/>
<path id="Vector_3" d="M8.41992 20.0301C9.55992 20.5101 10.7699 20.7701 11.9999 20.7701C15.5299 20.7701 18.8199 18.6901 21.1099 15.0901C22.0099 13.6801 22.0099 11.3101 21.1099 9.90005C20.7799 9.38005 20.4199 8.89005 20.0499 8.43005" stroke="#292D32" stroke-width="1.79395" stroke-linecap="round" stroke-linejoin="round"/>
<path id="Vector_4" d="M15.5099 13.2C15.2499 14.61 14.0999 15.76 12.6899 16.02" stroke="#292D32" stroke-width="1.79395" stroke-linecap="round" stroke-linejoin="round"/>
<path id="Vector_5" d="M9.47 15.03L2 22.5" stroke="#292D32" stroke-width="1.79395" stroke-linecap="round" stroke-linejoin="round"/>
<path id="Vector_6" d="M21.9998 2.5L14.5298 9.97" stroke="#292D32" stroke-width="1.79395" stroke-linecap="round" stroke-linejoin="round"/>
</g>
</g>
</svg>
