<svg width="27" height="27" viewBox="0 0 27 27" fill="none" xmlns="http://www.w3.org/2000/svg">
<g id="vuesax/linear/lock">
<g id="lock">
<path id="Vector" d="M6.75 11.25V9C6.75 5.27625 7.875 2.25 13.5 2.25C19.125 2.25 20.25 5.27625 20.25 9V11.25" stroke="#292D32" stroke-width="1.99943" stroke-linecap="round" stroke-linejoin="round"/>
<path id="Vector_2" d="M13.5 20.8125C15.0533 20.8125 16.3125 19.5533 16.3125 18C16.3125 16.4467 15.0533 15.1875 13.5 15.1875C11.9467 15.1875 10.6875 16.4467 10.6875 18C10.6875 19.5533 11.9467 20.8125 13.5 20.8125Z" stroke="#292D32" stroke-width="1.99943" stroke-linecap="round" stroke-linejoin="round"/>
<path id="Vector_3" d="M19.125 24.75H7.875C3.375 24.75 2.25 23.625 2.25 19.125V16.875C2.25 12.375 3.375 11.25 7.875 11.25H19.125C23.625 11.25 24.75 12.375 24.75 16.875V19.125C24.75 23.625 23.625 24.75 19.125 24.75Z" stroke="#292D32" stroke-width="1.99943" stroke-linecap="round" stroke-linejoin="round"/>
</g>
</g>
</svg>
