<svg width="277" height="64" viewBox="0 0 277 64" fill="none" xmlns="http://www.w3.org/2000/svg">
<path d="M80.4151 23.8748L72.4452 31.8447L80.4121 39.8117L88.382 31.8418L80.4151 23.8748Z" stroke="#FCC822" stroke-width="4" stroke-miterlimit="10"/>
<path d="M116 31.7189L94.3417 53.8501L80.6065 39.8177L72.6833 31.7189L80.6106 23.6242L94.3417 9.5918L116 31.7189Z" stroke="#FCC822" stroke-width="4" stroke-miterlimit="10"/>
<path d="M73.0825 31.7188L81.1541 39.6449L59.9687 60.4417L38.7833 39.6449L46.855 31.7188L38.7833 23.7968L59.9687 3L81.1583 23.7968L73.0825 31.7188Z" stroke="#FCC822" stroke-width="4" stroke-miterlimit="10"/>
<path d="M46.3167 32.1896L38.3146 40.6668L30.3083 32.1896L38.3104 23.7168H38.3146L46.3167 32.1896Z" stroke="#FCC822" stroke-width="4" stroke-miterlimit="10"/>
<path d="M46.3167 31.7189L38.3935 39.8177L24.6583 53.8501L3 31.7189L24.6583 9.5918L38.3894 23.6242H38.3935L46.3167 31.7189Z" stroke="#FCC822" stroke-width="4" stroke-miterlimit="10"/>
<path d="M131 15.0562H153.798L131 38.3232" stroke="white" stroke-width="2.37363" stroke-miterlimit="10"/>
<path d="M160.733 15.0562L150.277 25.9992L160.733 38.3232" stroke="white" stroke-width="2.37363" stroke-miterlimit="10"/>
<path d="M167.254 26.6895V38.323" stroke="white" stroke-width="2.37363" stroke-miterlimit="10"/>
<path d="M173.954 26.6895V38.323L178.711 34.3254" stroke="white" stroke-width="2.37363" stroke-miterlimit="10"/>
<path d="M191.229 26.6895L167.254 49.2212" stroke="white" stroke-width="2.37363" stroke-miterlimit="10"/>
<path d="M186.675 38.3716C187.11 38.4061 191.781 38.6823 194.871 34.9195C197.611 31.5813 196.969 27.6701 196.869 27.104" stroke="white" stroke-width="2.37363" stroke-miterlimit="10"/>
<path d="M196.956 29.6758L202.393 27.104V38.3716" stroke="white" stroke-width="2.37363" stroke-miterlimit="10"/>
<path d="M202.392 29.6758L207.446 27.104V38.3716" stroke="white" stroke-width="2.37363" stroke-miterlimit="10"/>
<path d="M213.891 32.7441C213.891 33.4415 214.04 34.1008 214.306 34.6946C215.051 36.355 216.719 37.508 218.655 37.508C220.105 37.508 221.407 36.8625 222.28 35.8372" stroke="white" stroke-width="2.37363" stroke-miterlimit="10"/>
<path d="M223.419 32.7443L218.531 32.6926C215.555 32.6615 215.358 28.1841 218.331 27.9908C218.438 27.9839 218.548 27.9805 218.655 27.9805C221.286 27.9805 223.419 30.1139 223.419 32.7443Z" stroke="white" stroke-width="2.37363" stroke-miterlimit="10"/>
<path d="M251.174 32.7373C251.174 33.4346 251.322 34.094 251.588 34.6877C252.334 36.3482 254.001 37.5012 255.938 37.5012C257.387 37.5012 258.689 36.8556 259.562 35.8304" stroke="white" stroke-width="2.37363" stroke-miterlimit="10"/>
<path d="M260.701 32.7375L255.813 32.6857C252.837 32.6547 252.641 28.1773 255.613 27.984C255.72 27.9771 255.83 27.9736 255.937 27.9736C258.568 27.9736 260.701 30.107 260.701 32.7375Z" stroke="white" stroke-width="2.37363" stroke-miterlimit="10"/>
<path d="M234.694 26.6895H230.593C229.036 26.6895 227.776 27.9495 227.776 29.5063C227.776 31.0632 229.036 32.3232 230.593 32.3232H231.877C233.434 32.3232 234.694 33.5833 234.694 35.1401C234.694 36.697 233.434 37.957 231.877 37.957H227.776" stroke="white" stroke-width="2.37363" stroke-miterlimit="10"/>
<path d="M240.469 30.0247L245.523 27.5737V38.7274" stroke="white" stroke-width="2.37363" stroke-miterlimit="10"/>
<path d="M240.355 14.6489V38.7272" stroke="white" stroke-width="2.37363" stroke-miterlimit="10"/>
<path d="M275 38.3129L268.579 27.9014L273.371 25.0327" stroke="white" stroke-width="2.37363" stroke-miterlimit="10"/>
<path d="M264.972 14.2207V38.2955" stroke="white" stroke-width="2.37363" stroke-miterlimit="10"/>
</svg>
