<svg width="277" height="64" viewBox="0 0 277 64" fill="none" xmlns="http://www.w3.org/2000/svg">
<path d="M80.4151 23.875L72.4452 31.8449L80.4121 39.8118L88.382 31.8419L80.4151 23.875Z" stroke="#FCC822" stroke-width="4" stroke-miterlimit="10"/>
<path d="M116 31.7187L94.3417 53.85L80.6065 39.8176L72.6833 31.7187L80.6106 23.6241L94.3417 9.59167L116 31.7187Z" stroke="#FCC822" stroke-width="4" stroke-miterlimit="10"/>
<path d="M73.0825 31.7188L81.1541 39.6449L59.9687 60.4417L38.7833 39.6449L46.855 31.7188L38.7833 23.7968L59.9687 3L81.1583 23.7968L73.0825 31.7188Z" stroke="#FCC822" stroke-width="4" stroke-miterlimit="10"/>
<path d="M46.3167 32.1895L38.3146 40.6667L30.3083 32.1895L38.3104 23.7167H38.3146L46.3167 32.1895Z" stroke="#FCC822" stroke-width="4" stroke-miterlimit="10"/>
<path d="M46.3167 31.7187L38.3935 39.8176L24.6583 53.85L3 31.7187L24.6583 9.59167L38.3894 23.6241H38.3935L46.3167 31.7187Z" stroke="#FCC822" stroke-width="4" stroke-miterlimit="10"/>
<path d="M131 15.0559H153.798L131 38.3229" stroke="black" stroke-width="2.37363" stroke-miterlimit="10"/>
<path d="M160.733 15.0559L150.277 25.999L160.733 38.3229" stroke="black" stroke-width="2.37363" stroke-miterlimit="10"/>
<path d="M167.254 26.6895V38.323" stroke="black" stroke-width="2.37363" stroke-miterlimit="10"/>
<path d="M173.954 26.6895V38.323L178.711 34.3254" stroke="black" stroke-width="2.37363" stroke-miterlimit="10"/>
<path d="M191.229 26.6894L167.254 49.2212" stroke="black" stroke-width="2.37363" stroke-miterlimit="10"/>
<path d="M186.675 38.3712C187.11 38.4057 191.781 38.6819 194.871 34.9191C197.611 31.581 196.969 27.6698 196.869 27.1036" stroke="black" stroke-width="2.37363" stroke-miterlimit="10"/>
<path d="M196.956 29.6755L202.393 27.1037V38.3712" stroke="black" stroke-width="2.37363" stroke-miterlimit="10"/>
<path d="M202.392 29.6755L207.446 27.1037V38.3712" stroke="black" stroke-width="2.37363" stroke-miterlimit="10"/>
<path d="M213.891 32.7444C213.891 33.4417 214.04 34.101 214.306 34.6948C215.051 36.3552 216.719 37.5082 218.655 37.5082C220.105 37.5082 221.407 36.8627 222.28 35.8374" stroke="black" stroke-width="2.37363" stroke-miterlimit="10"/>
<path d="M223.419 32.7443L218.531 32.6926C215.555 32.6615 215.358 28.1841 218.331 27.9908C218.438 27.9839 218.548 27.9805 218.655 27.9805C221.286 27.9805 223.419 30.1139 223.419 32.7443Z" stroke="black" stroke-width="2.37363" stroke-miterlimit="10"/>
<path d="M251.174 32.7374C251.174 33.4347 251.322 34.0941 251.588 34.6878C252.334 36.3483 254.001 37.5013 255.938 37.5013C257.387 37.5013 258.689 36.8557 259.562 35.8305" stroke="black" stroke-width="2.37363" stroke-miterlimit="10"/>
<path d="M260.701 32.7374L255.813 32.6856C252.837 32.6545 252.641 28.1772 255.613 27.9839C255.72 27.977 255.83 27.9735 255.937 27.9735C258.568 27.9735 260.701 30.1069 260.701 32.7374Z" stroke="black" stroke-width="2.37363" stroke-miterlimit="10"/>
<path d="M234.694 26.6895H230.593C229.036 26.6895 227.776 27.9495 227.776 29.5063C227.776 31.0632 229.036 32.3232 230.593 32.3232H231.877C233.434 32.3232 234.694 33.5833 234.694 35.1401C234.694 36.697 233.434 37.957 231.877 37.957H227.776" stroke="black" stroke-width="2.37363" stroke-miterlimit="10"/>
<path d="M240.469 30.0241L245.523 27.5731V38.7268" stroke="black" stroke-width="2.37363" stroke-miterlimit="10"/>
<path d="M240.355 14.6485V38.7268" stroke="black" stroke-width="2.37363" stroke-miterlimit="10"/>
<path d="M275 38.3126L268.579 27.9011L273.371 25.0324" stroke="black" stroke-width="2.37363" stroke-miterlimit="10"/>
<path d="M264.972 14.2205V38.2953" stroke="black" stroke-width="2.37363" stroke-miterlimit="10"/>
</svg>
