<svg width="57" height="41" viewBox="0 0 57 41" fill="none" xmlns="http://www.w3.org/2000/svg">
<path d="M28.3242 39.9738L28.3013 39.9999" stroke="#FBE04B" stroke-width="1.5" stroke-miterlimit="10"/>
<path d="M28.2143 39.9835L28.2014 39.9737L25.2624 37.1415C25.1915 37.0734 25.1239 37.0118 25.053 36.9436C25.0498 36.9404 25.0465 36.9339 25.0401 36.9307L24.5793 36.4862C24.4955 36.4051 24.4052 36.3207 24.3215 36.2364L21.7886 33.8032C21.7531 33.7708 21.7209 33.7351 21.6887 33.7059C21.3761 33.4074 21.0667 33.1057 20.7573 32.804C20.7251 32.7748 20.6929 32.7424 20.6671 32.7164L16.9741 29.1575C16.4714 28.6773 15.9686 28.2037 15.4724 27.7203C14.4089 26.7016 13.352 25.6861 12.3014 24.6642L8.97253 21.4557L8.95642 21.4427L8.9693 21.4265L12.0984 18.1336C12.1113 18.1206 12.1242 18.1076 12.1338 18.0979L15.6883 14.3573C15.7914 14.247 15.8978 14.1334 16.0073 14.0199L19.7616 10.0749C19.9678 9.86078 20.1676 9.64017 20.3771 9.42605C20.39 9.40983 20.4029 9.39685 20.419 9.38063L20.5704 9.22166L24.0669 5.53621C24.1217 5.47782 24.1732 5.42591 24.228 5.36751L26.4322 3.05113L27.3571 2.07786L27.37 2.06164L27.4022 2.0292L27.428 2L27.4441 2.01297L27.4795 2.04866L27.5085 2.07786L34.1147 8.43655L35.407 9.68235L40.476 14.5617L40.9207 14.9899L46.7116 20.5667L46.7374 20.5895L46.7148 20.6154L41.2011 26.4193L40.866 26.7697L34.4144 33.5664L34.263 33.7254L34.234 33.7578H34.2307L34.0503 33.946L34.0148 33.9849L33.9375 34.066L33.8827 34.1244" stroke="#FBE04B" stroke-width="1.5" stroke-miterlimit="10"/>
<path d="M10.6772 31.0034L8.00891 28.4373" stroke="#FBE04B" stroke-width="1.5" stroke-miterlimit="10"/>
<path d="M16.6261 13.3776C11.4572 18.75 6.51059 24.1614 1.35132 29.4592" stroke="#FBE04B" stroke-width="1.5" stroke-miterlimit="10"/>
<path d="M7.05191 34.8219L1.41248 29.3943L5.03783 25.5758" stroke="#FBE04B" stroke-width="1.5" stroke-miterlimit="10"/>
<path d="M10.8449 30.8251L6.88123 34.9972" stroke="#FBE04B" stroke-width="1.5" stroke-miterlimit="10"/>
<path d="M35.6326 32.2882L34.4048 33.5697L34.2534 33.7286L34.2244 33.7611L34.0085 33.9849L33.9279 34.0693L33.8763 34.1277L28.2494 40" stroke="#FBE04B" stroke-width="1.5" stroke-miterlimit="10"/>
<path d="M27.4377 2.01953C27.428 2.02926 27.4184 2.039 27.4087 2.04873C27.399 2.06171 27.3861 2.07468 27.3765 2.08441C27.37 2.0909 27.3668 2.09415 27.3636 2.09739C27.1219 2.35044 26.8802 2.60025 26.6385 2.8533C25.8329 3.69355 25.0272 4.53381 24.2184 5.37731C24.1636 5.43571 24.112 5.48761 24.0573 5.54601C22.8875 6.76584 21.7241 7.99541 20.5608 9.23146C20.4899 9.29959 20.4287 9.36772 20.3674 9.43585C20.158 9.64997 19.9582 9.87058 19.752 10.0847" stroke="#FBE04B" stroke-width="1.5" stroke-miterlimit="10"/>
<path d="M45.371 10.5779L48.0424 13.1343" stroke="#FBE04B" stroke-width="1.5" stroke-miterlimit="10"/>
<path d="M48.679 7L54.3281 12.4114L50.7188 16.2428" stroke="#FBE04B" stroke-width="1.5" stroke-miterlimit="10"/>
<path d="M51.0233 15.9891L47.7073 19.5059L39.3706 28.3497" stroke="#FBE04B" stroke-width="1.5" stroke-miterlimit="10"/>
<path d="M45.2035 10.7562L49.1511 6.56787" stroke="#FBE04B" stroke-width="1.5" stroke-miterlimit="10"/>
<path d="M7.69958 14.5033L10.2486 11.8203" stroke="#FBE04B" stroke-width="1.5" stroke-miterlimit="10"/>
<path d="M16.9741 29.1607C11.5699 24.0251 6.3913 18.8441 1 13.7831" stroke="#FBE04B" stroke-width="1.5" stroke-miterlimit="10"/>
<path d="M4.86054 17.4945L1.06763 13.8447L6.45893 8.17053" stroke="#FBE04B" stroke-width="1.5" stroke-miterlimit="10"/>
<path d="M10.426 11.9922L6.28186 8.00183" stroke="#FBE04B" stroke-width="1.5" stroke-miterlimit="10"/>
<path d="M27.3958 2.03564L27.4087 2.04862L27.4473 2.08431L27.4731 2.11026L34.1051 8.443L35.1234 9.41627" stroke="#FBE04B" stroke-width="1.5" stroke-miterlimit="10"/>
<path d="M28.2306 39.9706C28.2273 39.9673 28.2208 39.9641 28.2175 39.9575" stroke="#FBE04B" stroke-width="1.5" stroke-miterlimit="10"/>
<path d="M25.2624 37.1415C25.1915 37.0734 25.1238 37.0118 25.0529 36.9436C25.0497 36.9404 25.0465 36.9339 25.04 36.9307C25.0304 36.9209 25.0207 36.9112 25.011 36.8982C24.866 36.762 24.7242 36.6225 24.5792 36.4862C24.4954 36.4051 24.4052 36.3207 24.3214 36.2364C23.4771 35.4318 22.6296 34.6208 21.7885 33.8032C21.753 33.7708 21.7208 33.7351 21.6886 33.7059C21.376 33.4074 21.0666 33.1057 20.7573 32.804C20.7251 32.7748 20.6928 32.7424 20.667 32.7164C20.5285 32.5802 20.3899 32.4471 20.2513 32.3109" stroke="#FBE04B" stroke-width="1.5" stroke-miterlimit="10"/>
<path d="M48.3744 27.9896L45.819 30.6661" stroke="#FBE04B" stroke-width="1.5" stroke-miterlimit="10"/>
<path d="M51.2232 25.0049L55 28.6709L49.5958 34.3288" stroke="#FBE04B" stroke-width="1.5" stroke-miterlimit="10"/>
<path d="M39.0323 13.1796L47.7557 21.6405L51.2232 25.0048" stroke="#FBE04B" stroke-width="1.5" stroke-miterlimit="10"/>
<path d="M45.6417 30.4941L49.7698 34.5008" stroke="#FBE04B" stroke-width="1.5" stroke-miterlimit="10"/>
<path d="M28.139 29.0903L36.0319 20.781L27.7781 12.835L19.8853 21.1443L28.139 29.0903Z" stroke="#FBE04B" stroke-width="1.5" stroke-miterlimit="10"/>
<path d="M20.6123 25.2352L19.4716 24.1387" stroke="#FBE04B" stroke-width="1.5" stroke-miterlimit="10"/>
<path d="M23.1549 17.7021C20.9442 19.9991 18.8302 22.3122 16.6228 24.5767" stroke="#FBE04B" stroke-width="1.5" stroke-miterlimit="10"/>
<path d="M19.0625 26.8671L16.6521 24.5474L18.2021 22.9156" stroke="#FBE04B" stroke-width="1.5" stroke-miterlimit="10"/>
<path d="M20.6865 25.1606L18.9915 26.945" stroke="#FBE04B" stroke-width="1.5" stroke-miterlimit="10"/>
<path d="M24.9918 29.8032L23.8574 28.7034" stroke="#FBE04B" stroke-width="1.5" stroke-miterlimit="10"/>
<path d="M26.2614 31.0327L24.7049 32.658L22.3009 30.3319" stroke="#FBE04B" stroke-width="1.5" stroke-miterlimit="10"/>
<path d="M31.2822 25.7834L27.6891 29.5403L26.2615 31.0326" stroke="#FBE04B" stroke-width="1.5" stroke-miterlimit="10"/>
<path d="M23.9283 28.6287L22.2268 30.4065" stroke="#FBE04B" stroke-width="1.5" stroke-miterlimit="10"/>
<path d="M30.7213 12.2972L31.8589 13.3938" stroke="#FBE04B" stroke-width="1.5" stroke-miterlimit="10"/>
<path d="M24.4955 16.2908C26.6771 13.9647 28.8781 11.7359 31.0276 9.41626" stroke="#FBE04B" stroke-width="1.5" stroke-miterlimit="10"/>
<path d="M29.4485 11.0741L30.9985 9.44226L33.409 11.7651" stroke="#FBE04B" stroke-width="1.5" stroke-miterlimit="10"/>
<path d="M31.7882 13.4716L33.4833 11.6873" stroke="#FBE04B" stroke-width="1.5" stroke-miterlimit="10"/>
<path d="M35.4458 16.5017L36.5898 17.595" stroke="#FBE04B" stroke-width="1.5" stroke-miterlimit="10"/>
<path d="M36.9893 14.8634L39.4062 17.1798L37.8626 18.8149" stroke="#FBE04B" stroke-width="1.5" stroke-miterlimit="10"/>
<path d="M37.8625 18.8149L36.4446 20.3203L32.8805 24.103" stroke="#FBE04B" stroke-width="1.5" stroke-miterlimit="10"/>
<path d="M35.3748 16.5796L37.0634 14.7888" stroke="#FBE04B" stroke-width="1.5" stroke-miterlimit="10"/>
<path d="M19.3395 18.1823L20.4319 17.0338" stroke="#FBE04B" stroke-width="1.5" stroke-miterlimit="10"/>
<path d="M23.3063 24.4468C20.9958 22.2505 18.7819 20.0347 16.4778 17.8708" stroke="#FBE04B" stroke-width="1.5" stroke-miterlimit="10"/>
<path d="M18.1247 19.4604L16.5038 17.9L18.8111 15.4733" stroke="#FBE04B" stroke-width="1.5" stroke-miterlimit="10"/>
<path d="M20.506 17.1083L18.7336 15.4019" stroke="#FBE04B" stroke-width="1.5" stroke-miterlimit="10"/>
<path d="M23.5159 13.423L24.6051 12.2745" stroke="#FBE04B" stroke-width="1.5" stroke-miterlimit="10"/>
<path d="M21.8917 11.869L24.1894 9.43579L25.8168 10.9898" stroke="#FBE04B" stroke-width="1.5" stroke-miterlimit="10"/>
<path d="M25.8168 10.9897L27.3088 12.4172L31.0663 16.0053" stroke="#FBE04B" stroke-width="1.5" stroke-miterlimit="10"/>
<path d="M23.5932 13.4976L21.8143 11.7976" stroke="#FBE04B" stroke-width="1.5" stroke-miterlimit="10"/>
<path d="M32.1908 28.3562L31.1016 29.5047" stroke="#FBE04B" stroke-width="1.5" stroke-miterlimit="10"/>
<path d="M24.7081 25.7964C26.9897 28.022 29.2874 30.1502 31.5367 32.3725" stroke="#FBE04B" stroke-width="1.5" stroke-miterlimit="10"/>
<path d="M33.8119 29.9166L31.5078 32.3433L29.8868 30.7828" stroke="#FBE04B" stroke-width="1.5" stroke-miterlimit="10"/>
<path d="M32.1167 28.2848L33.8891 29.9912" stroke="#FBE04B" stroke-width="1.5" stroke-miterlimit="10"/>
<path d="M36.7314 23.9473L35.6357 25.0925" stroke="#FBE04B" stroke-width="1.5" stroke-miterlimit="10"/>
<path d="M37.9496 22.6722L39.5641 24.2392L37.2535 26.6594" stroke="#FBE04B" stroke-width="1.5" stroke-miterlimit="10"/>
<path d="M32.7355 17.6145L36.4672 21.2318L37.9495 22.6723" stroke="#FBE04B" stroke-width="1.5" stroke-miterlimit="10"/>
<path d="M35.5616 25.0178L37.3276 26.7308" stroke="#FBE04B" stroke-width="1.5" stroke-miterlimit="10"/>
</svg>
