<svg width="132" height="74" viewBox="0 0 132 74" fill="none" xmlns="http://www.w3.org/2000/svg">
<g id="Group">
<path id="Vector" d="M71.9628 46.3178L71.7304 46.3668L5.14639 72.9626L4.31388 73.2751L3.23812 69.6657L2.09207 65.8173L2.0272 65.5967L0.854136 61.644L0 58.7822L0.00541114 58.7761L48.8474 39.007L66.5732 31.831L66.8165 32.4745L67.3787 33.9942L70.5627 42.549L71.4277 44.8777L71.9628 46.3178Z" fill="black"/>
<path id="Vector_2" d="M14.6553 68.1949L10.8225 69.7453L11.9199 66.2646L14.6553 68.1949Z" fill="white"/>
<path id="Vector_3" d="M65.6851 31.6452C44.0198 40.4219 22.3545 49.1929 0.689097 57.9639C2.25074 51.0411 4.72822 46.133 6.48943 43.1788L6.48945 43.1788C8.08134 40.5083 9.59799 38.6313 10.5571 37.4463L10.5575 37.4458C12.7128 34.776 16.2092 30.4593 21.5117 27.1125L65.6851 31.6452ZM65.6851 31.6452C63.246 29.2536 59.4611 26.1098 54.5441 24.0182C52.3538 23.0902 50.3632 22.549 48.6034 22.2365C47.4124 22.0265 45.3787 21.743 42.4983 21.8516L65.6851 31.6452ZM21.5119 27.1124C29.0371 22.3679 36.2331 22.0906 42.4981 21.8516L21.5119 27.1124Z" stroke="black"/>
<g id="Group_2">
<g id="Group_3">
<path id="Vector_4" d="M4.59499 66.5894L3.49219 62.7349L6.22757 61.7115L7.33035 65.5599L4.59499 66.5894Z" stroke="white" stroke-width="0.279159" stroke-miterlimit="10"/>
<path id="Vector_5" d="M6.73035 63.5315L8.62779 62.8574L10.5955 64.3037L9.75222 66.8284L8.09803 65.6089L8.51969 64.3465" stroke="white" stroke-width="0.279159" stroke-miterlimit="10"/>
<path id="Vector_6" d="M6.68701 63.3722L8.56285 62.6307L9.39535 60.1304L7.4114 58.6719L6.70864 60.7739L7.70332 61.5031" stroke="white" stroke-width="0.279159" stroke-miterlimit="10"/>
<path id="Vector_7" d="M4.94096 62.214L4.15711 59.5728L2.18938 58.1204L1.34607 60.6452L3.00026 61.8647L3.42192 60.6023" stroke="white" stroke-width="0.279159" stroke-miterlimit="10"/>
<path id="Vector_8" d="M5.05444 62.1711L4.31384 59.5115L5.14635 57.0112L7.1357 58.4697L6.43293 60.5716L5.44367 59.8424" stroke="white" stroke-width="0.279159" stroke-miterlimit="10"/>
<path id="Vector_9" d="M5.88159 66.0808L6.66545 68.7281L8.63317 70.1744L9.47649 67.6496L7.82229 66.4362L7.40064 67.6986" stroke="white" stroke-width="0.279159" stroke-miterlimit="10"/>
<path id="Vector_10" d="M5.81673 66.0746L6.55733 68.7404L5.71943 71.2406L3.73547 69.776L4.43283 67.6741L5.42751 68.4033" stroke="white" stroke-width="0.279159" stroke-miterlimit="10"/>
<path id="Vector_11" d="M1.16223 61.4847L2.81642 62.6981L2.39477 63.9605" stroke="white" stroke-width="0.279159" stroke-miterlimit="10"/>
<path id="Vector_12" d="M3.17322 66.6691L4.16789 67.3983L3.5084 69.3654" stroke="white" stroke-width="0.279159" stroke-miterlimit="10"/>
</g>
<g id="Group_4">
<path id="Vector_13" d="M15.8555 62.3488L14.6986 58.5187L17.4123 57.4218L18.5692 61.2519L15.8555 62.3488Z" stroke="white" stroke-width="0.279159" stroke-miterlimit="10"/>
<path id="Vector_14" d="M17.9421 59.2357L19.8234 58.5126L21.8073 59.916L21.0019 62.4652L19.3314 61.2886L19.7369 60.0079" stroke="white" stroke-width="0.279159" stroke-miterlimit="10"/>
<path id="Vector_15" d="M17.8989 59.0764L19.7585 58.292L20.5586 55.7611L18.553 54.3455L17.8827 56.472L18.8828 57.1767" stroke="white" stroke-width="0.279159" stroke-miterlimit="10"/>
<path id="Vector_16" d="M16.1419 57.9611L15.3202 55.3322L13.3362 53.9288L12.5308 56.4781L14.1958 57.6547L14.6012 56.3801" stroke="white" stroke-width="0.279159" stroke-miterlimit="10"/>
<path id="Vector_17" d="M16.2501 57.9121L15.4771 55.2648L16.2771 52.74L18.2773 54.1556L17.607 56.2759L16.6069 55.5712" stroke="white" stroke-width="0.279159" stroke-miterlimit="10"/>
<path id="Vector_18" d="M17.1259 61.8157L17.9476 64.4446L19.9315 65.8479L20.737 63.2987L19.072 62.1159L18.6665 63.3906" stroke="white" stroke-width="0.279159" stroke-miterlimit="10"/>
<path id="Vector_19" d="M17.0177 61.8585L17.7907 64.512L16.9906 67.0367L14.9905 65.6212L15.6608 63.4947L16.6609 64.2056" stroke="white" stroke-width="0.279159" stroke-miterlimit="10"/>
<path id="Vector_20" d="M15.3256 60.541L13.4444 61.2641L11.4604 59.8608L12.2659 57.3115L13.9363 58.4881L13.5309 59.7628" stroke="white" stroke-width="0.279159" stroke-miterlimit="10"/>
<path id="Vector_21" d="M15.3689 60.6942L13.5093 61.4847L12.7092 64.0095L14.7148 65.4251L15.3851 63.3048L14.385 62.5939" stroke="white" stroke-width="0.279159" stroke-miterlimit="10"/>
</g>
<g id="Group_5">
<path id="Vector_22" d="M27.1428 57.7711L25.986 53.941L28.6997 52.8441L29.8566 56.6803L27.1428 57.7711Z" stroke="white" stroke-width="0.279159" stroke-miterlimit="10"/>
<path id="Vector_23" d="M29.2295 54.658L31.1107 53.9349L33.0947 55.3383L32.2892 57.8875L30.6242 56.711L31.0242 55.4363" stroke="white" stroke-width="0.279159" stroke-miterlimit="10"/>
<path id="Vector_24" d="M29.1863 54.5049L31.0459 53.7143L31.846 51.1896L29.8404 49.774L29.17 51.8943L30.1701 52.6052" stroke="white" stroke-width="0.279159" stroke-miterlimit="10"/>
<path id="Vector_25" d="M27.4294 53.3834L26.6077 50.7545L24.6237 49.3511L23.8182 51.9004L25.4833 53.077L25.8887 51.8024" stroke="white" stroke-width="0.279159" stroke-miterlimit="10"/>
<path id="Vector_26" d="M27.5374 53.3405L26.7644 50.6871L27.5645 48.1623L29.57 49.5779L28.8943 51.6982L27.8942 50.9935" stroke="white" stroke-width="0.279159" stroke-miterlimit="10"/>
<path id="Vector_27" d="M28.4187 57.238L29.235 59.8669L31.2189 61.2702L32.0244 58.721L30.3594 57.5444L29.954 58.819" stroke="white" stroke-width="0.279159" stroke-miterlimit="10"/>
<path id="Vector_28" d="M28.3052 57.2809L29.0782 59.9343L28.2781 62.4591L26.278 61.0435L26.9483 58.9232L27.9484 59.6279" stroke="white" stroke-width="0.279159" stroke-miterlimit="10"/>
<path id="Vector_29" d="M26.6131 55.9633L24.7319 56.6864L22.7479 55.2831L23.5534 52.7338L25.2238 53.9104L24.8184 55.1851" stroke="white" stroke-width="0.279159" stroke-miterlimit="10"/>
<path id="Vector_30" d="M26.6618 56.1165L24.7967 56.907L24.0021 59.4318L26.0023 60.8474L26.6726 58.7271L25.6725 58.0162" stroke="white" stroke-width="0.279159" stroke-miterlimit="10"/>
</g>
<g id="Group_6">
<path id="Vector_31" d="M39.9927 52.4214L38.8358 48.5913L41.5496 47.4944L42.7064 51.3244L39.9927 52.4214Z" stroke="white" stroke-width="0.279159" stroke-miterlimit="10"/>
<path id="Vector_32" d="M42.0792 49.3083L43.9605 48.5852L45.9444 49.9824L45.1389 52.5378L43.4685 51.3551L43.874 50.0805" stroke="white" stroke-width="0.279159" stroke-miterlimit="10"/>
<path id="Vector_33" d="M42.0306 49.149L43.8956 48.3584L44.6903 45.8337L42.6901 44.4181L42.0198 46.5445L43.0199 47.2493" stroke="white" stroke-width="0.279159" stroke-miterlimit="10"/>
<path id="Vector_34" d="M40.2791 48.0337L39.4574 45.3986L37.4734 44.0014L36.668 46.5507L38.333 47.7273L38.7384 46.4526" stroke="white" stroke-width="0.279159" stroke-miterlimit="10"/>
<path id="Vector_35" d="M40.3872 47.9846L39.6141 45.3373L40.4142 42.8064L42.4144 44.222L41.744 46.3484L40.744 45.6376" stroke="white" stroke-width="0.279159" stroke-miterlimit="10"/>
<path id="Vector_36" d="M41.2629 51.8821L42.0846 54.5172L44.0686 55.9205L44.8741 53.3651L43.209 52.1885L42.8036 53.4631" stroke="white" stroke-width="0.279159" stroke-miterlimit="10"/>
<path id="Vector_37" d="M41.1549 51.9311L41.9279 54.5784L41.1279 57.1093L39.1277 55.6937L39.798 53.5673L40.7981 54.2781" stroke="white" stroke-width="0.279159" stroke-miterlimit="10"/>
<path id="Vector_38" d="M39.4628 50.6074L37.5816 51.3305L35.5977 49.9333L36.4031 47.3779L38.0681 48.5607L37.6681 49.8353" stroke="white" stroke-width="0.279159" stroke-miterlimit="10"/>
<path id="Vector_39" d="M39.5061 50.7668L37.6465 51.5573L36.8464 54.0821L38.852 55.4977L39.5223 53.3712L38.5223 52.6665" stroke="white" stroke-width="0.279159" stroke-miterlimit="10"/>
</g>
<g id="Group_7">
<path id="Vector_40" d="M51.2745 48.193L50.1177 44.363L52.8314 43.2661L53.9883 47.0961L51.2745 48.193Z" stroke="white" stroke-width="0.279159" stroke-miterlimit="10"/>
<path id="Vector_41" d="M53.3612 45.0799L55.2425 44.3568L57.2264 45.7601L56.4209 48.3094L54.7505 47.1267L55.156 45.8521" stroke="white" stroke-width="0.279159" stroke-miterlimit="10"/>
<path id="Vector_42" d="M53.3126 44.9206L55.1776 44.13L55.9723 41.6053L53.9721 40.1897L53.3018 42.3161L54.3018 43.0209" stroke="white" stroke-width="0.279159" stroke-miterlimit="10"/>
<path id="Vector_43" d="M51.5611 43.8053L50.7394 41.1702L48.7554 39.773L47.95 42.3223L49.6149 43.4989L50.0204 42.2242" stroke="white" stroke-width="0.279159" stroke-miterlimit="10"/>
<path id="Vector_44" d="M51.6692 43.7563L50.8961 41.1089L51.6962 38.5842L53.6964 39.9936L53.026 42.1201L52.026 41.4092" stroke="white" stroke-width="0.279159" stroke-miterlimit="10"/>
<path id="Vector_45" d="M52.5449 47.6537L53.3666 50.2887L55.3506 51.6921L56.156 49.1367L54.491 47.9601L54.0856 49.2347" stroke="white" stroke-width="0.279159" stroke-miterlimit="10"/>
<path id="Vector_46" d="M52.4369 47.7028L53.2099 50.3501L52.4098 52.881L50.4097 51.4654L51.08 49.339L52.0801 50.0498" stroke="white" stroke-width="0.279159" stroke-miterlimit="10"/>
<path id="Vector_47" d="M50.7448 46.3852L48.8636 47.1021L46.8796 45.7049L47.6851 43.1495L49.3501 44.3322L48.9501 45.6069" stroke="white" stroke-width="0.279159" stroke-miterlimit="10"/>
<path id="Vector_48" d="M50.7881 46.5384L48.9285 47.3289L48.1284 49.8537L50.134 51.2693L50.8043 49.1428L49.8042 48.4381" stroke="white" stroke-width="0.279159" stroke-miterlimit="10"/>
</g>
<g id="Group_8">
<path id="Vector_49" d="M63.3351 43.2905L62.1782 39.4605L64.892 38.3635L66.0488 42.1936L63.3351 43.2905Z" stroke="white" stroke-width="0.279159" stroke-miterlimit="10"/>
<path id="Vector_50" d="M65.4218 40.1775L67.303 39.4543L69.2869 40.8577L68.4815 43.407L66.8165 42.2242L67.2165 40.9496" stroke="white" stroke-width="0.279159" stroke-miterlimit="10"/>
<path id="Vector_51" d="M65.3785 40.0181L67.2381 39.2276L68.0382 36.7028L66.0326 35.2872L65.3623 37.4137L66.3624 38.1184" stroke="white" stroke-width="0.279159" stroke-miterlimit="10"/>
<path id="Vector_52" d="M63.6216 38.9028L62.7999 36.2677L60.816 34.8705L60.0105 37.4198L61.6755 38.5964L62.0809 37.3218" stroke="white" stroke-width="0.279159" stroke-miterlimit="10"/>
<path id="Vector_53" d="M63.7297 38.8538L62.9567 36.2065L63.7567 33.6817L65.7569 35.0973L65.0866 37.2176L64.0865 36.5129" stroke="white" stroke-width="0.279159" stroke-miterlimit="10"/>
<path id="Vector_54" d="M64.6055 42.7512L65.4272 45.3863L67.4111 46.7896L68.2166 44.2403L66.5516 43.0576L66.1461 44.3323" stroke="white" stroke-width="0.279159" stroke-miterlimit="10"/>
<path id="Vector_55" d="M64.4974 42.8002L65.2705 45.4476L64.4704 47.9785L62.4702 46.5629L63.1406 44.4364L64.1406 45.1473" stroke="white" stroke-width="0.279159" stroke-miterlimit="10"/>
<path id="Vector_56" d="M62.8054 41.4827L60.9241 42.1997L58.9402 40.8025L59.7457 38.2532L61.4161 39.4298L61.0106 40.7044" stroke="white" stroke-width="0.279159" stroke-miterlimit="10"/>
<path id="Vector_57" d="M62.854 41.6359L60.989 42.4265L60.1943 44.9512L62.1945 46.3668L62.8648 44.2465L61.8647 43.5356" stroke="white" stroke-width="0.279159" stroke-miterlimit="10"/>
</g>
</g>
<path id="Vector_58" d="M26.0995 63.9175L22.2667 65.4679L23.3641 61.9872L26.0995 63.9175Z" fill="white"/>
<path id="Vector_59" d="M18.4772 52.7338L22.3153 51.1834L21.2126 54.6641L18.4772 52.7338Z" fill="white"/>
<path id="Vector_60" d="M38.4573 58.9722L34.6191 60.5226L35.7219 57.0357L38.4573 58.9722Z" fill="white"/>
<path id="Vector_61" d="M30.8351 47.7823L34.6732 46.2319L33.5704 49.7127L30.8351 47.7823Z" fill="white"/>
<path id="Vector_62" d="M50.4097 54.1433L46.5715 55.6937L47.6743 52.2068L50.4097 54.1433Z" fill="white"/>
<path id="Vector_63" d="M42.782 42.9534L46.6201 41.403L45.5227 44.8838L42.782 42.9534Z" fill="white"/>
<path id="Vector_64" d="M61.935 49.3818L58.0968 50.9322L59.1996 47.4453L61.935 49.3818Z" fill="white"/>
<path id="Vector_65" d="M54.3127 38.1919L58.1509 36.6415L57.0481 40.1222L54.3127 38.1919Z" fill="white"/>
<path id="Vector_66" d="M71.6223 45.5762L70.9952 45.8275L69.7843 46.3177L70.0708 45.4108L70.7574 43.2476L71.6223 45.5762Z" fill="white"/>
<path id="Vector_67" d="M67.5732 34.6927L66.0001 33.5836L67.011 33.173L67.5732 34.6927Z" fill="white"/>
<path id="Vector_68" d="M127.319 62.122L127.254 62.0791L61.2268 19.6238L60.9294 19.4277L66.3245 8.68524H66.3299L131.973 50.5032L131.752 51.0547L131.233 52.3477L128.319 59.6279L127.524 61.6072L127.319 62.122Z" fill="black"/>
<path id="Vector_69" d="M78.3125 10.7846L78.3126 10.7846C104.122 16.6132 121.351 36.4113 130.129 48.7418L68.2096 9.29341C71.4539 9.52382 74.8309 9.99729 78.3125 10.7846Z" stroke="black"/>
<g id="Group_9">
<path id="Vector_70" d="M67.6171 17.7626L69.1708 14.7601L66.5221 12.9989L64.9685 16.0014L67.6171 17.7626Z" stroke="white" stroke-width="0.236561" stroke-miterlimit="10"/>
<path id="Vector_71" d="M68.4436 16.1615L70.2546 17.4055L70.8168 19.8445L68.6436 20.4879L68.1733 18.435L69.2599 18.1163" stroke="white" stroke-width="0.236561" stroke-miterlimit="10"/>
<path id="Vector_72" d="M68.5085 16.045L70.3465 17.2278L72.4981 16.5966L71.9359 14.127L70.1249 14.6662L70.406 15.898" stroke="white" stroke-width="0.236561" stroke-miterlimit="10"/>
<path id="Vector_73" d="M67.9355 13.9493L68.9843 11.8596L68.4221 9.42062L66.2489 10.0641L66.7192 12.117L67.8058 11.7922" stroke="white" stroke-width="0.236561" stroke-miterlimit="10"/>
<path id="Vector_74" d="M68.0436 14.0167L69.1356 11.9638L71.2925 11.3264L71.8547 13.7899L70.0492 14.3231L69.7627 13.0913" stroke="white" stroke-width="0.236561" stroke-miterlimit="10"/>
<path id="Vector_75" d="M66.2488 16.811L65.2001 18.8946L65.7623 21.3397L67.9354 20.6962L67.4651 18.6433L66.3785 18.9681" stroke="white" stroke-width="0.236561" stroke-miterlimit="10"/>
<path id="Vector_76" d="M66.1408 16.7436L65.0434 18.7965L62.8918 19.4339L62.3242 16.9704L64.1352 16.4311L64.4217 17.6628" stroke="white" stroke-width="0.236561" stroke-miterlimit="10"/>
<path id="Vector_77" d="M65.7353 14.5927L63.9244 13.3548L63.3676 10.9158L65.5407 10.2724L66.011 12.3253L64.9244 12.644" stroke="white" stroke-width="0.236561" stroke-miterlimit="10"/>
<path id="Vector_78" d="M65.6758 14.7152L63.8378 13.5325L61.6809 14.1637L62.2485 16.6272L64.0595 16.0941L63.773 14.8623" stroke="white" stroke-width="0.236561" stroke-miterlimit="10"/>
</g>
<g id="Group_10">
<path id="Vector_79" d="M78.3878 25.63L79.8936 22.5966L77.2176 20.8896L75.7118 23.9231L78.3878 25.63Z" stroke="white" stroke-width="0.236561" stroke-miterlimit="10"/>
<path id="Vector_80" d="M79.1742 24.0239L81.0068 25.225L81.6069 27.6578L79.4445 28.3441L78.9418 26.2974L80.0229 25.9542" stroke="white" stroke-width="0.236561" stroke-miterlimit="10"/>
<path id="Vector_81" d="M79.2391 23.9013L81.0933 25.0472L83.2395 24.3731L82.634 21.9158L80.8339 22.4918L81.1366 23.7174" stroke="white" stroke-width="0.236561" stroke-miterlimit="10"/>
<path id="Vector_82" d="M78.6283 21.8177L79.6446 19.7097L79.0445 17.283L76.8822 17.9693L77.3849 20.01L78.4661 19.6668" stroke="white" stroke-width="0.236561" stroke-miterlimit="10"/>
<path id="Vector_83" d="M78.7418 21.8851L79.8014 19.8077L81.9421 19.1275L82.5476 21.5787L80.7474 22.1548L80.4447 20.9292" stroke="white" stroke-width="0.236561" stroke-miterlimit="10"/>
<path id="Vector_84" d="M76.9903 24.7163L75.974 26.8244L76.574 29.2511L78.7364 28.5647L78.2336 26.5241L77.1525 26.8672" stroke="white" stroke-width="0.236561" stroke-miterlimit="10"/>
<path id="Vector_85" d="M76.8822 24.6489L75.8172 26.7263L73.6765 27.4065L73.071 24.9492L74.8712 24.3793L75.1739 25.6049" stroke="white" stroke-width="0.236561" stroke-miterlimit="10"/>
<path id="Vector_86" d="M76.4444 22.5102L74.6118 21.3091L74.0117 18.8763L76.1741 18.1899L76.6822 20.2367L75.601 20.5799" stroke="white" stroke-width="0.236561" stroke-miterlimit="10"/>
<path id="Vector_87" d="M76.3849 22.6328L74.5253 21.4807L72.3845 22.1609L72.99 24.6121L74.7901 24.0422L74.4874 22.8166" stroke="white" stroke-width="0.236561" stroke-miterlimit="10"/>
</g>
<g id="Group_11">
<path id="Vector_88" d="M89.5054 32.7218L91.0112 29.6883L88.3353 27.9813L86.8295 31.0148L89.5054 32.7218Z" stroke="white" stroke-width="0.236561" stroke-miterlimit="10"/>
<path id="Vector_89" d="M90.2886 31.114L92.1212 32.3151L92.7213 34.7418L90.5589 35.4282L90.0508 33.3875L91.132 33.0444" stroke="white" stroke-width="0.236561" stroke-miterlimit="10"/>
<path id="Vector_90" d="M90.3536 30.9914L92.2078 32.1374L94.354 31.4571L93.7485 29.0059L91.9429 29.582L92.2457 30.8076" stroke="white" stroke-width="0.236561" stroke-miterlimit="10"/>
<path id="Vector_91" d="M89.7428 28.9079L90.7591 26.7998L90.159 24.3731L87.9967 25.0594L88.4994 27.1001L89.5806 26.7569" stroke="white" stroke-width="0.236561" stroke-miterlimit="10"/>
<path id="Vector_92" d="M89.8562 28.9753L90.9157 26.8979L93.0565 26.2177L93.6619 28.6689L91.8618 29.2449L91.5591 28.0132" stroke="white" stroke-width="0.236561" stroke-miterlimit="10"/>
<path id="Vector_93" d="M88.1047 31.8065L87.0884 33.9084L87.6884 36.3412L89.8508 35.6549L89.348 33.6142L88.2669 33.9574" stroke="white" stroke-width="0.236561" stroke-miterlimit="10"/>
<path id="Vector_94" d="M87.9967 31.7391L86.9317 33.8103L84.791 34.4906L84.1855 32.0393L85.9857 31.4694L86.2884 32.695" stroke="white" stroke-width="0.236561" stroke-miterlimit="10"/>
<path id="Vector_95" d="M87.5587 29.6004L85.7262 28.3993L85.1261 25.9664L87.2884 25.2801L87.7966 27.3207L86.7154 27.6639" stroke="white" stroke-width="0.236561" stroke-miterlimit="10"/>
<path id="Vector_96" d="M87.4938 29.7229L85.6396 28.5709L83.4989 29.2511L84.1044 31.7023L85.9045 31.1324L85.6018 29.9068" stroke="white" stroke-width="0.236561" stroke-miterlimit="10"/>
</g>
<g id="Group_12">
<path id="Vector_97" d="M102.274 40.6961L103.78 37.6627L101.104 35.9557L99.5985 38.9892L102.274 40.6961Z" stroke="white" stroke-width="0.236561" stroke-miterlimit="10"/>
<path id="Vector_98" d="M103.057 39.0927L104.89 40.2938L105.49 42.7205L103.322 43.4069L102.819 41.3662L103.901 41.0231" stroke="white" stroke-width="0.236561" stroke-miterlimit="10"/>
<path id="Vector_99" d="M103.117 38.9702L104.976 40.1161L107.117 39.4359L106.512 36.9847L104.712 37.5607L105.014 38.7863" stroke="white" stroke-width="0.236561" stroke-miterlimit="10"/>
<path id="Vector_100" d="M102.511 36.8866L103.528 34.7786L102.928 32.3519L100.765 33.0382L101.268 35.0789L102.349 34.7357" stroke="white" stroke-width="0.236561" stroke-miterlimit="10"/>
<path id="Vector_101" d="M102.62 36.954L103.684 34.8766L105.825 34.1964L106.431 36.6476L104.631 37.2237L104.328 35.9919" stroke="white" stroke-width="0.236561" stroke-miterlimit="10"/>
<path id="Vector_102" d="M100.868 39.7852L99.8571 41.8871L100.457 44.32L102.619 43.6336L102.117 41.593L101.036 41.9362" stroke="white" stroke-width="0.236561" stroke-miterlimit="10"/>
<path id="Vector_103" d="M100.76 39.7178L99.7003 41.7891L97.5596 42.4693L96.9541 40.0181L98.7543 39.4482L99.057 40.6738" stroke="white" stroke-width="0.236561" stroke-miterlimit="10"/>
<path id="Vector_104" d="M100.327 37.5791L98.4948 36.378L97.8948 33.9451L100.057 33.2588L100.56 35.2994L99.4787 35.6426" stroke="white" stroke-width="0.236561" stroke-miterlimit="10"/>
<path id="Vector_105" d="M100.263 37.7016L98.4084 36.5496L96.2622 37.2298L96.8677 39.681L98.6678 39.1111L98.3651 37.8855" stroke="white" stroke-width="0.236561" stroke-miterlimit="10"/>
</g>
<g id="Group_13">
<path id="Vector_106" d="M113.388 47.7849L114.893 44.7514L112.217 43.0444L110.712 46.0779L113.388 47.7849Z" stroke="white" stroke-width="0.236561" stroke-miterlimit="10"/>
<path id="Vector_107" d="M114.172 46.1829L116.004 47.384L116.599 49.8107L114.437 50.4971L113.934 48.4564L115.015 48.1133" stroke="white" stroke-width="0.236561" stroke-miterlimit="10"/>
<path id="Vector_108" d="M114.231 46.0603L116.091 47.2063L118.232 46.5261L117.626 44.0748L115.826 44.6447L116.129 45.8703" stroke="white" stroke-width="0.236561" stroke-miterlimit="10"/>
<path id="Vector_109" d="M113.626 43.9706L114.642 41.8687L114.042 39.442L111.88 40.1284L112.383 42.169L113.464 41.8258" stroke="white" stroke-width="0.236561" stroke-miterlimit="10"/>
<path id="Vector_110" d="M113.734 44.0442L114.799 41.9668L116.94 41.2866L117.545 43.7378L115.745 44.3077L115.442 43.0821" stroke="white" stroke-width="0.236561" stroke-miterlimit="10"/>
<path id="Vector_111" d="M111.982 46.8754L110.972 48.9773L111.572 51.4101L113.734 50.7238L113.231 48.6831L112.15 49.0263" stroke="white" stroke-width="0.236561" stroke-miterlimit="10"/>
<path id="Vector_112" d="M111.874 46.808L110.815 48.8793L108.674 49.5595L108.069 47.1083L109.869 46.5383L110.171 47.7639" stroke="white" stroke-width="0.236561" stroke-miterlimit="10"/>
<path id="Vector_113" d="M111.442 44.6692L109.609 43.462L109.009 41.0353L111.172 40.3489L111.674 42.3896L110.593 42.7328" stroke="white" stroke-width="0.236561" stroke-miterlimit="10"/>
<path id="Vector_114" d="M111.377 44.7918L109.523 43.6398L107.377 44.32L107.982 46.7712L109.782 46.2013L109.48 44.9757" stroke="white" stroke-width="0.236561" stroke-miterlimit="10"/>
</g>
<g id="Group_14">
<path id="Vector_115" d="M125.608 55.3792L127.114 52.3457L124.438 50.6387L122.932 53.6722L125.608 55.3792Z" stroke="white" stroke-width="0.236561" stroke-miterlimit="10"/>
<path id="Vector_116" d="M126.394 53.7755L128.227 54.9766L128.822 57.4095L126.659 58.0958L126.157 56.0552L127.238 55.712" stroke="white" stroke-width="0.236561" stroke-miterlimit="10"/>
<path id="Vector_117" d="M126.454 53.653L128.313 54.805L130.454 54.1248L129.849 51.6736L128.049 52.2435L128.351 53.4691" stroke="white" stroke-width="0.236561" stroke-miterlimit="10"/>
<path id="Vector_118" d="M125.849 51.5695L126.865 49.4614L126.265 47.0347L124.102 47.721L124.605 49.7617L125.686 49.4185" stroke="white" stroke-width="0.236561" stroke-miterlimit="10"/>
<path id="Vector_119" d="M125.957 51.6369L127.021 49.5595L129.162 48.8854L129.768 51.3366L127.968 51.9065L127.665 50.6809" stroke="white" stroke-width="0.236561" stroke-miterlimit="10"/>
<path id="Vector_120" d="M124.205 54.468L123.194 56.5761L123.794 59.0028L125.957 58.3164L125.454 56.2758L124.373 56.619" stroke="white" stroke-width="0.236561" stroke-miterlimit="10"/>
<path id="Vector_121" d="M124.097 54.4006L123.037 56.478L120.897 57.1582L120.291 54.707L122.091 54.131L122.394 55.3566" stroke="white" stroke-width="0.236561" stroke-miterlimit="10"/>
<path id="Vector_122" d="M123.665 52.2619L121.832 51.0608L121.232 48.6341L123.394 47.9478L123.897 49.9884L122.816 50.3316" stroke="white" stroke-width="0.236561" stroke-miterlimit="10"/>
<path id="Vector_123" d="M123.6 52.3845L121.745 51.2385L119.599 51.9187L120.205 54.37L122.005 53.7939L121.702 52.5683" stroke="white" stroke-width="0.236561" stroke-miterlimit="10"/>
</g>
<path id="Vector_124" d="M82.688 32.9646L78.9039 30.5563L81.8609 29.6187L82.688 32.9646Z" fill="white"/>
<g id="Group_15">
<path id="Vector_125" d="M71.7304 25.9296L67.9463 23.5152L70.9033 22.5776L71.7304 25.9296Z" fill="white"/>
<path id="Vector_126" d="M72.9954 13.4835L76.7741 15.898L73.8225 16.8356L72.9954 13.4835Z" fill="white"/>
</g>
<g id="Group_16">
<path id="Vector_127" d="M74.3252 6.52817L55.3993 20.5308" stroke="black" stroke-width="0.236561" stroke-miterlimit="10"/>
<path id="Vector_128" d="M71.0384 24.2567L58.686 2.80231" stroke="black" stroke-width="0.236561" stroke-miterlimit="10"/>
<path id="Vector_129" d="M75.2496 8.4953L54.4749 18.5637" stroke="black" stroke-width="0.236561" stroke-miterlimit="10"/>
<path id="Vector_130" d="M69.3032 25.3046L60.4214 1.75443" stroke="black" stroke-width="0.236561" stroke-miterlimit="10"/>
<path id="Vector_131" d="M65.7352 26.2972L63.9891 0.761566" stroke="black" stroke-width="0.236561" stroke-miterlimit="10"/>
<path id="Vector_132" d="M76.1254 12.5398L53.5991 14.5192" stroke="black" stroke-width="0.236561" stroke-miterlimit="10"/>
<path id="Vector_133" d="M67.676 25.9358L62.0485 1.12323" stroke="black" stroke-width="0.236561" stroke-miterlimit="10"/>
<path id="Vector_134" d="M75.8064 10.3398L53.9181 16.7191" stroke="black" stroke-width="0.236561" stroke-miterlimit="10"/>
<path id="Vector_135" d="M76.1578 13.8512L53.5667 13.2078" stroke="black" stroke-width="0.236561" stroke-miterlimit="10"/>
<path id="Vector_136" d="M64.5784 26.3341L65.146 0.724915" stroke="black" stroke-width="0.236561" stroke-miterlimit="10"/>
<path id="Vector_137" d="M75.9361 16.0696L53.7883 10.9894" stroke="black" stroke-width="0.236561" stroke-miterlimit="10"/>
<path id="Vector_138" d="M62.6215 26.0828L67.1029 0.976135" stroke="black" stroke-width="0.236561" stroke-miterlimit="10"/>
<path id="Vector_139" d="M59.1888 24.606L70.5412 2.453" stroke="black" stroke-width="0.236561" stroke-miterlimit="10"/>
<path id="Vector_140" d="M74.6333 19.967L55.0911 7.09808" stroke="black" stroke-width="0.236561" stroke-miterlimit="10"/>
<path id="Vector_141" d="M60.9673 25.5558L68.7571 1.50314" stroke="black" stroke-width="0.236561" stroke-miterlimit="10"/>
<path id="Vector_142" d="M75.4712 17.9448L54.2532 9.11423" stroke="black" stroke-width="0.236561" stroke-miterlimit="10"/>
<path id="Vector_143" d="M74.7522 19.7158L54.9722 7.3432" stroke="black" stroke-width="0.236561" stroke-miterlimit="10"/>
<path id="Vector_144" d="M59.405 24.7408L70.3195 2.31818" stroke="black" stroke-width="0.236561" stroke-miterlimit="10"/>
<path id="Vector_145" d="M73.6548 21.5726L56.0696 5.48639" stroke="black" stroke-width="0.236561" stroke-miterlimit="10"/>
<path id="Vector_146" d="M57.7671 23.4968L71.9575 3.56219" stroke="black" stroke-width="0.236561" stroke-miterlimit="10"/>
<path id="Vector_147" d="M55.3236 20.3899L74.4009 6.66913" stroke="black" stroke-width="0.236561" stroke-miterlimit="10"/>
<path id="Vector_148" d="M70.9141 24.3425L58.8104 2.71652" stroke="black" stroke-width="0.236561" stroke-miterlimit="10"/>
<path id="Vector_149" d="M56.5183 22.167L73.2062 4.89197" stroke="black" stroke-width="0.236561" stroke-miterlimit="10"/>
<path id="Vector_150" d="M72.4818 22.9882L57.2427 4.07083" stroke="black" stroke-width="0.236561" stroke-miterlimit="10"/>
<path id="Vector_151" d="M74.8819 7.61285L54.8424 19.4462" stroke="black" stroke-width="0.236561" stroke-miterlimit="10"/>
<path id="Vector_152" d="M70.0815 24.8879L59.6428 2.17111" stroke="black" stroke-width="0.236561" stroke-miterlimit="10"/>
<path id="Vector_153" d="M75.6389 9.67801L54.0857 17.381" stroke="black" stroke-width="0.236561" stroke-miterlimit="10"/>
<path id="Vector_154" d="M68.2598 25.7458L61.4646 1.3132" stroke="black" stroke-width="0.236561" stroke-miterlimit="10"/>
<path id="Vector_155" d="M64.6271 26.3341L65.0974 0.724915" stroke="black" stroke-width="0.236561" stroke-miterlimit="10"/>
<path id="Vector_156" d="M76.1578 13.796L53.5667 13.2629" stroke="black" stroke-width="0.236561" stroke-miterlimit="10"/>
<path id="Vector_157" d="M66.5895 26.187L63.1351 0.871979" stroke="black" stroke-width="0.236561" stroke-miterlimit="10"/>
<path id="Vector_158" d="M76.028 11.5716L53.6964 15.4874" stroke="black" stroke-width="0.236561" stroke-miterlimit="10"/>
<path id="Vector_159" d="M76.0767 15.1075L53.6478 11.9515" stroke="black" stroke-width="0.236561" stroke-miterlimit="10"/>
<path id="Vector_160" d="M63.4702 26.2422L66.2542 0.816803" stroke="black" stroke-width="0.236561" stroke-miterlimit="10"/>
<path id="Vector_161" d="M75.6658 17.2891L54.0586 9.76993" stroke="black" stroke-width="0.236561" stroke-miterlimit="10"/>
<path id="Vector_162" d="M61.5458 25.7764L68.1788 1.28253" stroke="black" stroke-width="0.236561" stroke-miterlimit="10"/>
<path id="Vector_163" d="M58.2535 23.9196L71.4709 3.13937" stroke="black" stroke-width="0.236561" stroke-miterlimit="10"/>
<path id="Vector_164" d="M74.0279 21.0211L55.6967 6.03793" stroke="black" stroke-width="0.236561" stroke-miterlimit="10"/>
<path id="Vector_165" d="M59.9457 25.0656L69.7789 1.99954" stroke="black" stroke-width="0.236561" stroke-miterlimit="10"/>
<path id="Vector_166" d="M75.0387 19.103L54.691 7.95602" stroke="black" stroke-width="0.236561" stroke-miterlimit="10"/>
<path id="Vector_167" d="M74.1738 20.7882L55.5507 6.27078" stroke="black" stroke-width="0.236561" stroke-miterlimit="10"/>
<path id="Vector_168" d="M58.459 24.0851L71.2655 2.97388" stroke="black" stroke-width="0.236561" stroke-miterlimit="10"/>
<path id="Vector_169" d="M72.9197 22.5102L56.8048 4.5488" stroke="black" stroke-width="0.236561" stroke-miterlimit="10"/>
<path id="Vector_170" d="M56.9399 22.6634L72.7845 4.3956" stroke="black" stroke-width="0.236561" stroke-miterlimit="10"/>
<path id="Vector_171" d="M54.7722 19.2991L74.9523 7.75992" stroke="black" stroke-width="0.236561" stroke-miterlimit="10"/>
<path id="Vector_172" d="M69.9518 24.9676L59.7726 2.09146" stroke="black" stroke-width="0.236561" stroke-miterlimit="10"/>
<path id="Vector_173" d="M55.8102 21.1926L73.9144 5.86633" stroke="black" stroke-width="0.236561" stroke-miterlimit="10"/>
<path id="Vector_174" d="M71.6222 23.7909L58.1022 3.26804" stroke="black" stroke-width="0.236561" stroke-miterlimit="10"/>
<path id="Vector_175" d="M74.4549 6.76105L55.2695 20.298" stroke="black" stroke-width="0.236561" stroke-miterlimit="10"/>
<path id="Vector_176" d="M70.833 24.4038L58.8915 2.65524" stroke="black" stroke-width="0.236561" stroke-miterlimit="10"/>
<path id="Vector_177" d="M75.3469 8.75266L54.3776 18.3063" stroke="black" stroke-width="0.236561" stroke-miterlimit="10"/>
<path id="Vector_178" d="M69.0761 25.4149L60.6483 1.6441" stroke="black" stroke-width="0.236561" stroke-miterlimit="10"/>
<path id="Vector_179" d="M65.492 26.3155L64.2324 0.743073" stroke="black" stroke-width="0.236561" stroke-miterlimit="10"/>
<path id="Vector_180" d="M76.1416 12.8156L53.5829 14.2434" stroke="black" stroke-width="0.236561" stroke-miterlimit="10"/>
<path id="Vector_181" d="M67.4435 25.9971L62.2809 1.06195" stroke="black" stroke-width="0.236561" stroke-miterlimit="10"/>
<path id="Vector_182" d="M75.8605 10.6033L53.864 16.4556" stroke="black" stroke-width="0.236561" stroke-miterlimit="10"/>
<path id="Vector_183" d="M76.147 14.127L53.5775 12.932" stroke="black" stroke-width="0.236561" stroke-miterlimit="10"/>
<path id="Vector_184" d="M64.3352 26.3218L65.3893 0.737122" stroke="black" stroke-width="0.236561" stroke-miterlimit="10"/>
<path id="Vector_185" d="M75.8874 16.3392L53.8369 10.7198" stroke="black" stroke-width="0.236561" stroke-miterlimit="10"/>
<path id="Vector_186" d="M62.3835 26.0277L67.3407 1.03131" stroke="black" stroke-width="0.236561" stroke-miterlimit="10"/>
<path id="Vector_187" d="M58.9779 24.465L70.7465 2.59396" stroke="black" stroke-width="0.236561" stroke-miterlimit="10"/>
<path id="Vector_188" d="M74.509 20.1999L55.2155 6.85907" stroke="black" stroke-width="0.236561" stroke-miterlimit="10"/>
<path id="Vector_189" d="M60.7402 25.4578L68.9842 1.6012" stroke="black" stroke-width="0.236561" stroke-miterlimit="10"/>
<path id="Vector_190" d="M75.3847 18.2021L54.3397 8.85684" stroke="black" stroke-width="0.236561" stroke-miterlimit="10"/>
<path id="Vector_191" d="M74.6333 19.9609L55.0911 7.09808" stroke="black" stroke-width="0.236561" stroke-miterlimit="10"/>
<path id="Vector_192" d="M59.1888 24.606L70.5357 2.453" stroke="black" stroke-width="0.236561" stroke-miterlimit="10"/>
<path id="Vector_193" d="M73.5035 21.7871L56.2209 5.27191" stroke="black" stroke-width="0.236561" stroke-miterlimit="10"/>
<path id="Vector_194" d="M57.5833 23.3252L72.1466 3.73376" stroke="black" stroke-width="0.236561" stroke-miterlimit="10"/>
<path id="Vector_195" d="M55.1938 20.157L74.5306 6.90198" stroke="black" stroke-width="0.236561" stroke-miterlimit="10"/>
<path id="Vector_196" d="M70.7086 24.4895L59.0157 2.56943" stroke="black" stroke-width="0.236561" stroke-miterlimit="10"/>
<path id="Vector_197" d="M56.3561 21.9587L73.3683 5.10034" stroke="black" stroke-width="0.236561" stroke-miterlimit="10"/>
<path id="Vector_198" d="M72.298 23.172L57.4265 3.88696" stroke="black" stroke-width="0.236561" stroke-miterlimit="10"/>
<path id="Vector_199" d="M74.9956 7.85797L54.729 19.201" stroke="black" stroke-width="0.236561" stroke-miterlimit="10"/>
<path id="Vector_200" d="M69.8654 25.0165L59.8591 2.04242" stroke="black" stroke-width="0.236561" stroke-miterlimit="10"/>
<path id="Vector_201" d="M75.7091 9.9415L54.0154 17.1175" stroke="black" stroke-width="0.236561" stroke-miterlimit="10"/>
<path id="Vector_202" d="M68.0274 25.8255L61.6971 1.23352" stroke="black" stroke-width="0.236561" stroke-miterlimit="10"/>
<path id="Vector_203" d="M64.3838 26.3279L65.3406 0.730988" stroke="black" stroke-width="0.236561" stroke-miterlimit="10"/>
<path id="Vector_204" d="M76.1524 14.0718L53.5721 12.9872" stroke="black" stroke-width="0.236561" stroke-miterlimit="10"/>
<path id="Vector_205" d="M66.3516 26.2238L63.3729 0.835205" stroke="black" stroke-width="0.236561" stroke-miterlimit="10"/>
<path id="Vector_206" d="M76.0605 11.8412L53.6641 15.2178" stroke="black" stroke-width="0.236561" stroke-miterlimit="10"/>
<path id="Vector_207" d="M76.0444 15.3771L53.6803 11.6819" stroke="black" stroke-width="0.236561" stroke-miterlimit="10"/>
<path id="Vector_208" d="M63.2323 26.2054L66.492 0.853577" stroke="black" stroke-width="0.236561" stroke-miterlimit="10"/>
<path id="Vector_209" d="M75.5901 17.5526L54.1343 9.50641" stroke="black" stroke-width="0.236561" stroke-miterlimit="10"/>
<path id="Vector_210" d="M61.3132 25.6907L68.4111 1.36835" stroke="black" stroke-width="0.236561" stroke-miterlimit="10"/>
<path id="Vector_211" d="M58.059 23.7542L71.6655 3.30481" stroke="black" stroke-width="0.236561" stroke-miterlimit="10"/>
<path id="Vector_212" d="M73.8819 21.2417L55.8425 5.81732" stroke="black" stroke-width="0.236561" stroke-miterlimit="10"/>
<path id="Vector_213" d="M59.7294 24.943L69.9951 2.11597" stroke="black" stroke-width="0.236561" stroke-miterlimit="10"/>
<path id="Vector_214" d="M74.9307 19.3481L54.7938 7.71091" stroke="black" stroke-width="0.236561" stroke-miterlimit="10"/>
<path id="Vector_215" d="M74.0333 21.0149L55.6912 6.04407" stroke="black" stroke-width="0.236561" stroke-miterlimit="10"/>
<path id="Vector_216" d="M58.259 23.9258L71.4656 3.13324" stroke="black" stroke-width="0.236561" stroke-miterlimit="10"/>
<path id="Vector_217" d="M72.7467 22.7063L56.9778 4.35269" stroke="black" stroke-width="0.236561" stroke-miterlimit="10"/>
<path id="Vector_218" d="M56.767 22.4673L72.9575 4.59171" stroke="black" stroke-width="0.236561" stroke-miterlimit="10"/>
<path id="Vector_219" d="M54.6641 19.0478L75.0604 8.01117" stroke="black" stroke-width="0.236561" stroke-miterlimit="10"/>
<path id="Vector_220" d="M69.7302 25.0901L59.9943 1.9689" stroke="black" stroke-width="0.236561" stroke-miterlimit="10"/>
<path id="Vector_221" d="M55.6696 20.972L74.0549 6.08698" stroke="black" stroke-width="0.236561" stroke-miterlimit="10"/>
<path id="Vector_222" d="M71.4276 23.9503L58.2968 3.1087" stroke="black" stroke-width="0.236561" stroke-miterlimit="10"/>
</g>
<path id="Vector_223" d="M83.9531 20.5186L87.7318 22.933L84.7802 23.8706L83.9531 20.5186Z" fill="white"/>
<path id="Vector_224" d="M94.8404 40.7535L91.0563 38.3451L94.0133 37.4075L94.8404 40.7535Z" fill="white"/>
<path id="Vector_225" d="M96.1055 28.3073L99.8842 30.7218L96.9326 31.6594L96.1055 28.3073Z" fill="white"/>
<path id="Vector_226" d="M106.62 48.2665L102.836 45.8581L105.793 44.9205L106.62 48.2665Z" fill="white"/>
<path id="Vector_227" d="M107.879 35.8204L111.663 38.2348L108.706 39.1724L107.879 35.8204Z" fill="white"/>
<path id="Vector_228" d="M118.042 55.4608L114.258 53.0464L117.215 52.1088L118.042 55.4608Z" fill="white"/>
<path id="Vector_229" d="M119.307 43.0085L123.086 45.423L120.134 46.3606L119.307 43.0085Z" fill="white"/>
<path id="Vector_230" d="M127.524 61.6072L126.903 61.2089L125.708 60.449L126.481 60.21L128.319 59.6279L127.524 61.6072Z" fill="white"/>
<path id="Vector_231" d="M131.233 52.3477L130.752 50.4174L131.752 51.0547L131.233 52.3477Z" fill="white"/>
</g>
</svg>
