<svg width="28" height="29" viewBox="0 0 28 29" fill="none" xmlns="http://www.w3.org/2000/svg">
<path d="M19.314 25.5H7.68605C3.44186 25.5 1 23.0027 1 18.6622V10.3378C1 5.9973 3.44186 3.5 7.68605 3.5H19.314C23.5581 3.5 26 5.9973 26 10.3378V18.6622C26 23.0027 23.5581 25.5 19.314 25.5ZM7.68605 5.28378C4.36047 5.28378 2.74419 6.93676 2.74419 10.3378V18.6622C2.74419 22.0632 4.36047 23.7162 7.68605 23.7162H19.314C22.6395 23.7162 24.2558 22.0632 24.2558 18.6622V10.3378C24.2558 6.93676 22.6395 5.28378 19.314 5.28378H7.68605Z" fill="#292D32"/>
<path d="M13.5039 15.5C12.5542 15.5 11.5932 15.219 10.8583 14.6461L7.31962 11.9439C6.95784 11.6629 6.89001 11.1548 7.18396 10.8089C7.47791 10.4631 8.00928 10.3982 8.37107 10.6792L11.9098 13.3815C12.769 14.0408 14.2274 14.0408 15.0867 13.3815L18.6254 10.6792C18.9872 10.3982 19.5299 10.4523 19.8125 10.8089C20.1065 11.1548 20.0499 11.6737 19.6768 11.9439L16.1381 14.6461C15.4146 15.219 14.4536 15.5 13.5039 15.5Z" fill="#292D32"/>
</svg>
