<svg width="690" height="73" viewBox="0 0 690 73" fill="none" xmlns="http://www.w3.org/2000/svg">
<path d="M45.5166 71.1017L45.4799 71.1492" stroke="#FBE04B" stroke-width="2.40789" stroke-miterlimit="10"/>
<path d="M45.3412 71.1193L45.3206 71.1016L40.6401 65.9478C40.5272 65.8238 40.4194 65.7117 40.3065 65.5877C40.3014 65.5818 40.2962 65.57 40.286 65.5641L39.5521 64.7553C39.4186 64.6077 39.2749 64.4542 39.1415 64.3007L35.1076 59.873C35.0512 59.8139 34.9998 59.749 34.9485 59.6959C34.4507 59.1527 33.958 58.6037 33.4653 58.0547C33.414 58.0015 33.3627 57.9425 33.3216 57.8953L27.4401 51.419C26.6395 50.5453 25.8389 49.6834 25.0485 48.8037C23.3549 46.95 21.6716 45.1022 19.9985 43.2425L14.6969 37.4039L14.6713 37.3803L14.6918 37.3508L19.6751 31.3586C19.6957 31.335 19.7162 31.3114 19.7316 31.2937L25.3924 24.4868C25.5566 24.2861 25.726 24.0795 25.9005 23.8728L31.8795 16.6941C32.2079 16.3044 32.5261 15.903 32.8597 15.5133C32.8802 15.4838 32.9008 15.4602 32.9264 15.4307L33.1676 15.1414L38.7361 8.43492C38.8233 8.32866 38.9054 8.2342 38.9927 8.12793L42.5031 3.91276L43.976 2.14168L43.9966 2.11216L44.0479 2.05313L44.0889 2L44.1146 2.02361L44.171 2.08855L44.2172 2.14168L54.7382 13.7127L56.7962 15.9797L64.8691 24.8587L65.5774 25.638L74.7999 35.7863L74.841 35.8276L74.805 35.8748L66.0239 46.4364L65.4901 47.074L55.2155 59.442L54.9743 59.7313L54.9281 59.7903H54.923L54.6356 60.1327L54.5791 60.2036L54.456 60.3512L54.3687 60.4574" stroke="#FBE04B" stroke-width="2.40789" stroke-miterlimit="10"/>
<path d="M17.4118 54.7781L13.1624 50.1084" stroke="#FBE04B" stroke-width="2.40789" stroke-miterlimit="10"/>
<path d="M26.886 22.704C18.654 32.4804 10.7761 42.3276 2.55945 51.9682" stroke="#FBE04B" stroke-width="2.40789" stroke-miterlimit="10"/>
<path d="M11.6381 61.7266L2.65674 51.8499L8.43044 44.9014" stroke="#FBE04B" stroke-width="2.40789" stroke-miterlimit="10"/>
<path d="M17.6788 54.4536L11.3662 62.0457" stroke="#FBE04B" stroke-width="2.40789" stroke-miterlimit="10"/>
<path d="M57.1557 57.1161L55.2003 59.4481L54.9591 59.7373L54.9129 59.7964L54.5691 60.2037L54.4408 60.3572L54.3587 60.4635L45.3972 71.1495" stroke="#FBE04B" stroke-width="2.40789" stroke-miterlimit="10"/>
<path d="M44.1045 2.03546C44.0891 2.05317 44.0737 2.07088 44.0583 2.08859C44.0429 2.11221 44.0224 2.13582 44.007 2.15353C43.9967 2.16534 43.9916 2.17124 43.9865 2.17714C43.6016 2.63762 43.2166 3.0922 42.8317 3.55268C41.5487 5.08171 40.2656 6.61075 38.9775 8.14568C38.8902 8.25195 38.8081 8.34641 38.7208 8.45267C36.8579 10.6724 35.0052 12.9099 33.1524 15.1592C33.0395 15.2831 32.942 15.4071 32.8445 15.5311C32.5109 15.9207 32.1927 16.3222 31.8643 16.7118" stroke="#FBE04B" stroke-width="2.40789" stroke-miterlimit="10"/>
<path d="M72.665 17.6094L76.9196 22.2614" stroke="#FBE04B" stroke-width="2.40789" stroke-miterlimit="10"/>
<path d="M77.9332 11.0987L86.93 20.9459L81.1819 27.918" stroke="#FBE04B" stroke-width="2.40789" stroke-miterlimit="10"/>
<path d="M81.6668 27.4564L76.3858 33.8559L63.1089 49.9491" stroke="#FBE04B" stroke-width="2.40789" stroke-miterlimit="10"/>
<path d="M72.3982 17.9338L78.6851 10.3123" stroke="#FBE04B" stroke-width="2.40789" stroke-miterlimit="10"/>
<path d="M12.6698 24.7524L16.7294 19.8702" stroke="#FBE04B" stroke-width="2.40789" stroke-miterlimit="10"/>
<path d="M27.4402 51.425C18.8336 42.0796 10.5861 32.6515 2 23.4419" stroke="#FBE04B" stroke-width="2.40789" stroke-miterlimit="10"/>
<path d="M8.14824 30.1955L2.10767 23.554L10.6938 13.2286" stroke="#FBE04B" stroke-width="2.40789" stroke-miterlimit="10"/>
<path d="M17.0117 20.1831L10.4117 12.9217" stroke="#FBE04B" stroke-width="2.40789" stroke-miterlimit="10"/>
<path d="M44.0377 2.0647L44.0583 2.08831L44.1199 2.15325L44.1609 2.20048L54.7229 13.7243L56.3447 15.4954" stroke="#FBE04B" stroke-width="2.40789" stroke-miterlimit="10"/>
<path d="M45.3674 71.0959C45.3622 71.0899 45.3517 71.084 45.3464 71.0721" stroke="#FBE04B" stroke-width="2.40789" stroke-miterlimit="10"/>
<path d="M40.6403 65.9479C40.5274 65.8239 40.4197 65.7118 40.3068 65.5878C40.3016 65.5819 40.2965 65.5701 40.2862 65.5642C40.2708 65.5465 40.2554 65.5288 40.24 65.5052C40.0091 65.2572 39.7833 65.0034 39.5523 64.7554C39.4189 64.6078 39.2752 64.4543 39.1417 64.3008C37.7971 62.8367 36.4474 61.3608 35.1079 59.8731C35.0514 59.8141 35.0001 59.7491 34.9488 59.696C34.4509 59.1529 33.9582 58.6038 33.4655 58.0548C33.4142 58.0017 33.3629 57.9426 33.3218 57.8954C33.1011 57.6475 32.8805 57.4054 32.6598 57.1575" stroke="#FBE04B" stroke-width="2.40789" stroke-miterlimit="10"/>
<path d="M77.4482 49.2939L73.3784 54.1644" stroke="#FBE04B" stroke-width="2.40789" stroke-miterlimit="10"/>
<path d="M81.9852 43.8624L88.0001 50.5335L79.3934 60.8294" stroke="#FBE04B" stroke-width="2.40789" stroke-miterlimit="10"/>
<path d="M62.5699 22.3438L76.4627 37.7403L81.985 43.8624" stroke="#FBE04B" stroke-width="2.40789" stroke-miterlimit="10"/>
<path d="M73.0962 53.8514L79.6705 61.1424" stroke="#FBE04B" stroke-width="2.40789" stroke-miterlimit="10"/>
<path d="M45.2215 51.2967L57.7915 36.1761L44.6467 21.7167L32.0767 36.8373L45.2215 51.2967Z" stroke="#FBE04B" stroke-width="2.40789" stroke-miterlimit="10"/>
<path d="M33.2346 44.2817L31.4178 42.2863" stroke="#FBE04B" stroke-width="2.40789" stroke-miterlimit="10"/>
<path d="M37.2837 30.5735C33.763 34.7532 30.3963 38.9625 26.8807 43.0832" stroke="#FBE04B" stroke-width="2.40789" stroke-miterlimit="10"/>
<path d="M30.7661 47.2512L26.9272 43.0301L29.3958 40.0606" stroke="#FBE04B" stroke-width="2.40789" stroke-miterlimit="10"/>
<path d="M33.3526 44.1459L30.6531 47.3929" stroke="#FBE04B" stroke-width="2.40789" stroke-miterlimit="10"/>
<path d="M40.209 52.594L38.4025 50.5927" stroke="#FBE04B" stroke-width="2.40789" stroke-miterlimit="10"/>
<path d="M42.2312 54.8314L39.7523 57.7891L35.9237 53.5562" stroke="#FBE04B" stroke-width="2.40789" stroke-miterlimit="10"/>
<path d="M50.2271 45.2792L44.5048 52.1156L42.2312 54.8313" stroke="#FBE04B" stroke-width="2.40789" stroke-miterlimit="10"/>
<path d="M38.5154 50.4567L35.8057 53.6918" stroke="#FBE04B" stroke-width="2.40789" stroke-miterlimit="10"/>
<path d="M49.3341 20.7381L51.1458 22.7335" stroke="#FBE04B" stroke-width="2.40789" stroke-miterlimit="10"/>
<path d="M39.4188 28.0052C42.8933 23.7723 46.3986 19.7166 49.8218 15.4955" stroke="#FBE04B" stroke-width="2.40789" stroke-miterlimit="10"/>
<path d="M47.307 18.5122L49.7756 15.5427L53.6145 19.7696" stroke="#FBE04B" stroke-width="2.40789" stroke-miterlimit="10"/>
<path d="M51.0331 22.875L53.7326 19.6281" stroke="#FBE04B" stroke-width="2.40789" stroke-miterlimit="10"/>
<path d="M56.8583 28.389L58.6802 30.3785" stroke="#FBE04B" stroke-width="2.40789" stroke-miterlimit="10"/>
<path d="M59.3163 25.4078L63.1654 29.623L60.7071 32.5984" stroke="#FBE04B" stroke-width="2.40789" stroke-miterlimit="10"/>
<path d="M60.7072 32.5985L58.449 35.3378L52.7728 42.2214" stroke="#FBE04B" stroke-width="2.40789" stroke-miterlimit="10"/>
<path d="M56.7452 28.5309L59.4345 25.2721" stroke="#FBE04B" stroke-width="2.40789" stroke-miterlimit="10"/>
<path d="M31.2073 31.4472L32.9471 29.3573" stroke="#FBE04B" stroke-width="2.40789" stroke-miterlimit="10"/>
<path d="M37.5249 42.8471C33.8451 38.8503 30.3193 34.8182 26.6498 30.8805" stroke="#FBE04B" stroke-width="2.40789" stroke-miterlimit="10"/>
<path d="M29.2729 33.7732L26.6914 30.9335L30.3661 26.5176" stroke="#FBE04B" stroke-width="2.40789" stroke-miterlimit="10"/>
<path d="M33.0651 29.493L30.2424 26.3877" stroke="#FBE04B" stroke-width="2.40789" stroke-miterlimit="10"/>
<path d="M37.8588 22.7866L39.5934 20.6967" stroke="#FBE04B" stroke-width="2.40789" stroke-miterlimit="10"/>
<path d="M35.272 19.9586L38.9312 15.5309L41.523 18.3588" stroke="#FBE04B" stroke-width="2.40789" stroke-miterlimit="10"/>
<path d="M41.5229 18.3588L43.8992 20.9564L49.8833 27.4858" stroke="#FBE04B" stroke-width="2.40789" stroke-miterlimit="10"/>
<path d="M37.9819 22.9225L35.1489 19.829" stroke="#FBE04B" stroke-width="2.40789" stroke-miterlimit="10"/>
<path d="M51.6746 49.9609L49.9399 52.0507" stroke="#FBE04B" stroke-width="2.40789" stroke-miterlimit="10"/>
<path d="M39.7577 45.3027C43.3913 49.3526 47.0505 53.2254 50.6328 57.2693" stroke="#FBE04B" stroke-width="2.40789" stroke-miterlimit="10"/>
<path d="M54.2562 52.8004L50.5867 57.2163L48.0052 54.3767" stroke="#FBE04B" stroke-width="2.40789" stroke-miterlimit="10"/>
<path d="M51.5566 49.8309L54.3793 52.9362" stroke="#FBE04B" stroke-width="2.40789" stroke-miterlimit="10"/>
<path d="M58.9058 41.9378L57.1609 44.0218" stroke="#FBE04B" stroke-width="2.40789" stroke-miterlimit="10"/>
<path d="M60.8457 39.6176L63.4169 42.4691L59.7372 46.8731" stroke="#FBE04B" stroke-width="2.40789" stroke-miterlimit="10"/>
<path d="M52.542 30.4141L58.4851 36.9966L60.8459 39.6178" stroke="#FBE04B" stroke-width="2.40789" stroke-miterlimit="10"/>
<path d="M57.043 43.886L59.8554 47.0031" stroke="#FBE04B" stroke-width="2.40789" stroke-miterlimit="10"/>
<path d="M131.517 71.1017L131.48 71.1492" stroke="#FBE04B" stroke-width="2.40789" stroke-miterlimit="10"/>
<path d="M131.341 71.1193L131.321 71.1016L126.64 65.9478C126.527 65.8238 126.419 65.7117 126.307 65.5877C126.301 65.5818 126.296 65.57 126.286 65.5641L125.552 64.7553C125.419 64.6077 125.275 64.4542 125.142 64.3007L121.108 59.873C121.051 59.8139 121 59.749 120.949 59.6959C120.451 59.1527 119.958 58.6037 119.465 58.0547C119.414 58.0015 119.363 57.9425 119.322 57.8953L113.44 51.419C112.64 50.5453 111.839 49.6834 111.049 48.8037C109.355 46.95 107.672 45.1022 105.998 43.2425L100.697 37.4039L100.671 37.3803L100.692 37.3508L105.675 31.3586C105.696 31.335 105.716 31.3114 105.732 31.2937L111.392 24.4868C111.557 24.2861 111.726 24.0795 111.9 23.8728L117.879 16.6941C118.208 16.3044 118.526 15.903 118.86 15.5133C118.88 15.4838 118.901 15.4602 118.926 15.4307L119.168 15.1414L124.736 8.43492C124.823 8.32866 124.905 8.2342 124.993 8.12793L128.503 3.91276L129.976 2.14168L129.997 2.11216L130.048 2.05313L130.089 2L130.115 2.02361L130.171 2.08855L130.217 2.14168L140.738 13.7127L142.796 15.9797L150.869 24.8587L151.577 25.638L160.8 35.7863L160.841 35.8276L160.805 35.8748L152.024 46.4364L151.49 47.074L141.216 59.442L140.974 59.7313L140.928 59.7903H140.923L140.636 60.1327L140.579 60.2036L140.456 60.3512L140.369 60.4574" stroke="#FBE04B" stroke-width="2.40789" stroke-miterlimit="10"/>
<path d="M103.412 54.7781L99.1624 50.1084" stroke="#FBE04B" stroke-width="2.40789" stroke-miterlimit="10"/>
<path d="M112.886 22.704C104.654 32.4804 96.7761 42.3276 88.5594 51.9682" stroke="#FBE04B" stroke-width="2.40789" stroke-miterlimit="10"/>
<path d="M97.6381 61.7266L88.6567 51.8499L94.4304 44.9014" stroke="#FBE04B" stroke-width="2.40789" stroke-miterlimit="10"/>
<path d="M103.679 54.4536L97.3662 62.0457" stroke="#FBE04B" stroke-width="2.40789" stroke-miterlimit="10"/>
<path d="M143.156 57.1161L141.2 59.4481L140.959 59.7373L140.913 59.7964L140.569 60.2037L140.441 60.3572L140.359 60.4635L131.397 71.1495" stroke="#FBE04B" stroke-width="2.40789" stroke-miterlimit="10"/>
<path d="M130.105 2.03546C130.089 2.05317 130.074 2.07088 130.058 2.08859C130.043 2.11221 130.022 2.13582 130.007 2.15353C129.997 2.16534 129.992 2.17124 129.986 2.17714C129.602 2.63762 129.217 3.0922 128.832 3.55268C127.549 5.08171 126.266 6.61075 124.977 8.14568C124.89 8.25195 124.808 8.34641 124.721 8.45267C122.858 10.6724 121.005 12.9099 119.152 15.1592C119.04 15.2831 118.942 15.4071 118.844 15.5311C118.511 15.9207 118.193 16.3222 117.864 16.7118" stroke="#FBE04B" stroke-width="2.40789" stroke-miterlimit="10"/>
<path d="M158.665 17.6094L162.92 22.2614" stroke="#FBE04B" stroke-width="2.40789" stroke-miterlimit="10"/>
<path d="M163.933 11.0987L172.93 20.9459L167.182 27.918" stroke="#FBE04B" stroke-width="2.40789" stroke-miterlimit="10"/>
<path d="M167.667 27.4564L162.386 33.8559L149.109 49.9491" stroke="#FBE04B" stroke-width="2.40789" stroke-miterlimit="10"/>
<path d="M158.398 17.9338L164.685 10.3123" stroke="#FBE04B" stroke-width="2.40789" stroke-miterlimit="10"/>
<path d="M98.6698 24.7524L102.729 19.8702" stroke="#FBE04B" stroke-width="2.40789" stroke-miterlimit="10"/>
<path d="M113.44 51.425C104.834 42.0796 96.5861 32.6515 88 23.4419" stroke="#FBE04B" stroke-width="2.40789" stroke-miterlimit="10"/>
<path d="M94.1482 30.1955L88.1077 23.554L96.6938 13.2286" stroke="#FBE04B" stroke-width="2.40789" stroke-miterlimit="10"/>
<path d="M103.012 20.1831L96.4117 12.9217" stroke="#FBE04B" stroke-width="2.40789" stroke-miterlimit="10"/>
<path d="M130.038 2.0647L130.058 2.08831L130.12 2.15325L130.161 2.20048L140.723 13.7243L142.345 15.4954" stroke="#FBE04B" stroke-width="2.40789" stroke-miterlimit="10"/>
<path d="M131.367 71.0959C131.362 71.0899 131.352 71.084 131.346 71.0721" stroke="#FBE04B" stroke-width="2.40789" stroke-miterlimit="10"/>
<path d="M126.64 65.9479C126.527 65.8239 126.42 65.7118 126.307 65.5878C126.302 65.5819 126.296 65.5701 126.286 65.5642C126.271 65.5465 126.255 65.5288 126.24 65.5052C126.009 65.2572 125.783 65.0034 125.552 64.7554C125.419 64.6078 125.275 64.4543 125.142 64.3008C123.797 62.8367 122.447 61.3608 121.108 59.8731C121.051 59.8141 121 59.7491 120.949 59.696C120.451 59.1529 119.958 58.6038 119.466 58.0548C119.414 58.0017 119.363 57.9426 119.322 57.8954C119.101 57.6475 118.88 57.4054 118.66 57.1575" stroke="#FBE04B" stroke-width="2.40789" stroke-miterlimit="10"/>
<path d="M163.448 49.2939L159.378 54.1644" stroke="#FBE04B" stroke-width="2.40789" stroke-miterlimit="10"/>
<path d="M167.985 43.8624L174 50.5335L165.393 60.8294" stroke="#FBE04B" stroke-width="2.40789" stroke-miterlimit="10"/>
<path d="M148.57 22.3438L162.463 37.7403L167.985 43.8624" stroke="#FBE04B" stroke-width="2.40789" stroke-miterlimit="10"/>
<path d="M159.096 53.8514L165.671 61.1424" stroke="#FBE04B" stroke-width="2.40789" stroke-miterlimit="10"/>
<path d="M131.221 51.2967L143.792 36.1761L130.647 21.7167L118.077 36.8373L131.221 51.2967Z" stroke="#FBE04B" stroke-width="2.40789" stroke-miterlimit="10"/>
<path d="M119.235 44.2817L117.418 42.2863" stroke="#FBE04B" stroke-width="2.40789" stroke-miterlimit="10"/>
<path d="M123.284 30.5735C119.763 34.7532 116.396 38.9625 112.881 43.0832" stroke="#FBE04B" stroke-width="2.40789" stroke-miterlimit="10"/>
<path d="M116.766 47.2512L112.927 43.0301L115.396 40.0606" stroke="#FBE04B" stroke-width="2.40789" stroke-miterlimit="10"/>
<path d="M119.353 44.1459L116.653 47.3929" stroke="#FBE04B" stroke-width="2.40789" stroke-miterlimit="10"/>
<path d="M126.209 52.594L124.402 50.5927" stroke="#FBE04B" stroke-width="2.40789" stroke-miterlimit="10"/>
<path d="M128.231 54.8314L125.752 57.7891L121.924 53.5562" stroke="#FBE04B" stroke-width="2.40789" stroke-miterlimit="10"/>
<path d="M136.227 45.2792L130.505 52.1156L128.231 54.8313" stroke="#FBE04B" stroke-width="2.40789" stroke-miterlimit="10"/>
<path d="M124.515 50.4567L121.806 53.6918" stroke="#FBE04B" stroke-width="2.40789" stroke-miterlimit="10"/>
<path d="M135.334 20.7381L137.146 22.7335" stroke="#FBE04B" stroke-width="2.40789" stroke-miterlimit="10"/>
<path d="M125.419 28.0052C128.893 23.7723 132.399 19.7166 135.822 15.4955" stroke="#FBE04B" stroke-width="2.40789" stroke-miterlimit="10"/>
<path d="M133.307 18.5122L135.776 15.5427L139.614 19.7696" stroke="#FBE04B" stroke-width="2.40789" stroke-miterlimit="10"/>
<path d="M137.033 22.875L139.733 19.6281" stroke="#FBE04B" stroke-width="2.40789" stroke-miterlimit="10"/>
<path d="M142.858 28.389L144.68 30.3785" stroke="#FBE04B" stroke-width="2.40789" stroke-miterlimit="10"/>
<path d="M145.316 25.4078L149.165 29.623L146.707 32.5984" stroke="#FBE04B" stroke-width="2.40789" stroke-miterlimit="10"/>
<path d="M146.707 32.5985L144.449 35.3378L138.773 42.2214" stroke="#FBE04B" stroke-width="2.40789" stroke-miterlimit="10"/>
<path d="M142.745 28.5309L145.434 25.2721" stroke="#FBE04B" stroke-width="2.40789" stroke-miterlimit="10"/>
<path d="M117.207 31.4472L118.947 29.3573" stroke="#FBE04B" stroke-width="2.40789" stroke-miterlimit="10"/>
<path d="M123.525 42.8471C119.845 38.8503 116.319 34.8182 112.65 30.8805" stroke="#FBE04B" stroke-width="2.40789" stroke-miterlimit="10"/>
<path d="M115.273 33.7732L112.691 30.9335L116.366 26.5176" stroke="#FBE04B" stroke-width="2.40789" stroke-miterlimit="10"/>
<path d="M119.065 29.493L116.242 26.3877" stroke="#FBE04B" stroke-width="2.40789" stroke-miterlimit="10"/>
<path d="M123.859 22.7866L125.593 20.6967" stroke="#FBE04B" stroke-width="2.40789" stroke-miterlimit="10"/>
<path d="M121.272 19.9586L124.931 15.5309L127.523 18.3588" stroke="#FBE04B" stroke-width="2.40789" stroke-miterlimit="10"/>
<path d="M127.523 18.3588L129.899 20.9564L135.883 27.4858" stroke="#FBE04B" stroke-width="2.40789" stroke-miterlimit="10"/>
<path d="M123.982 22.9225L121.149 19.829" stroke="#FBE04B" stroke-width="2.40789" stroke-miterlimit="10"/>
<path d="M137.675 49.9609L135.94 52.0507" stroke="#FBE04B" stroke-width="2.40789" stroke-miterlimit="10"/>
<path d="M125.758 45.3027C129.391 49.3526 133.051 53.2254 136.633 57.2693" stroke="#FBE04B" stroke-width="2.40789" stroke-miterlimit="10"/>
<path d="M140.256 52.8004L136.587 57.2163L134.005 54.3767" stroke="#FBE04B" stroke-width="2.40789" stroke-miterlimit="10"/>
<path d="M137.557 49.8309L140.379 52.9362" stroke="#FBE04B" stroke-width="2.40789" stroke-miterlimit="10"/>
<path d="M144.906 41.9378L143.161 44.0218" stroke="#FBE04B" stroke-width="2.40789" stroke-miterlimit="10"/>
<path d="M146.846 39.6176L149.417 42.4691L145.737 46.8731" stroke="#FBE04B" stroke-width="2.40789" stroke-miterlimit="10"/>
<path d="M138.542 30.4141L144.485 36.9966L146.846 39.6178" stroke="#FBE04B" stroke-width="2.40789" stroke-miterlimit="10"/>
<path d="M143.043 43.886L145.855 47.0031" stroke="#FBE04B" stroke-width="2.40789" stroke-miterlimit="10"/>
<path d="M217.517 71.1017L217.48 71.1492" stroke="#FBE04B" stroke-width="2.40789" stroke-miterlimit="10"/>
<path d="M217.341 71.1193L217.321 71.1016L212.64 65.9478C212.527 65.8238 212.419 65.7117 212.307 65.5877C212.301 65.5818 212.296 65.57 212.286 65.5641L211.552 64.7553C211.419 64.6077 211.275 64.4542 211.142 64.3007L207.108 59.873C207.051 59.8139 207 59.749 206.949 59.6959C206.451 59.1527 205.958 58.6037 205.465 58.0547C205.414 58.0015 205.363 57.9425 205.322 57.8953L199.44 51.419C198.64 50.5453 197.839 49.6834 197.049 48.8037C195.355 46.95 193.672 45.1022 191.998 43.2425L186.697 37.4039L186.671 37.3803L186.692 37.3508L191.675 31.3586C191.696 31.335 191.716 31.3114 191.732 31.2937L197.392 24.4868C197.557 24.2861 197.726 24.0795 197.9 23.8728L203.879 16.6941C204.208 16.3044 204.526 15.903 204.86 15.5133C204.88 15.4838 204.901 15.4602 204.926 15.4307L205.168 15.1414L210.736 8.43492C210.823 8.32866 210.905 8.2342 210.993 8.12793L214.503 3.91276L215.976 2.14168L215.997 2.11216L216.048 2.05313L216.089 2L216.115 2.02361L216.171 2.08855L216.217 2.14168L226.738 13.7127L228.796 15.9797L236.869 24.8587L237.577 25.638L246.8 35.7863L246.841 35.8276L246.805 35.8748L238.024 46.4364L237.49 47.074L227.216 59.442L226.974 59.7313L226.928 59.7903H226.923L226.636 60.1327L226.579 60.2036L226.456 60.3512L226.369 60.4574" stroke="#FBE04B" stroke-width="2.40789" stroke-miterlimit="10"/>
<path d="M189.412 54.7781L185.162 50.1084" stroke="#FBE04B" stroke-width="2.40789" stroke-miterlimit="10"/>
<path d="M198.886 22.704C190.654 32.4804 182.776 42.3276 174.559 51.9682" stroke="#FBE04B" stroke-width="2.40789" stroke-miterlimit="10"/>
<path d="M183.638 61.7266L174.657 51.8499L180.43 44.9014" stroke="#FBE04B" stroke-width="2.40789" stroke-miterlimit="10"/>
<path d="M189.679 54.4536L183.366 62.0457" stroke="#FBE04B" stroke-width="2.40789" stroke-miterlimit="10"/>
<path d="M229.156 57.1161L227.2 59.4481L226.959 59.7373L226.913 59.7964L226.569 60.2037L226.441 60.3572L226.359 60.4635L217.397 71.1495" stroke="#FBE04B" stroke-width="2.40789" stroke-miterlimit="10"/>
<path d="M216.104 2.03546C216.089 2.05317 216.074 2.07088 216.058 2.08859C216.043 2.11221 216.022 2.13582 216.007 2.15353C215.997 2.16534 215.992 2.17124 215.986 2.17714C215.601 2.63762 215.217 3.0922 214.832 3.55268C213.549 5.08171 212.266 6.61075 210.977 8.14568C210.89 8.25195 210.808 8.34641 210.721 8.45267C208.858 10.6724 207.005 12.9099 205.152 15.1592C205.039 15.2831 204.942 15.4071 204.844 15.5311C204.511 15.9207 204.193 16.3222 203.864 16.7118" stroke="#FBE04B" stroke-width="2.40789" stroke-miterlimit="10"/>
<path d="M244.665 17.6094L248.92 22.2614" stroke="#FBE04B" stroke-width="2.40789" stroke-miterlimit="10"/>
<path d="M249.933 11.0987L258.93 20.9459L253.182 27.918" stroke="#FBE04B" stroke-width="2.40789" stroke-miterlimit="10"/>
<path d="M253.667 27.4564L248.386 33.8559L235.109 49.9491" stroke="#FBE04B" stroke-width="2.40789" stroke-miterlimit="10"/>
<path d="M244.398 17.9338L250.685 10.3123" stroke="#FBE04B" stroke-width="2.40789" stroke-miterlimit="10"/>
<path d="M184.67 24.7524L188.729 19.8702" stroke="#FBE04B" stroke-width="2.40789" stroke-miterlimit="10"/>
<path d="M199.44 51.425C190.834 42.0796 182.586 32.6515 174 23.4419" stroke="#FBE04B" stroke-width="2.40789" stroke-miterlimit="10"/>
<path d="M180.148 30.1955L174.108 23.554L182.694 13.2286" stroke="#FBE04B" stroke-width="2.40789" stroke-miterlimit="10"/>
<path d="M189.012 20.1831L182.412 12.9217" stroke="#FBE04B" stroke-width="2.40789" stroke-miterlimit="10"/>
<path d="M216.038 2.0647L216.058 2.08831L216.12 2.15325L216.161 2.20048L226.723 13.7243L228.345 15.4954" stroke="#FBE04B" stroke-width="2.40789" stroke-miterlimit="10"/>
<path d="M217.367 71.0959C217.362 71.0899 217.352 71.084 217.346 71.0721" stroke="#FBE04B" stroke-width="2.40789" stroke-miterlimit="10"/>
<path d="M212.64 65.9479C212.527 65.8239 212.42 65.7118 212.307 65.5878C212.302 65.5819 212.296 65.5701 212.286 65.5642C212.271 65.5465 212.255 65.5288 212.24 65.5052C212.009 65.2572 211.783 65.0034 211.552 64.7554C211.419 64.6078 211.275 64.4543 211.142 64.3008C209.797 62.8367 208.447 61.3608 207.108 59.8731C207.051 59.8141 207 59.7491 206.949 59.696C206.451 59.1529 205.958 58.6038 205.466 58.0548C205.414 58.0017 205.363 57.9426 205.322 57.8954C205.101 57.6475 204.88 57.4054 204.66 57.1575" stroke="#FBE04B" stroke-width="2.40789" stroke-miterlimit="10"/>
<path d="M249.448 49.2939L245.378 54.1644" stroke="#FBE04B" stroke-width="2.40789" stroke-miterlimit="10"/>
<path d="M253.985 43.8624L260 50.5335L251.393 60.8294" stroke="#FBE04B" stroke-width="2.40789" stroke-miterlimit="10"/>
<path d="M234.57 22.3438L248.463 37.7403L253.985 43.8624" stroke="#FBE04B" stroke-width="2.40789" stroke-miterlimit="10"/>
<path d="M245.096 53.8514L251.671 61.1424" stroke="#FBE04B" stroke-width="2.40789" stroke-miterlimit="10"/>
<path d="M217.222 51.2967L229.792 36.1761L216.647 21.7167L204.077 36.8373L217.222 51.2967Z" stroke="#FBE04B" stroke-width="2.40789" stroke-miterlimit="10"/>
<path d="M205.235 44.2817L203.418 42.2863" stroke="#FBE04B" stroke-width="2.40789" stroke-miterlimit="10"/>
<path d="M209.284 30.5735C205.763 34.7532 202.396 38.9625 198.881 43.0832" stroke="#FBE04B" stroke-width="2.40789" stroke-miterlimit="10"/>
<path d="M202.766 47.2512L198.927 43.0301L201.396 40.0606" stroke="#FBE04B" stroke-width="2.40789" stroke-miterlimit="10"/>
<path d="M205.353 44.1459L202.653 47.3929" stroke="#FBE04B" stroke-width="2.40789" stroke-miterlimit="10"/>
<path d="M212.209 52.594L210.403 50.5927" stroke="#FBE04B" stroke-width="2.40789" stroke-miterlimit="10"/>
<path d="M214.231 54.8314L211.752 57.7891L207.924 53.5562" stroke="#FBE04B" stroke-width="2.40789" stroke-miterlimit="10"/>
<path d="M222.227 45.2792L216.505 52.1156L214.231 54.8313" stroke="#FBE04B" stroke-width="2.40789" stroke-miterlimit="10"/>
<path d="M210.516 50.4567L207.806 53.6918" stroke="#FBE04B" stroke-width="2.40789" stroke-miterlimit="10"/>
<path d="M221.334 20.7381L223.146 22.7335" stroke="#FBE04B" stroke-width="2.40789" stroke-miterlimit="10"/>
<path d="M211.419 28.0052C214.893 23.7723 218.399 19.7166 221.822 15.4955" stroke="#FBE04B" stroke-width="2.40789" stroke-miterlimit="10"/>
<path d="M219.307 18.5122L221.776 15.5427L225.615 19.7696" stroke="#FBE04B" stroke-width="2.40789" stroke-miterlimit="10"/>
<path d="M223.033 22.875L225.733 19.6281" stroke="#FBE04B" stroke-width="2.40789" stroke-miterlimit="10"/>
<path d="M228.858 28.389L230.68 30.3785" stroke="#FBE04B" stroke-width="2.40789" stroke-miterlimit="10"/>
<path d="M231.316 25.4078L235.166 29.623L232.707 32.5984" stroke="#FBE04B" stroke-width="2.40789" stroke-miterlimit="10"/>
<path d="M232.707 32.5985L230.449 35.3378L224.773 42.2214" stroke="#FBE04B" stroke-width="2.40789" stroke-miterlimit="10"/>
<path d="M228.745 28.5309L231.435 25.2721" stroke="#FBE04B" stroke-width="2.40789" stroke-miterlimit="10"/>
<path d="M203.207 31.4472L204.947 29.3573" stroke="#FBE04B" stroke-width="2.40789" stroke-miterlimit="10"/>
<path d="M209.525 42.8471C205.845 38.8503 202.319 34.8182 198.65 30.8805" stroke="#FBE04B" stroke-width="2.40789" stroke-miterlimit="10"/>
<path d="M201.273 33.7732L198.691 30.9335L202.366 26.5176" stroke="#FBE04B" stroke-width="2.40789" stroke-miterlimit="10"/>
<path d="M205.065 29.493L202.243 26.3877" stroke="#FBE04B" stroke-width="2.40789" stroke-miterlimit="10"/>
<path d="M209.859 22.7866L211.594 20.6967" stroke="#FBE04B" stroke-width="2.40789" stroke-miterlimit="10"/>
<path d="M207.272 19.9586L210.931 15.5309L213.523 18.3588" stroke="#FBE04B" stroke-width="2.40789" stroke-miterlimit="10"/>
<path d="M213.523 18.3588L215.899 20.9564L221.883 27.4858" stroke="#FBE04B" stroke-width="2.40789" stroke-miterlimit="10"/>
<path d="M209.982 22.9225L207.149 19.829" stroke="#FBE04B" stroke-width="2.40789" stroke-miterlimit="10"/>
<path d="M223.675 49.9609L221.94 52.0507" stroke="#FBE04B" stroke-width="2.40789" stroke-miterlimit="10"/>
<path d="M211.758 45.3027C215.391 49.3526 219.051 53.2254 222.633 57.2693" stroke="#FBE04B" stroke-width="2.40789" stroke-miterlimit="10"/>
<path d="M226.256 52.8004L222.587 57.2163L220.005 54.3767" stroke="#FBE04B" stroke-width="2.40789" stroke-miterlimit="10"/>
<path d="M223.557 49.8309L226.379 52.9362" stroke="#FBE04B" stroke-width="2.40789" stroke-miterlimit="10"/>
<path d="M230.906 41.9378L229.161 44.0218" stroke="#FBE04B" stroke-width="2.40789" stroke-miterlimit="10"/>
<path d="M232.846 39.6176L235.417 42.4691L231.737 46.8731" stroke="#FBE04B" stroke-width="2.40789" stroke-miterlimit="10"/>
<path d="M224.542 30.4141L230.485 36.9966L232.846 39.6178" stroke="#FBE04B" stroke-width="2.40789" stroke-miterlimit="10"/>
<path d="M229.043 43.886L231.855 47.0031" stroke="#FBE04B" stroke-width="2.40789" stroke-miterlimit="10"/>
<path d="M303.517 71.1017L303.48 71.1492" stroke="#FBE04B" stroke-width="2.40789" stroke-miterlimit="10"/>
<path d="M303.341 71.1193L303.321 71.1016L298.64 65.9478C298.527 65.8238 298.419 65.7117 298.307 65.5877C298.301 65.5818 298.296 65.57 298.286 65.5641L297.552 64.7553C297.419 64.6077 297.275 64.4542 297.142 64.3007L293.108 59.873C293.051 59.8139 293 59.749 292.949 59.6959C292.451 59.1527 291.958 58.6037 291.465 58.0547C291.414 58.0015 291.363 57.9425 291.322 57.8953L285.44 51.419C284.64 50.5453 283.839 49.6834 283.049 48.8037C281.355 46.95 279.672 45.1022 277.998 43.2425L272.697 37.4039L272.671 37.3803L272.692 37.3508L277.675 31.3586C277.696 31.335 277.716 31.3114 277.732 31.2937L283.392 24.4868C283.557 24.2861 283.726 24.0795 283.9 23.8728L289.879 16.6941C290.208 16.3044 290.526 15.903 290.86 15.5133C290.88 15.4838 290.901 15.4602 290.926 15.4307L291.168 15.1414L296.736 8.43492C296.823 8.32866 296.905 8.2342 296.993 8.12793L300.503 3.91276L301.976 2.14168L301.997 2.11216L302.048 2.05313L302.089 2L302.115 2.02361L302.171 2.08855L302.217 2.14168L312.738 13.7127L314.796 15.9797L322.869 24.8587L323.577 25.638L332.8 35.7863L332.841 35.8276L332.805 35.8748L324.024 46.4364L323.49 47.074L313.216 59.442L312.974 59.7313L312.928 59.7903H312.923L312.636 60.1327L312.579 60.2036L312.456 60.3512L312.369 60.4574" stroke="#FBE04B" stroke-width="2.40789" stroke-miterlimit="10"/>
<path d="M275.412 54.7781L271.162 50.1084" stroke="#FBE04B" stroke-width="2.40789" stroke-miterlimit="10"/>
<path d="M284.886 22.704C276.654 32.4804 268.776 42.3276 260.559 51.9682" stroke="#FBE04B" stroke-width="2.40789" stroke-miterlimit="10"/>
<path d="M269.638 61.7266L260.657 51.8499L266.43 44.9014" stroke="#FBE04B" stroke-width="2.40789" stroke-miterlimit="10"/>
<path d="M275.679 54.4536L269.366 62.0457" stroke="#FBE04B" stroke-width="2.40789" stroke-miterlimit="10"/>
<path d="M315.156 57.1161L313.2 59.4481L312.959 59.7373L312.913 59.7964L312.569 60.2037L312.441 60.3572L312.359 60.4635L303.397 71.1495" stroke="#FBE04B" stroke-width="2.40789" stroke-miterlimit="10"/>
<path d="M302.104 2.03546C302.089 2.05317 302.074 2.07088 302.058 2.08859C302.043 2.11221 302.022 2.13582 302.007 2.15353C301.997 2.16534 301.992 2.17124 301.986 2.17714C301.601 2.63762 301.217 3.0922 300.832 3.55268C299.549 5.08171 298.266 6.61075 296.977 8.14568C296.89 8.25195 296.808 8.34641 296.721 8.45267C294.858 10.6724 293.005 12.9099 291.152 15.1592C291.039 15.2831 290.942 15.4071 290.844 15.5311C290.511 15.9207 290.193 16.3222 289.864 16.7118" stroke="#FBE04B" stroke-width="2.40789" stroke-miterlimit="10"/>
<path d="M330.665 17.6094L334.92 22.2614" stroke="#FBE04B" stroke-width="2.40789" stroke-miterlimit="10"/>
<path d="M335.933 11.0987L344.93 20.9459L339.182 27.918" stroke="#FBE04B" stroke-width="2.40789" stroke-miterlimit="10"/>
<path d="M339.667 27.4564L334.386 33.8559L321.109 49.9491" stroke="#FBE04B" stroke-width="2.40789" stroke-miterlimit="10"/>
<path d="M330.398 17.9338L336.685 10.3123" stroke="#FBE04B" stroke-width="2.40789" stroke-miterlimit="10"/>
<path d="M270.67 24.7524L274.729 19.8702" stroke="#FBE04B" stroke-width="2.40789" stroke-miterlimit="10"/>
<path d="M285.44 51.425C276.834 42.0796 268.586 32.6515 260 23.4419" stroke="#FBE04B" stroke-width="2.40789" stroke-miterlimit="10"/>
<path d="M266.148 30.1955L260.108 23.554L268.694 13.2286" stroke="#FBE04B" stroke-width="2.40789" stroke-miterlimit="10"/>
<path d="M275.012 20.1831L268.412 12.9217" stroke="#FBE04B" stroke-width="2.40789" stroke-miterlimit="10"/>
<path d="M302.038 2.0647L302.058 2.08831L302.12 2.15325L302.161 2.20048L312.723 13.7243L314.345 15.4954" stroke="#FBE04B" stroke-width="2.40789" stroke-miterlimit="10"/>
<path d="M303.367 71.0959C303.362 71.0899 303.352 71.084 303.346 71.0721" stroke="#FBE04B" stroke-width="2.40789" stroke-miterlimit="10"/>
<path d="M298.64 65.9479C298.527 65.8239 298.42 65.7118 298.307 65.5878C298.302 65.5819 298.296 65.5701 298.286 65.5642C298.271 65.5465 298.255 65.5288 298.24 65.5052C298.009 65.2572 297.783 65.0034 297.552 64.7554C297.419 64.6078 297.275 64.4543 297.142 64.3008C295.797 62.8367 294.447 61.3608 293.108 59.8731C293.051 59.8141 293 59.7491 292.949 59.696C292.451 59.1529 291.958 58.6038 291.466 58.0548C291.414 58.0017 291.363 57.9426 291.322 57.8954C291.101 57.6475 290.88 57.4054 290.66 57.1575" stroke="#FBE04B" stroke-width="2.40789" stroke-miterlimit="10"/>
<path d="M335.448 49.2939L331.378 54.1644" stroke="#FBE04B" stroke-width="2.40789" stroke-miterlimit="10"/>
<path d="M339.985 43.8624L346 50.5335L337.393 60.8294" stroke="#FBE04B" stroke-width="2.40789" stroke-miterlimit="10"/>
<path d="M320.57 22.3438L334.463 37.7403L339.985 43.8624" stroke="#FBE04B" stroke-width="2.40789" stroke-miterlimit="10"/>
<path d="M331.096 53.8514L337.671 61.1424" stroke="#FBE04B" stroke-width="2.40789" stroke-miterlimit="10"/>
<path d="M303.222 51.2967L315.792 36.1761L302.647 21.7167L290.077 36.8373L303.222 51.2967Z" stroke="#FBE04B" stroke-width="2.40789" stroke-miterlimit="10"/>
<path d="M291.235 44.2817L289.418 42.2863" stroke="#FBE04B" stroke-width="2.40789" stroke-miterlimit="10"/>
<path d="M295.284 30.5735C291.763 34.7532 288.396 38.9625 284.881 43.0832" stroke="#FBE04B" stroke-width="2.40789" stroke-miterlimit="10"/>
<path d="M288.766 47.2512L284.927 43.0301L287.396 40.0606" stroke="#FBE04B" stroke-width="2.40789" stroke-miterlimit="10"/>
<path d="M291.353 44.1459L288.653 47.3929" stroke="#FBE04B" stroke-width="2.40789" stroke-miterlimit="10"/>
<path d="M298.209 52.594L296.403 50.5927" stroke="#FBE04B" stroke-width="2.40789" stroke-miterlimit="10"/>
<path d="M300.231 54.8314L297.752 57.7891L293.924 53.5562" stroke="#FBE04B" stroke-width="2.40789" stroke-miterlimit="10"/>
<path d="M308.227 45.2792L302.505 52.1156L300.231 54.8313" stroke="#FBE04B" stroke-width="2.40789" stroke-miterlimit="10"/>
<path d="M296.516 50.4567L293.806 53.6918" stroke="#FBE04B" stroke-width="2.40789" stroke-miterlimit="10"/>
<path d="M307.334 20.7381L309.146 22.7335" stroke="#FBE04B" stroke-width="2.40789" stroke-miterlimit="10"/>
<path d="M297.419 28.0052C300.893 23.7723 304.399 19.7166 307.822 15.4955" stroke="#FBE04B" stroke-width="2.40789" stroke-miterlimit="10"/>
<path d="M305.307 18.5122L307.776 15.5427L311.615 19.7696" stroke="#FBE04B" stroke-width="2.40789" stroke-miterlimit="10"/>
<path d="M309.033 22.875L311.733 19.6281" stroke="#FBE04B" stroke-width="2.40789" stroke-miterlimit="10"/>
<path d="M314.858 28.389L316.68 30.3785" stroke="#FBE04B" stroke-width="2.40789" stroke-miterlimit="10"/>
<path d="M317.316 25.4078L321.166 29.623L318.707 32.5984" stroke="#FBE04B" stroke-width="2.40789" stroke-miterlimit="10"/>
<path d="M318.707 32.5985L316.449 35.3378L310.773 42.2214" stroke="#FBE04B" stroke-width="2.40789" stroke-miterlimit="10"/>
<path d="M314.745 28.5309L317.435 25.2721" stroke="#FBE04B" stroke-width="2.40789" stroke-miterlimit="10"/>
<path d="M289.207 31.4472L290.947 29.3573" stroke="#FBE04B" stroke-width="2.40789" stroke-miterlimit="10"/>
<path d="M295.525 42.8471C291.845 38.8503 288.319 34.8182 284.65 30.8805" stroke="#FBE04B" stroke-width="2.40789" stroke-miterlimit="10"/>
<path d="M287.273 33.7732L284.691 30.9335L288.366 26.5176" stroke="#FBE04B" stroke-width="2.40789" stroke-miterlimit="10"/>
<path d="M291.065 29.493L288.243 26.3877" stroke="#FBE04B" stroke-width="2.40789" stroke-miterlimit="10"/>
<path d="M295.859 22.7866L297.594 20.6967" stroke="#FBE04B" stroke-width="2.40789" stroke-miterlimit="10"/>
<path d="M293.272 19.9586L296.931 15.5309L299.523 18.3588" stroke="#FBE04B" stroke-width="2.40789" stroke-miterlimit="10"/>
<path d="M299.523 18.3588L301.899 20.9564L307.883 27.4858" stroke="#FBE04B" stroke-width="2.40789" stroke-miterlimit="10"/>
<path d="M295.982 22.9225L293.149 19.829" stroke="#FBE04B" stroke-width="2.40789" stroke-miterlimit="10"/>
<path d="M309.675 49.9609L307.94 52.0507" stroke="#FBE04B" stroke-width="2.40789" stroke-miterlimit="10"/>
<path d="M297.758 45.3027C301.391 49.3526 305.051 53.2254 308.633 57.2693" stroke="#FBE04B" stroke-width="2.40789" stroke-miterlimit="10"/>
<path d="M312.256 52.8004L308.587 57.2163L306.005 54.3767" stroke="#FBE04B" stroke-width="2.40789" stroke-miterlimit="10"/>
<path d="M309.557 49.8309L312.379 52.9362" stroke="#FBE04B" stroke-width="2.40789" stroke-miterlimit="10"/>
<path d="M316.906 41.9378L315.161 44.0218" stroke="#FBE04B" stroke-width="2.40789" stroke-miterlimit="10"/>
<path d="M318.846 39.6176L321.417 42.4691L317.737 46.8731" stroke="#FBE04B" stroke-width="2.40789" stroke-miterlimit="10"/>
<path d="M310.542 30.4141L316.485 36.9966L318.846 39.6178" stroke="#FBE04B" stroke-width="2.40789" stroke-miterlimit="10"/>
<path d="M315.043 43.886L317.855 47.0031" stroke="#FBE04B" stroke-width="2.40789" stroke-miterlimit="10"/>
<path d="M389.517 71.1017L389.48 71.1492" stroke="#FBE04B" stroke-width="2.40789" stroke-miterlimit="10"/>
<path d="M389.341 71.1193L389.321 71.1016L384.64 65.9478C384.527 65.8238 384.419 65.7117 384.307 65.5877C384.301 65.5818 384.296 65.57 384.286 65.5641L383.552 64.7553C383.419 64.6077 383.275 64.4542 383.142 64.3007L379.108 59.873C379.051 59.8139 379 59.749 378.949 59.6959C378.451 59.1527 377.958 58.6037 377.465 58.0547C377.414 58.0015 377.363 57.9425 377.322 57.8953L371.44 51.419C370.64 50.5453 369.839 49.6834 369.049 48.8037C367.355 46.95 365.672 45.1022 363.998 43.2425L358.697 37.4039L358.671 37.3803L358.692 37.3508L363.675 31.3586C363.696 31.335 363.716 31.3114 363.732 31.2937L369.392 24.4868C369.557 24.2861 369.726 24.0795 369.9 23.8728L375.879 16.6941C376.208 16.3044 376.526 15.903 376.86 15.5133C376.88 15.4838 376.901 15.4602 376.926 15.4307L377.168 15.1414L382.736 8.43492C382.823 8.32866 382.905 8.2342 382.993 8.12793L386.503 3.91276L387.976 2.14168L387.997 2.11216L388.048 2.05313L388.089 2L388.115 2.02361L388.171 2.08855L388.217 2.14168L398.738 13.7127L400.796 15.9797L408.869 24.8587L409.577 25.638L418.8 35.7863L418.841 35.8276L418.805 35.8748L410.024 46.4364L409.49 47.074L399.216 59.442L398.974 59.7313L398.928 59.7903H398.923L398.636 60.1327L398.579 60.2036L398.456 60.3512L398.369 60.4574" stroke="#FBE04B" stroke-width="2.40789" stroke-miterlimit="10"/>
<path d="M361.412 54.7781L357.162 50.1084" stroke="#FBE04B" stroke-width="2.40789" stroke-miterlimit="10"/>
<path d="M370.886 22.704C362.654 32.4804 354.776 42.3276 346.559 51.9682" stroke="#FBE04B" stroke-width="2.40789" stroke-miterlimit="10"/>
<path d="M355.638 61.7266L346.657 51.8499L352.43 44.9014" stroke="#FBE04B" stroke-width="2.40789" stroke-miterlimit="10"/>
<path d="M361.679 54.4536L355.366 62.0457" stroke="#FBE04B" stroke-width="2.40789" stroke-miterlimit="10"/>
<path d="M401.156 57.1161L399.2 59.4481L398.959 59.7373L398.913 59.7964L398.569 60.2037L398.441 60.3572L398.359 60.4635L389.397 71.1495" stroke="#FBE04B" stroke-width="2.40789" stroke-miterlimit="10"/>
<path d="M388.104 2.03546C388.089 2.05317 388.074 2.07088 388.058 2.08859C388.043 2.11221 388.022 2.13582 388.007 2.15353C387.997 2.16534 387.992 2.17124 387.986 2.17714C387.601 2.63762 387.217 3.0922 386.832 3.55268C385.549 5.08171 384.266 6.61075 382.977 8.14568C382.89 8.25195 382.808 8.34641 382.721 8.45267C380.858 10.6724 379.005 12.9099 377.152 15.1592C377.039 15.2831 376.942 15.4071 376.844 15.5311C376.511 15.9207 376.193 16.3222 375.864 16.7118" stroke="#FBE04B" stroke-width="2.40789" stroke-miterlimit="10"/>
<path d="M416.665 17.6094L420.92 22.2614" stroke="#FBE04B" stroke-width="2.40789" stroke-miterlimit="10"/>
<path d="M421.933 11.0987L430.93 20.9459L425.182 27.918" stroke="#FBE04B" stroke-width="2.40789" stroke-miterlimit="10"/>
<path d="M425.667 27.4564L420.386 33.8559L407.109 49.9491" stroke="#FBE04B" stroke-width="2.40789" stroke-miterlimit="10"/>
<path d="M416.398 17.9338L422.685 10.3123" stroke="#FBE04B" stroke-width="2.40789" stroke-miterlimit="10"/>
<path d="M356.67 24.7524L360.729 19.8702" stroke="#FBE04B" stroke-width="2.40789" stroke-miterlimit="10"/>
<path d="M371.44 51.425C362.834 42.0796 354.586 32.6515 346 23.4419" stroke="#FBE04B" stroke-width="2.40789" stroke-miterlimit="10"/>
<path d="M352.148 30.1955L346.108 23.554L354.694 13.2286" stroke="#FBE04B" stroke-width="2.40789" stroke-miterlimit="10"/>
<path d="M361.012 20.1831L354.412 12.9217" stroke="#FBE04B" stroke-width="2.40789" stroke-miterlimit="10"/>
<path d="M388.038 2.0647L388.058 2.08831L388.12 2.15325L388.161 2.20048L398.723 13.7243L400.345 15.4954" stroke="#FBE04B" stroke-width="2.40789" stroke-miterlimit="10"/>
<path d="M389.367 71.0959C389.362 71.0899 389.352 71.084 389.346 71.0721" stroke="#FBE04B" stroke-width="2.40789" stroke-miterlimit="10"/>
<path d="M384.64 65.9479C384.527 65.8239 384.42 65.7118 384.307 65.5878C384.302 65.5819 384.296 65.5701 384.286 65.5642C384.271 65.5465 384.255 65.5288 384.24 65.5052C384.009 65.2572 383.783 65.0034 383.552 64.7554C383.419 64.6078 383.275 64.4543 383.142 64.3008C381.797 62.8367 380.447 61.3608 379.108 59.8731C379.051 59.8141 379 59.7491 378.949 59.696C378.451 59.1529 377.958 58.6038 377.466 58.0548C377.414 58.0017 377.363 57.9426 377.322 57.8954C377.101 57.6475 376.88 57.4054 376.66 57.1575" stroke="#FBE04B" stroke-width="2.40789" stroke-miterlimit="10"/>
<path d="M421.448 49.2939L417.378 54.1644" stroke="#FBE04B" stroke-width="2.40789" stroke-miterlimit="10"/>
<path d="M425.985 43.8624L432 50.5335L423.393 60.8294" stroke="#FBE04B" stroke-width="2.40789" stroke-miterlimit="10"/>
<path d="M406.57 22.3438L420.463 37.7403L425.985 43.8624" stroke="#FBE04B" stroke-width="2.40789" stroke-miterlimit="10"/>
<path d="M417.096 53.8514L423.671 61.1424" stroke="#FBE04B" stroke-width="2.40789" stroke-miterlimit="10"/>
<path d="M389.222 51.2967L401.792 36.1761L388.647 21.7167L376.077 36.8373L389.222 51.2967Z" stroke="#FBE04B" stroke-width="2.40789" stroke-miterlimit="10"/>
<path d="M377.235 44.2817L375.418 42.2863" stroke="#FBE04B" stroke-width="2.40789" stroke-miterlimit="10"/>
<path d="M381.284 30.5735C377.763 34.7532 374.396 38.9625 370.881 43.0832" stroke="#FBE04B" stroke-width="2.40789" stroke-miterlimit="10"/>
<path d="M374.766 47.2512L370.927 43.0301L373.396 40.0606" stroke="#FBE04B" stroke-width="2.40789" stroke-miterlimit="10"/>
<path d="M377.353 44.1459L374.653 47.3929" stroke="#FBE04B" stroke-width="2.40789" stroke-miterlimit="10"/>
<path d="M384.209 52.594L382.403 50.5927" stroke="#FBE04B" stroke-width="2.40789" stroke-miterlimit="10"/>
<path d="M386.231 54.8314L383.752 57.7891L379.924 53.5562" stroke="#FBE04B" stroke-width="2.40789" stroke-miterlimit="10"/>
<path d="M394.227 45.2792L388.505 52.1156L386.231 54.8313" stroke="#FBE04B" stroke-width="2.40789" stroke-miterlimit="10"/>
<path d="M382.516 50.4567L379.806 53.6918" stroke="#FBE04B" stroke-width="2.40789" stroke-miterlimit="10"/>
<path d="M393.334 20.7381L395.146 22.7335" stroke="#FBE04B" stroke-width="2.40789" stroke-miterlimit="10"/>
<path d="M383.419 28.0052C386.893 23.7723 390.399 19.7166 393.822 15.4955" stroke="#FBE04B" stroke-width="2.40789" stroke-miterlimit="10"/>
<path d="M391.307 18.5122L393.776 15.5427L397.615 19.7696" stroke="#FBE04B" stroke-width="2.40789" stroke-miterlimit="10"/>
<path d="M395.033 22.875L397.733 19.6281" stroke="#FBE04B" stroke-width="2.40789" stroke-miterlimit="10"/>
<path d="M400.858 28.389L402.68 30.3785" stroke="#FBE04B" stroke-width="2.40789" stroke-miterlimit="10"/>
<path d="M403.316 25.4078L407.166 29.623L404.707 32.5984" stroke="#FBE04B" stroke-width="2.40789" stroke-miterlimit="10"/>
<path d="M404.707 32.5985L402.449 35.3378L396.773 42.2214" stroke="#FBE04B" stroke-width="2.40789" stroke-miterlimit="10"/>
<path d="M400.745 28.5309L403.435 25.2721" stroke="#FBE04B" stroke-width="2.40789" stroke-miterlimit="10"/>
<path d="M375.207 31.4472L376.947 29.3573" stroke="#FBE04B" stroke-width="2.40789" stroke-miterlimit="10"/>
<path d="M381.525 42.8471C377.845 38.8503 374.319 34.8182 370.65 30.8805" stroke="#FBE04B" stroke-width="2.40789" stroke-miterlimit="10"/>
<path d="M373.273 33.7732L370.691 30.9335L374.366 26.5176" stroke="#FBE04B" stroke-width="2.40789" stroke-miterlimit="10"/>
<path d="M377.065 29.493L374.243 26.3877" stroke="#FBE04B" stroke-width="2.40789" stroke-miterlimit="10"/>
<path d="M381.859 22.7866L383.594 20.6967" stroke="#FBE04B" stroke-width="2.40789" stroke-miterlimit="10"/>
<path d="M379.272 19.9586L382.931 15.5309L385.523 18.3588" stroke="#FBE04B" stroke-width="2.40789" stroke-miterlimit="10"/>
<path d="M385.523 18.3588L387.899 20.9564L393.883 27.4858" stroke="#FBE04B" stroke-width="2.40789" stroke-miterlimit="10"/>
<path d="M381.982 22.9225L379.149 19.829" stroke="#FBE04B" stroke-width="2.40789" stroke-miterlimit="10"/>
<path d="M395.675 49.9609L393.94 52.0507" stroke="#FBE04B" stroke-width="2.40789" stroke-miterlimit="10"/>
<path d="M383.758 45.3027C387.391 49.3526 391.051 53.2254 394.633 57.2693" stroke="#FBE04B" stroke-width="2.40789" stroke-miterlimit="10"/>
<path d="M398.256 52.8004L394.587 57.2163L392.005 54.3767" stroke="#FBE04B" stroke-width="2.40789" stroke-miterlimit="10"/>
<path d="M395.557 49.8309L398.379 52.9362" stroke="#FBE04B" stroke-width="2.40789" stroke-miterlimit="10"/>
<path d="M402.906 41.9378L401.161 44.0218" stroke="#FBE04B" stroke-width="2.40789" stroke-miterlimit="10"/>
<path d="M404.846 39.6176L407.417 42.4691L403.737 46.8731" stroke="#FBE04B" stroke-width="2.40789" stroke-miterlimit="10"/>
<path d="M396.542 30.4141L402.485 36.9966L404.846 39.6178" stroke="#FBE04B" stroke-width="2.40789" stroke-miterlimit="10"/>
<path d="M401.043 43.886L403.855 47.0031" stroke="#FBE04B" stroke-width="2.40789" stroke-miterlimit="10"/>
<path d="M475.517 71.1017L475.48 71.1492" stroke="#FBE04B" stroke-width="2.40789" stroke-miterlimit="10"/>
<path d="M475.341 71.1193L475.321 71.1016L470.64 65.9478C470.527 65.8238 470.419 65.7117 470.307 65.5877C470.301 65.5818 470.296 65.57 470.286 65.5641L469.552 64.7553C469.419 64.6077 469.275 64.4542 469.142 64.3007L465.108 59.873C465.051 59.8139 465 59.749 464.949 59.6959C464.451 59.1527 463.958 58.6037 463.465 58.0547C463.414 58.0015 463.363 57.9425 463.322 57.8953L457.44 51.419C456.64 50.5453 455.839 49.6834 455.049 48.8037C453.355 46.95 451.672 45.1022 449.998 43.2425L444.697 37.4039L444.671 37.3803L444.692 37.3508L449.675 31.3586C449.696 31.335 449.716 31.3114 449.732 31.2937L455.392 24.4868C455.557 24.2861 455.726 24.0795 455.9 23.8728L461.879 16.6941C462.208 16.3044 462.526 15.903 462.86 15.5133C462.88 15.4838 462.901 15.4602 462.926 15.4307L463.168 15.1414L468.736 8.43492C468.823 8.32866 468.905 8.2342 468.993 8.12793L472.503 3.91276L473.976 2.14168L473.997 2.11216L474.048 2.05313L474.089 2L474.115 2.02361L474.171 2.08855L474.217 2.14168L484.738 13.7127L486.796 15.9797L494.869 24.8587L495.577 25.638L504.8 35.7863L504.841 35.8276L504.805 35.8748L496.024 46.4364L495.49 47.074L485.216 59.442L484.974 59.7313L484.928 59.7903H484.923L484.636 60.1327L484.579 60.2036L484.456 60.3512L484.369 60.4574" stroke="#FBE04B" stroke-width="2.40789" stroke-miterlimit="10"/>
<path d="M447.412 54.7781L443.162 50.1084" stroke="#FBE04B" stroke-width="2.40789" stroke-miterlimit="10"/>
<path d="M456.886 22.704C448.654 32.4804 440.776 42.3276 432.559 51.9682" stroke="#FBE04B" stroke-width="2.40789" stroke-miterlimit="10"/>
<path d="M441.638 61.7266L432.657 51.8499L438.43 44.9014" stroke="#FBE04B" stroke-width="2.40789" stroke-miterlimit="10"/>
<path d="M447.679 54.4536L441.366 62.0457" stroke="#FBE04B" stroke-width="2.40789" stroke-miterlimit="10"/>
<path d="M487.156 57.1161L485.2 59.4481L484.959 59.7373L484.913 59.7964L484.569 60.2037L484.441 60.3572L484.359 60.4635L475.397 71.1495" stroke="#FBE04B" stroke-width="2.40789" stroke-miterlimit="10"/>
<path d="M474.104 2.03546C474.089 2.05317 474.074 2.07088 474.058 2.08859C474.043 2.11221 474.022 2.13582 474.007 2.15353C473.997 2.16534 473.992 2.17124 473.986 2.17714C473.601 2.63762 473.217 3.0922 472.832 3.55268C471.549 5.08171 470.266 6.61075 468.977 8.14568C468.89 8.25195 468.808 8.34641 468.721 8.45267C466.858 10.6724 465.005 12.9099 463.152 15.1592C463.039 15.2831 462.942 15.4071 462.844 15.5311C462.511 15.9207 462.193 16.3222 461.864 16.7118" stroke="#FBE04B" stroke-width="2.40789" stroke-miterlimit="10"/>
<path d="M502.665 17.6094L506.92 22.2614" stroke="#FBE04B" stroke-width="2.40789" stroke-miterlimit="10"/>
<path d="M507.933 11.0987L516.93 20.9459L511.182 27.918" stroke="#FBE04B" stroke-width="2.40789" stroke-miterlimit="10"/>
<path d="M511.667 27.4564L506.386 33.8559L493.109 49.9491" stroke="#FBE04B" stroke-width="2.40789" stroke-miterlimit="10"/>
<path d="M502.398 17.9338L508.685 10.3123" stroke="#FBE04B" stroke-width="2.40789" stroke-miterlimit="10"/>
<path d="M442.67 24.7524L446.729 19.8702" stroke="#FBE04B" stroke-width="2.40789" stroke-miterlimit="10"/>
<path d="M457.44 51.425C448.834 42.0796 440.586 32.6515 432 23.4419" stroke="#FBE04B" stroke-width="2.40789" stroke-miterlimit="10"/>
<path d="M438.148 30.1955L432.108 23.554L440.694 13.2286" stroke="#FBE04B" stroke-width="2.40789" stroke-miterlimit="10"/>
<path d="M447.012 20.1831L440.412 12.9217" stroke="#FBE04B" stroke-width="2.40789" stroke-miterlimit="10"/>
<path d="M474.038 2.0647L474.058 2.08831L474.12 2.15325L474.161 2.20048L484.723 13.7243L486.345 15.4954" stroke="#FBE04B" stroke-width="2.40789" stroke-miterlimit="10"/>
<path d="M475.367 71.0959C475.362 71.0899 475.352 71.084 475.346 71.0721" stroke="#FBE04B" stroke-width="2.40789" stroke-miterlimit="10"/>
<path d="M470.64 65.9479C470.527 65.8239 470.42 65.7118 470.307 65.5878C470.302 65.5819 470.296 65.5701 470.286 65.5642C470.271 65.5465 470.255 65.5288 470.24 65.5052C470.009 65.2572 469.783 65.0034 469.552 64.7554C469.419 64.6078 469.275 64.4543 469.142 64.3008C467.797 62.8367 466.447 61.3608 465.108 59.8731C465.051 59.8141 465 59.7491 464.949 59.696C464.451 59.1529 463.958 58.6038 463.466 58.0548C463.414 58.0017 463.363 57.9426 463.322 57.8954C463.101 57.6475 462.88 57.4054 462.66 57.1575" stroke="#FBE04B" stroke-width="2.40789" stroke-miterlimit="10"/>
<path d="M507.448 49.2939L503.378 54.1644" stroke="#FBE04B" stroke-width="2.40789" stroke-miterlimit="10"/>
<path d="M511.985 43.8624L518 50.5335L509.393 60.8294" stroke="#FBE04B" stroke-width="2.40789" stroke-miterlimit="10"/>
<path d="M492.57 22.3438L506.463 37.7403L511.985 43.8624" stroke="#FBE04B" stroke-width="2.40789" stroke-miterlimit="10"/>
<path d="M503.096 53.8514L509.671 61.1424" stroke="#FBE04B" stroke-width="2.40789" stroke-miterlimit="10"/>
<path d="M475.222 51.2967L487.792 36.1761L474.647 21.7167L462.077 36.8373L475.222 51.2967Z" stroke="#FBE04B" stroke-width="2.40789" stroke-miterlimit="10"/>
<path d="M463.235 44.2817L461.418 42.2863" stroke="#FBE04B" stroke-width="2.40789" stroke-miterlimit="10"/>
<path d="M467.284 30.5735C463.763 34.7532 460.396 38.9625 456.881 43.0832" stroke="#FBE04B" stroke-width="2.40789" stroke-miterlimit="10"/>
<path d="M460.766 47.2512L456.927 43.0301L459.396 40.0606" stroke="#FBE04B" stroke-width="2.40789" stroke-miterlimit="10"/>
<path d="M463.353 44.1459L460.653 47.3929" stroke="#FBE04B" stroke-width="2.40789" stroke-miterlimit="10"/>
<path d="M470.209 52.594L468.403 50.5927" stroke="#FBE04B" stroke-width="2.40789" stroke-miterlimit="10"/>
<path d="M472.231 54.8314L469.752 57.7891L465.924 53.5562" stroke="#FBE04B" stroke-width="2.40789" stroke-miterlimit="10"/>
<path d="M480.227 45.2792L474.505 52.1156L472.231 54.8313" stroke="#FBE04B" stroke-width="2.40789" stroke-miterlimit="10"/>
<path d="M468.516 50.4567L465.806 53.6918" stroke="#FBE04B" stroke-width="2.40789" stroke-miterlimit="10"/>
<path d="M479.334 20.7381L481.146 22.7335" stroke="#FBE04B" stroke-width="2.40789" stroke-miterlimit="10"/>
<path d="M469.419 28.0052C472.893 23.7723 476.399 19.7166 479.822 15.4955" stroke="#FBE04B" stroke-width="2.40789" stroke-miterlimit="10"/>
<path d="M477.307 18.5122L479.776 15.5427L483.615 19.7696" stroke="#FBE04B" stroke-width="2.40789" stroke-miterlimit="10"/>
<path d="M481.033 22.875L483.733 19.6281" stroke="#FBE04B" stroke-width="2.40789" stroke-miterlimit="10"/>
<path d="M486.858 28.389L488.68 30.3785" stroke="#FBE04B" stroke-width="2.40789" stroke-miterlimit="10"/>
<path d="M489.316 25.4078L493.166 29.623L490.707 32.5984" stroke="#FBE04B" stroke-width="2.40789" stroke-miterlimit="10"/>
<path d="M490.707 32.5985L488.449 35.3378L482.773 42.2214" stroke="#FBE04B" stroke-width="2.40789" stroke-miterlimit="10"/>
<path d="M486.745 28.5309L489.435 25.2721" stroke="#FBE04B" stroke-width="2.40789" stroke-miterlimit="10"/>
<path d="M461.207 31.4472L462.947 29.3573" stroke="#FBE04B" stroke-width="2.40789" stroke-miterlimit="10"/>
<path d="M467.525 42.8471C463.845 38.8503 460.319 34.8182 456.65 30.8805" stroke="#FBE04B" stroke-width="2.40789" stroke-miterlimit="10"/>
<path d="M459.273 33.7732L456.691 30.9335L460.366 26.5176" stroke="#FBE04B" stroke-width="2.40789" stroke-miterlimit="10"/>
<path d="M463.065 29.493L460.243 26.3877" stroke="#FBE04B" stroke-width="2.40789" stroke-miterlimit="10"/>
<path d="M467.859 22.7866L469.594 20.6967" stroke="#FBE04B" stroke-width="2.40789" stroke-miterlimit="10"/>
<path d="M465.272 19.9586L468.931 15.5309L471.523 18.3588" stroke="#FBE04B" stroke-width="2.40789" stroke-miterlimit="10"/>
<path d="M471.523 18.3588L473.899 20.9564L479.883 27.4858" stroke="#FBE04B" stroke-width="2.40789" stroke-miterlimit="10"/>
<path d="M467.982 22.9225L465.149 19.829" stroke="#FBE04B" stroke-width="2.40789" stroke-miterlimit="10"/>
<path d="M481.675 49.9609L479.94 52.0507" stroke="#FBE04B" stroke-width="2.40789" stroke-miterlimit="10"/>
<path d="M469.758 45.3027C473.391 49.3526 477.051 53.2254 480.633 57.2693" stroke="#FBE04B" stroke-width="2.40789" stroke-miterlimit="10"/>
<path d="M484.256 52.8004L480.587 57.2163L478.005 54.3767" stroke="#FBE04B" stroke-width="2.40789" stroke-miterlimit="10"/>
<path d="M481.557 49.8309L484.379 52.9362" stroke="#FBE04B" stroke-width="2.40789" stroke-miterlimit="10"/>
<path d="M488.906 41.9378L487.161 44.0218" stroke="#FBE04B" stroke-width="2.40789" stroke-miterlimit="10"/>
<path d="M490.846 39.6176L493.417 42.4691L489.737 46.8731" stroke="#FBE04B" stroke-width="2.40789" stroke-miterlimit="10"/>
<path d="M482.542 30.4141L488.485 36.9966L490.846 39.6178" stroke="#FBE04B" stroke-width="2.40789" stroke-miterlimit="10"/>
<path d="M487.043 43.886L489.855 47.0031" stroke="#FBE04B" stroke-width="2.40789" stroke-miterlimit="10"/>
<path d="M561.517 71.1017L561.48 71.1492" stroke="#FBE04B" stroke-width="2.40789" stroke-miterlimit="10"/>
<path d="M561.341 71.1193L561.321 71.1016L556.64 65.9478C556.527 65.8238 556.419 65.7117 556.307 65.5877C556.301 65.5818 556.296 65.57 556.286 65.5641L555.552 64.7553C555.419 64.6077 555.275 64.4542 555.142 64.3007L551.108 59.873C551.051 59.8139 551 59.749 550.949 59.6959C550.451 59.1527 549.958 58.6037 549.465 58.0547C549.414 58.0015 549.363 57.9425 549.322 57.8953L543.44 51.419C542.64 50.5453 541.839 49.6834 541.049 48.8037C539.355 46.95 537.672 45.1022 535.998 43.2425L530.697 37.4039L530.671 37.3803L530.692 37.3508L535.675 31.3586C535.696 31.335 535.716 31.3114 535.732 31.2937L541.392 24.4868C541.557 24.2861 541.726 24.0795 541.9 23.8728L547.879 16.6941C548.208 16.3044 548.526 15.903 548.86 15.5133C548.88 15.4838 548.901 15.4602 548.926 15.4307L549.168 15.1414L554.736 8.43492C554.823 8.32866 554.905 8.2342 554.993 8.12793L558.503 3.91276L559.976 2.14168L559.997 2.11216L560.048 2.05313L560.089 2L560.115 2.02361L560.171 2.08855L560.217 2.14168L570.738 13.7127L572.796 15.9797L580.869 24.8587L581.577 25.638L590.8 35.7863L590.841 35.8276L590.805 35.8748L582.024 46.4364L581.49 47.074L571.216 59.442L570.974 59.7313L570.928 59.7903H570.923L570.636 60.1327L570.579 60.2036L570.456 60.3512L570.369 60.4574" stroke="#FBE04B" stroke-width="2.40789" stroke-miterlimit="10"/>
<path d="M533.412 54.7781L529.162 50.1084" stroke="#FBE04B" stroke-width="2.40789" stroke-miterlimit="10"/>
<path d="M542.886 22.704C534.654 32.4804 526.776 42.3276 518.559 51.9682" stroke="#FBE04B" stroke-width="2.40789" stroke-miterlimit="10"/>
<path d="M527.638 61.7266L518.657 51.8499L524.43 44.9014" stroke="#FBE04B" stroke-width="2.40789" stroke-miterlimit="10"/>
<path d="M533.679 54.4536L527.366 62.0457" stroke="#FBE04B" stroke-width="2.40789" stroke-miterlimit="10"/>
<path d="M573.156 57.1161L571.2 59.4481L570.959 59.7373L570.913 59.7964L570.569 60.2037L570.441 60.3572L570.359 60.4635L561.397 71.1495" stroke="#FBE04B" stroke-width="2.40789" stroke-miterlimit="10"/>
<path d="M560.104 2.03546C560.089 2.05317 560.074 2.07088 560.058 2.08859C560.043 2.11221 560.022 2.13582 560.007 2.15353C559.997 2.16534 559.992 2.17124 559.986 2.17714C559.601 2.63762 559.217 3.0922 558.832 3.55268C557.549 5.08171 556.266 6.61075 554.977 8.14568C554.89 8.25195 554.808 8.34641 554.721 8.45267C552.858 10.6724 551.005 12.9099 549.152 15.1592C549.039 15.2831 548.942 15.4071 548.844 15.5311C548.511 15.9207 548.193 16.3222 547.864 16.7118" stroke="#FBE04B" stroke-width="2.40789" stroke-miterlimit="10"/>
<path d="M588.665 17.6094L592.92 22.2614" stroke="#FBE04B" stroke-width="2.40789" stroke-miterlimit="10"/>
<path d="M593.933 11.0987L602.93 20.9459L597.182 27.918" stroke="#FBE04B" stroke-width="2.40789" stroke-miterlimit="10"/>
<path d="M597.667 27.4564L592.386 33.8559L579.109 49.9491" stroke="#FBE04B" stroke-width="2.40789" stroke-miterlimit="10"/>
<path d="M588.398 17.9338L594.685 10.3123" stroke="#FBE04B" stroke-width="2.40789" stroke-miterlimit="10"/>
<path d="M528.67 24.7524L532.729 19.8702" stroke="#FBE04B" stroke-width="2.40789" stroke-miterlimit="10"/>
<path d="M543.44 51.425C534.834 42.0796 526.586 32.6515 518 23.4419" stroke="#FBE04B" stroke-width="2.40789" stroke-miterlimit="10"/>
<path d="M524.148 30.1955L518.108 23.554L526.694 13.2286" stroke="#FBE04B" stroke-width="2.40789" stroke-miterlimit="10"/>
<path d="M533.012 20.1831L526.412 12.9217" stroke="#FBE04B" stroke-width="2.40789" stroke-miterlimit="10"/>
<path d="M560.038 2.0647L560.058 2.08831L560.12 2.15325L560.161 2.20048L570.723 13.7243L572.345 15.4954" stroke="#FBE04B" stroke-width="2.40789" stroke-miterlimit="10"/>
<path d="M561.367 71.0959C561.362 71.0899 561.352 71.084 561.346 71.0721" stroke="#FBE04B" stroke-width="2.40789" stroke-miterlimit="10"/>
<path d="M556.64 65.9479C556.527 65.8239 556.42 65.7118 556.307 65.5878C556.302 65.5819 556.296 65.5701 556.286 65.5642C556.271 65.5465 556.255 65.5288 556.24 65.5052C556.009 65.2572 555.783 65.0034 555.552 64.7554C555.419 64.6078 555.275 64.4543 555.142 64.3008C553.797 62.8367 552.447 61.3608 551.108 59.8731C551.051 59.8141 551 59.7491 550.949 59.696C550.451 59.1529 549.958 58.6038 549.466 58.0548C549.414 58.0017 549.363 57.9426 549.322 57.8954C549.101 57.6475 548.88 57.4054 548.66 57.1575" stroke="#FBE04B" stroke-width="2.40789" stroke-miterlimit="10"/>
<path d="M593.448 49.2939L589.378 54.1644" stroke="#FBE04B" stroke-width="2.40789" stroke-miterlimit="10"/>
<path d="M597.985 43.8624L604 50.5335L595.393 60.8294" stroke="#FBE04B" stroke-width="2.40789" stroke-miterlimit="10"/>
<path d="M578.57 22.3438L592.463 37.7403L597.985 43.8624" stroke="#FBE04B" stroke-width="2.40789" stroke-miterlimit="10"/>
<path d="M589.096 53.8514L595.671 61.1424" stroke="#FBE04B" stroke-width="2.40789" stroke-miterlimit="10"/>
<path d="M561.222 51.2967L573.792 36.1761L560.647 21.7167L548.077 36.8373L561.222 51.2967Z" stroke="#FBE04B" stroke-width="2.40789" stroke-miterlimit="10"/>
<path d="M549.235 44.2817L547.418 42.2863" stroke="#FBE04B" stroke-width="2.40789" stroke-miterlimit="10"/>
<path d="M553.284 30.5735C549.763 34.7532 546.396 38.9625 542.881 43.0832" stroke="#FBE04B" stroke-width="2.40789" stroke-miterlimit="10"/>
<path d="M546.766 47.2512L542.927 43.0301L545.396 40.0606" stroke="#FBE04B" stroke-width="2.40789" stroke-miterlimit="10"/>
<path d="M549.353 44.1459L546.653 47.3929" stroke="#FBE04B" stroke-width="2.40789" stroke-miterlimit="10"/>
<path d="M556.209 52.594L554.403 50.5927" stroke="#FBE04B" stroke-width="2.40789" stroke-miterlimit="10"/>
<path d="M558.231 54.8314L555.752 57.7891L551.924 53.5562" stroke="#FBE04B" stroke-width="2.40789" stroke-miterlimit="10"/>
<path d="M566.227 45.2792L560.505 52.1156L558.231 54.8313" stroke="#FBE04B" stroke-width="2.40789" stroke-miterlimit="10"/>
<path d="M554.516 50.4567L551.806 53.6918" stroke="#FBE04B" stroke-width="2.40789" stroke-miterlimit="10"/>
<path d="M565.334 20.7381L567.146 22.7335" stroke="#FBE04B" stroke-width="2.40789" stroke-miterlimit="10"/>
<path d="M555.419 28.0052C558.893 23.7723 562.399 19.7166 565.822 15.4955" stroke="#FBE04B" stroke-width="2.40789" stroke-miterlimit="10"/>
<path d="M563.307 18.5122L565.776 15.5427L569.615 19.7696" stroke="#FBE04B" stroke-width="2.40789" stroke-miterlimit="10"/>
<path d="M567.033 22.875L569.733 19.6281" stroke="#FBE04B" stroke-width="2.40789" stroke-miterlimit="10"/>
<path d="M572.858 28.389L574.68 30.3785" stroke="#FBE04B" stroke-width="2.40789" stroke-miterlimit="10"/>
<path d="M575.316 25.4078L579.166 29.623L576.707 32.5984" stroke="#FBE04B" stroke-width="2.40789" stroke-miterlimit="10"/>
<path d="M576.707 32.5985L574.449 35.3378L568.773 42.2214" stroke="#FBE04B" stroke-width="2.40789" stroke-miterlimit="10"/>
<path d="M572.745 28.5309L575.435 25.2721" stroke="#FBE04B" stroke-width="2.40789" stroke-miterlimit="10"/>
<path d="M547.207 31.4472L548.947 29.3573" stroke="#FBE04B" stroke-width="2.40789" stroke-miterlimit="10"/>
<path d="M553.525 42.8471C549.845 38.8503 546.319 34.8182 542.65 30.8805" stroke="#FBE04B" stroke-width="2.40789" stroke-miterlimit="10"/>
<path d="M545.273 33.7732L542.691 30.9335L546.366 26.5176" stroke="#FBE04B" stroke-width="2.40789" stroke-miterlimit="10"/>
<path d="M549.065 29.493L546.243 26.3877" stroke="#FBE04B" stroke-width="2.40789" stroke-miterlimit="10"/>
<path d="M553.859 22.7866L555.594 20.6967" stroke="#FBE04B" stroke-width="2.40789" stroke-miterlimit="10"/>
<path d="M551.272 19.9586L554.931 15.5309L557.523 18.3588" stroke="#FBE04B" stroke-width="2.40789" stroke-miterlimit="10"/>
<path d="M557.523 18.3588L559.899 20.9564L565.883 27.4858" stroke="#FBE04B" stroke-width="2.40789" stroke-miterlimit="10"/>
<path d="M553.982 22.9225L551.149 19.829" stroke="#FBE04B" stroke-width="2.40789" stroke-miterlimit="10"/>
<path d="M567.675 49.9609L565.94 52.0507" stroke="#FBE04B" stroke-width="2.40789" stroke-miterlimit="10"/>
<path d="M555.758 45.3027C559.391 49.3526 563.051 53.2254 566.633 57.2693" stroke="#FBE04B" stroke-width="2.40789" stroke-miterlimit="10"/>
<path d="M570.256 52.8004L566.587 57.2163L564.005 54.3767" stroke="#FBE04B" stroke-width="2.40789" stroke-miterlimit="10"/>
<path d="M567.557 49.8309L570.379 52.9362" stroke="#FBE04B" stroke-width="2.40789" stroke-miterlimit="10"/>
<path d="M574.906 41.9378L573.161 44.0218" stroke="#FBE04B" stroke-width="2.40789" stroke-miterlimit="10"/>
<path d="M576.846 39.6176L579.417 42.4691L575.737 46.8731" stroke="#FBE04B" stroke-width="2.40789" stroke-miterlimit="10"/>
<path d="M568.542 30.4141L574.485 36.9966L576.846 39.6178" stroke="#FBE04B" stroke-width="2.40789" stroke-miterlimit="10"/>
<path d="M573.043 43.886L575.855 47.0031" stroke="#FBE04B" stroke-width="2.40789" stroke-miterlimit="10"/>
<path d="M647.517 70.9524L647.48 70.9999" stroke="#FBE04B" stroke-width="2.40789" stroke-miterlimit="10"/>
<path d="M647.341 70.97L647.321 70.9523L642.64 65.8096C642.527 65.6859 642.419 65.574 642.307 65.4503C642.301 65.4444 642.296 65.4326 642.286 65.4267L641.552 64.6197C641.419 64.4724 641.275 64.3192 641.142 64.1661L637.108 59.7479C637.051 59.689 637 59.6242 636.949 59.5712C636.451 59.0293 635.958 58.4814 635.465 57.9336C635.414 57.8805 635.363 57.8216 635.322 57.7745L629.44 51.3123C628.64 50.4404 627.839 49.5803 627.049 48.7026C625.355 46.8529 623.672 45.0091 621.998 43.1534L616.697 37.3274L616.671 37.3038L616.692 37.2744L621.675 31.2952C621.696 31.2716 621.716 31.248 621.732 31.2304L627.392 24.4382C627.557 24.2379 627.726 24.0318 627.9 23.8256L633.879 16.6623C634.208 16.2735 634.526 15.8729 634.86 15.4841C634.88 15.4547 634.901 15.4311 634.926 15.4017L635.168 15.113L640.736 8.42102C640.823 8.31498 640.905 8.22073 640.993 8.11469L644.503 3.90863L645.976 2.14137L645.997 2.11192L646.048 2.05302L646.089 2L646.115 2.02356L646.171 2.08836L646.217 2.14137L656.738 13.6874L658.796 15.9495L666.869 24.8093L667.577 25.5869L676.8 35.7133L676.841 35.7545L676.805 35.8017L668.024 46.3404L667.49 46.9766L657.216 59.3179L656.974 59.6066L656.928 59.6655H656.923L656.636 60.0071L656.579 60.0778L656.456 60.2251L656.369 60.3311" stroke="#FBE04B" stroke-width="2.40789" stroke-miterlimit="10"/>
<path d="M619.412 54.6641L615.162 50.0045" stroke="#FBE04B" stroke-width="2.40789" stroke-miterlimit="10"/>
<path d="M628.886 22.6593C620.654 32.4145 612.776 42.2405 604.559 51.8602" stroke="#FBE04B" stroke-width="2.40789" stroke-miterlimit="10"/>
<path d="M613.638 61.5976L604.657 51.7422L610.43 44.8087" stroke="#FBE04B" stroke-width="2.40789" stroke-miterlimit="10"/>
<path d="M619.679 54.3403L613.366 61.9159" stroke="#FBE04B" stroke-width="2.40789" stroke-miterlimit="10"/>
<path d="M659.156 56.9971L657.2 59.3239L656.959 59.6126L656.913 59.6715L656.569 60.078L656.441 60.2311L656.359 60.3372L647.397 71.0001" stroke="#FBE04B" stroke-width="2.40789" stroke-miterlimit="10"/>
<path d="M646.104 2.03546C646.089 2.05313 646.074 2.0708 646.058 2.08848C646.043 2.11204 646.022 2.1356 646.007 2.15328C645.997 2.16506 645.992 2.17095 645.986 2.17684C645.601 2.63632 645.217 3.08992 644.832 3.5494C643.549 5.07513 642.266 6.60086 640.977 8.13248C640.89 8.23851 640.808 8.33277 640.721 8.43881C638.858 10.6538 637.005 12.8864 635.152 15.1308C635.039 15.2545 634.942 15.3782 634.844 15.5019C634.511 15.8907 634.193 16.2913 633.864 16.6801" stroke="#FBE04B" stroke-width="2.40789" stroke-miterlimit="10"/>
<path d="M674.665 17.5756L678.92 22.2176" stroke="#FBE04B" stroke-width="2.40789" stroke-miterlimit="10"/>
<path d="M679.933 11.079L688.93 20.905L683.182 27.8621" stroke="#FBE04B" stroke-width="2.40789" stroke-miterlimit="10"/>
<path d="M683.667 27.4014L678.386 33.7871L665.109 49.8456" stroke="#FBE04B" stroke-width="2.40789" stroke-miterlimit="10"/>
<path d="M674.398 17.8994L680.685 10.2943" stroke="#FBE04B" stroke-width="2.40789" stroke-miterlimit="10"/>
<path d="M614.67 24.7033L618.729 19.8315" stroke="#FBE04B" stroke-width="2.40789" stroke-miterlimit="10"/>
<path d="M629.44 51.3182C620.834 41.993 612.586 32.5853 604 23.3956" stroke="#FBE04B" stroke-width="2.40789" stroke-miterlimit="10"/>
<path d="M610.148 30.1346L604.108 23.5074L612.694 13.2043" stroke="#FBE04B" stroke-width="2.40789" stroke-miterlimit="10"/>
<path d="M619.012 20.1438L612.412 12.8981" stroke="#FBE04B" stroke-width="2.40789" stroke-miterlimit="10"/>
<path d="M646.038 2.0647L646.058 2.08826L646.12 2.15306L646.161 2.20018L656.723 13.6991L658.345 15.4664" stroke="#FBE04B" stroke-width="2.40789" stroke-miterlimit="10"/>
<path d="M647.367 70.9466C647.362 70.9407 647.352 70.9347 647.346 70.9229" stroke="#FBE04B" stroke-width="2.40789" stroke-miterlimit="10"/>
<path d="M642.64 65.8097C642.527 65.686 642.42 65.5741 642.307 65.4504C642.302 65.4445 642.296 65.4327 642.286 65.4268C642.271 65.4092 642.255 65.3915 642.24 65.3679C642.009 65.1205 641.783 64.8672 641.552 64.6198C641.419 64.4725 641.275 64.3193 641.142 64.1662C639.797 62.7052 638.447 61.2325 637.108 59.748C637.051 59.6891 637 59.6243 636.949 59.5713C636.451 59.0294 635.958 58.4815 635.466 57.9337C635.414 57.8807 635.363 57.8218 635.322 57.7746C635.101 57.5272 634.88 57.2857 634.66 57.0383" stroke="#FBE04B" stroke-width="2.40789" stroke-miterlimit="10"/>
<path d="M679.448 49.1918L675.378 54.0517" stroke="#FBE04B" stroke-width="2.40789" stroke-miterlimit="10"/>
<path d="M683.985 43.772L690 50.4286L681.393 60.7023" stroke="#FBE04B" stroke-width="2.40789" stroke-miterlimit="10"/>
<path d="M664.57 22.2998L678.463 37.6631L683.985 43.7719" stroke="#FBE04B" stroke-width="2.40789" stroke-miterlimit="10"/>
<path d="M675.096 53.7394L681.671 61.0146" stroke="#FBE04B" stroke-width="2.40789" stroke-miterlimit="10"/>
<path d="M647.221 51.1902L659.792 36.1023L646.647 21.6741L634.077 36.762L647.221 51.1902Z" stroke="#FBE04B" stroke-width="2.40789" stroke-miterlimit="10"/>
<path d="M635.235 44.1903L633.418 42.1992" stroke="#FBE04B" stroke-width="2.40789" stroke-miterlimit="10"/>
<path d="M639.284 30.5117C635.763 34.6824 632.396 38.8826 628.881 42.9944" stroke="#FBE04B" stroke-width="2.40789" stroke-miterlimit="10"/>
<path d="M632.766 47.1534L628.927 42.9415L631.396 39.9784" stroke="#FBE04B" stroke-width="2.40789" stroke-miterlimit="10"/>
<path d="M635.353 44.0549L632.653 47.2948" stroke="#FBE04B" stroke-width="2.40789" stroke-miterlimit="10"/>
<path d="M642.209 52.4847L640.402 50.4877" stroke="#FBE04B" stroke-width="2.40789" stroke-miterlimit="10"/>
<path d="M644.231 54.7172L641.752 57.6685L637.924 53.4448" stroke="#FBE04B" stroke-width="2.40789" stroke-miterlimit="10"/>
<path d="M652.227 45.1857L646.505 52.0073L644.231 54.7171" stroke="#FBE04B" stroke-width="2.40789" stroke-miterlimit="10"/>
<path d="M640.515 50.352L637.806 53.5802" stroke="#FBE04B" stroke-width="2.40789" stroke-miterlimit="10"/>
<path d="M651.334 20.6976L653.146 22.6887" stroke="#FBE04B" stroke-width="2.40789" stroke-miterlimit="10"/>
<path d="M641.419 27.949C644.893 23.7253 648.399 19.6783 651.822 15.4663" stroke="#FBE04B" stroke-width="2.40789" stroke-miterlimit="10"/>
<path d="M649.307 18.4766L651.776 15.5135L655.614 19.7313" stroke="#FBE04B" stroke-width="2.40789" stroke-miterlimit="10"/>
<path d="M653.033 22.8299L655.733 19.59" stroke="#FBE04B" stroke-width="2.40789" stroke-miterlimit="10"/>
<path d="M658.858 28.332L660.68 30.3172" stroke="#FBE04B" stroke-width="2.40789" stroke-miterlimit="10"/>
<path d="M661.316 25.3572L665.165 29.5633L662.707 32.5323" stroke="#FBE04B" stroke-width="2.40789" stroke-miterlimit="10"/>
<path d="M662.707 32.5324L660.449 35.2658L654.773 42.1345" stroke="#FBE04B" stroke-width="2.40789" stroke-miterlimit="10"/>
<path d="M658.745 28.4735L661.434 25.2218" stroke="#FBE04B" stroke-width="2.40789" stroke-miterlimit="10"/>
<path d="M633.207 31.3836L634.947 29.2982" stroke="#FBE04B" stroke-width="2.40789" stroke-miterlimit="10"/>
<path d="M639.525 42.7589C635.845 38.7707 632.319 34.7473 628.65 30.8181" stroke="#FBE04B" stroke-width="2.40789" stroke-miterlimit="10"/>
<path d="M631.273 33.7045L628.691 30.871L632.366 26.4647" stroke="#FBE04B" stroke-width="2.40789" stroke-miterlimit="10"/>
<path d="M635.065 29.4336L632.242 26.335" stroke="#FBE04B" stroke-width="2.40789" stroke-miterlimit="10"/>
<path d="M639.859 22.7417L641.593 20.6563" stroke="#FBE04B" stroke-width="2.40789" stroke-miterlimit="10"/>
<path d="M637.272 19.9199L640.931 15.5018L643.523 18.3235" stroke="#FBE04B" stroke-width="2.40789" stroke-miterlimit="10"/>
<path d="M643.523 18.3235L645.899 20.9155L651.883 27.4307" stroke="#FBE04B" stroke-width="2.40789" stroke-miterlimit="10"/>
<path d="M639.982 22.8773L637.149 19.7905" stroke="#FBE04B" stroke-width="2.40789" stroke-miterlimit="10"/>
<path d="M653.675 49.8572L651.94 51.9426" stroke="#FBE04B" stroke-width="2.40789" stroke-miterlimit="10"/>
<path d="M641.758 45.2092C645.391 49.2503 649.051 53.1147 652.633 57.1499" stroke="#FBE04B" stroke-width="2.40789" stroke-miterlimit="10"/>
<path d="M656.256 52.6907L652.587 57.097L650.005 54.2635" stroke="#FBE04B" stroke-width="2.40789" stroke-miterlimit="10"/>
<path d="M653.557 49.7276L656.379 52.8262" stroke="#FBE04B" stroke-width="2.40789" stroke-miterlimit="10"/>
<path d="M660.906 41.8515L659.161 43.931" stroke="#FBE04B" stroke-width="2.40789" stroke-miterlimit="10"/>
<path d="M662.846 39.5363L665.417 42.3816L661.737 46.7762" stroke="#FBE04B" stroke-width="2.40789" stroke-miterlimit="10"/>
<path d="M654.542 30.3527L660.485 36.9209L662.846 39.5365" stroke="#FBE04B" stroke-width="2.40789" stroke-miterlimit="10"/>
<path d="M659.043 43.7955L661.855 46.9059" stroke="#FBE04B" stroke-width="2.40789" stroke-miterlimit="10"/>
</svg>
