<svg width="145" height="84" viewBox="0 0 145 84" fill="none" xmlns="http://www.w3.org/2000/svg">
<rect width="145" height="84" fill="#1E1E1E"/>
<g id="home 1" clip-path="url(#clip0_0_1)">
<rect width="1440" height="4748" transform="translate(0 -983)" fill="#F3F3F3"/>
<path id="Welcome to Karakalpakstan" d="M152.36 56L143.08 28H148.48L156.76 53.32H154.08L162.68 28H167.48L175.84 53.32H173.24L181.72 28H186.68L177.4 56H171.88L164.24 33.16H165.68L157.92 56H152.36ZM200.075 56.28C197.701 56.28 195.621 55.8133 193.835 54.88C192.075 53.92 190.701 52.6133 189.715 50.96C188.755 49.3067 188.275 47.4267 188.275 45.32C188.275 43.1867 188.741 41.3067 189.675 39.68C190.635 38.0267 191.941 36.7333 193.595 35.8C195.275 34.8667 197.181 34.4 199.315 34.4C201.395 34.4 203.248 34.8533 204.875 35.76C206.501 36.6667 207.781 37.9467 208.715 39.6C209.648 41.2533 210.115 43.2 210.115 45.44C210.115 45.6533 210.101 45.8933 210.075 46.16C210.075 46.4267 210.061 46.68 210.035 46.92H192.235V43.6H207.395L205.435 44.64C205.461 43.4133 205.208 42.3333 204.675 41.4C204.141 40.4667 203.408 39.7333 202.475 39.2C201.568 38.6667 200.515 38.4 199.315 38.4C198.088 38.4 197.008 38.6667 196.075 39.2C195.168 39.7333 194.448 40.48 193.915 41.44C193.408 42.3733 193.155 43.48 193.155 44.76V45.56C193.155 46.84 193.448 47.9733 194.035 48.96C194.621 49.9467 195.448 50.7067 196.515 51.24C197.581 51.7733 198.808 52.04 200.195 52.04C201.395 52.04 202.475 51.8533 203.435 51.48C204.395 51.1067 205.248 50.52 205.995 49.72L208.675 52.8C207.715 53.92 206.501 54.7867 205.035 55.4C203.595 55.9867 201.941 56.28 200.075 56.28ZM216.118 56V26.32H221.118V56H216.118ZM238.68 56.28C236.44 56.28 234.44 55.8133 232.68 54.88C230.947 53.92 229.587 52.6133 228.6 50.96C227.613 49.3067 227.12 47.4267 227.12 45.32C227.12 43.1867 227.613 41.3067 228.6 39.68C229.587 38.0267 230.947 36.7333 232.68 35.8C234.44 34.8667 236.44 34.4 238.68 34.4C240.76 34.4 242.587 34.8267 244.16 35.68C245.76 36.5067 246.973 37.7333 247.8 39.36L243.96 41.6C243.32 40.5867 242.533 39.84 241.6 39.36C240.693 38.88 239.707 38.64 238.64 38.64C237.413 38.64 236.307 38.9067 235.32 39.44C234.333 39.9733 233.56 40.7467 233 41.76C232.44 42.7467 232.16 43.9333 232.16 45.32C232.16 46.7067 232.44 47.9067 233 48.92C233.56 49.9067 234.333 50.6667 235.32 51.2C236.307 51.7333 237.413 52 238.64 52C239.707 52 240.693 51.76 241.6 51.28C242.533 50.8 243.32 50.0533 243.96 49.04L247.8 51.28C246.973 52.88 245.76 54.12 244.16 55C242.587 55.8533 240.76 56.28 238.68 56.28ZM262.61 56.28C260.423 56.28 258.476 55.8133 256.77 54.88C255.063 53.92 253.716 52.6133 252.73 50.96C251.743 49.3067 251.25 47.4267 251.25 45.32C251.25 43.1867 251.743 41.3067 252.73 39.68C253.716 38.0267 255.063 36.7333 256.77 35.8C258.476 34.8667 260.423 34.4 262.61 34.4C264.823 34.4 266.783 34.8667 268.49 35.8C270.223 36.7333 271.57 38.0133 272.53 39.64C273.516 41.2667 274.01 43.16 274.01 45.32C274.01 47.4267 273.516 49.3067 272.53 50.96C271.57 52.6133 270.223 53.92 268.49 54.88C266.783 55.8133 264.823 56.28 262.61 56.28ZM262.61 52C263.836 52 264.93 51.7333 265.89 51.2C266.85 50.6667 267.596 49.8933 268.13 48.88C268.69 47.8667 268.97 46.68 268.97 45.32C268.97 43.9333 268.69 42.7467 268.13 41.76C267.596 40.7467 266.85 39.9733 265.89 39.44C264.93 38.9067 263.85 38.64 262.65 38.64C261.423 38.64 260.33 38.9067 259.37 39.44C258.436 39.9733 257.69 40.7467 257.13 41.76C256.57 42.7467 256.29 43.9333 256.29 45.32C256.29 46.68 256.57 47.8667 257.13 48.88C257.69 49.8933 258.436 50.6667 259.37 51.2C260.33 51.7333 261.41 52 262.61 52ZM306.951 34.4C308.658 34.4 310.164 34.7333 311.471 35.4C312.804 36.0667 313.844 37.0933 314.591 38.48C315.338 39.84 315.711 41.6 315.711 43.76V56H310.711V44.4C310.711 42.5067 310.298 41.0933 309.471 40.16C308.644 39.2267 307.458 38.76 305.911 38.76C304.818 38.76 303.844 39 302.991 39.48C302.164 39.96 301.511 40.6667 301.031 41.6C300.578 42.5333 300.351 43.72 300.351 45.16V56H295.351V44.4C295.351 42.5067 294.938 41.0933 294.111 40.16C293.284 39.2267 292.098 38.76 290.551 38.76C289.458 38.76 288.484 39 287.631 39.48C286.804 39.96 286.151 40.6667 285.671 41.6C285.218 42.5333 284.991 43.72 284.991 45.16V56H279.991V34.64H284.751V40.32L283.911 38.64C284.631 37.2533 285.671 36.2 287.031 35.48C288.418 34.76 289.991 34.4 291.751 34.4C293.751 34.4 295.484 34.8933 296.951 35.88C298.444 36.8667 299.431 38.36 299.911 40.36L297.951 39.68C298.644 38.08 299.791 36.8 301.391 35.84C302.991 34.88 304.844 34.4 306.951 34.4ZM333.379 56.28C331.006 56.28 328.926 55.8133 327.139 54.88C325.379 53.92 324.006 52.6133 323.019 50.96C322.059 49.3067 321.579 47.4267 321.579 45.32C321.579 43.1867 322.046 41.3067 322.979 39.68C323.939 38.0267 325.246 36.7333 326.899 35.8C328.579 34.8667 330.486 34.4 332.619 34.4C334.699 34.4 336.553 34.8533 338.179 35.76C339.806 36.6667 341.086 37.9467 342.019 39.6C342.953 41.2533 343.419 43.2 343.419 45.44C343.419 45.6533 343.406 45.8933 343.379 46.16C343.379 46.4267 343.366 46.68 343.339 46.92H325.539V43.6H340.699L338.739 44.64C338.766 43.4133 338.513 42.3333 337.979 41.4C337.446 40.4667 336.713 39.7333 335.779 39.2C334.873 38.6667 333.819 38.4 332.619 38.4C331.393 38.4 330.313 38.6667 329.379 39.2C328.473 39.7333 327.753 40.48 327.219 41.44C326.713 42.3733 326.459 43.48 326.459 44.76V45.56C326.459 46.84 326.753 47.9733 327.339 48.96C327.926 49.9467 328.753 50.7067 329.819 51.24C330.886 51.7733 332.113 52.04 333.499 52.04C334.699 52.04 335.779 51.8533 336.739 51.48C337.699 51.1067 338.553 50.52 339.299 49.72L341.979 52.8C341.019 53.92 339.806 54.7867 338.339 55.4C336.899 55.9867 335.246 56.28 333.379 56.28ZM369.717 56.28C367.37 56.28 365.557 55.68 364.277 54.48C362.997 53.2533 362.357 51.4533 362.357 49.08V29.92H367.357V48.96C367.357 49.9733 367.61 50.76 368.117 51.32C368.65 51.88 369.384 52.16 370.317 52.16C371.437 52.16 372.37 51.8667 373.117 51.28L374.517 54.84C373.93 55.32 373.21 55.68 372.357 55.92C371.504 56.16 370.624 56.28 369.717 56.28ZM358.837 38.8V34.8H373.077V38.8H358.837ZM388.727 56.28C386.54 56.28 384.594 55.8133 382.887 54.88C381.18 53.92 379.834 52.6133 378.847 50.96C377.86 49.3067 377.367 47.4267 377.367 45.32C377.367 43.1867 377.86 41.3067 378.847 39.68C379.834 38.0267 381.18 36.7333 382.887 35.8C384.594 34.8667 386.54 34.4 388.727 34.4C390.94 34.4 392.9 34.8667 394.607 35.8C396.34 36.7333 397.687 38.0133 398.647 39.64C399.634 41.2667 400.127 43.16 400.127 45.32C400.127 47.4267 399.634 49.3067 398.647 50.96C397.687 52.6133 396.34 53.92 394.607 54.88C392.9 55.8133 390.94 56.28 388.727 56.28ZM388.727 52C389.954 52 391.047 51.7333 392.007 51.2C392.967 50.6667 393.714 49.8933 394.247 48.88C394.807 47.8667 395.087 46.68 395.087 45.32C395.087 43.9333 394.807 42.7467 394.247 41.76C393.714 40.7467 392.967 39.9733 392.007 39.44C391.047 38.9067 389.967 38.64 388.767 38.64C387.54 38.64 386.447 38.9067 385.487 39.44C384.554 39.9733 383.807 40.7467 383.247 41.76C382.687 42.7467 382.407 43.9333 382.407 45.32C382.407 46.68 382.687 47.8667 383.247 48.88C383.807 49.8933 384.554 50.6667 385.487 51.2C386.447 51.7333 387.527 52 388.727 52ZM423.483 49.4L423.203 43.24L437.883 28H443.723L431.523 40.96L428.643 44.12L423.483 49.4ZM418.843 56V28H424.043V56H418.843ZM438.363 56L427.643 43.24L431.083 39.44L444.443 56H438.363ZM461.356 56V51.68L461.076 50.76V43.2C461.076 41.7333 460.636 40.6 459.756 39.8C458.876 38.9733 457.542 38.56 455.756 38.56C454.556 38.56 453.369 38.7467 452.196 39.12C451.049 39.4933 450.076 40.0133 449.276 40.68L447.316 37.04C448.462 36.16 449.822 35.5067 451.396 35.08C452.996 34.6267 454.649 34.4 456.356 34.4C459.449 34.4 461.836 35.1467 463.516 36.64C465.222 38.1067 466.076 40.3867 466.076 43.48V56H461.356ZM454.636 56.28C453.036 56.28 451.636 56.0133 450.436 55.48C449.236 54.92 448.302 54.16 447.636 53.2C446.996 52.2133 446.676 51.1067 446.676 49.88C446.676 48.68 446.956 47.6 447.516 46.64C448.102 45.68 449.049 44.92 450.356 44.36C451.662 43.8 453.396 43.52 455.556 43.52H461.756V46.84H455.916C454.209 46.84 453.062 47.12 452.476 47.68C451.889 48.2133 451.596 48.88 451.596 49.68C451.596 50.5867 451.956 51.3067 452.676 51.84C453.396 52.3733 454.396 52.64 455.676 52.64C456.902 52.64 457.996 52.36 458.956 51.8C459.942 51.24 460.649 50.4133 461.076 49.32L461.916 52.32C461.436 53.5733 460.569 54.5467 459.316 55.24C458.089 55.9333 456.529 56.28 454.636 56.28ZM473.693 56V34.64H478.453V40.52L477.893 38.8C478.533 37.36 479.533 36.2667 480.893 35.52C482.279 34.7733 483.999 34.4 486.053 34.4V39.16C485.839 39.1067 485.639 39.08 485.453 39.08C485.266 39.0533 485.079 39.04 484.893 39.04C482.999 39.04 481.493 39.6 480.373 40.72C479.253 41.8133 478.693 43.4533 478.693 45.64V56H473.693ZM503.131 56V51.68L502.851 50.76V43.2C502.851 41.7333 502.411 40.6 501.531 39.8C500.651 38.9733 499.317 38.56 497.531 38.56C496.331 38.56 495.144 38.7467 493.971 39.12C492.824 39.4933 491.851 40.0133 491.051 40.68L489.091 37.04C490.237 36.16 491.597 35.5067 493.171 35.08C494.771 34.6267 496.424 34.4 498.131 34.4C501.224 34.4 503.611 35.1467 505.291 36.64C506.997 38.1067 507.851 40.3867 507.851 43.48V56H503.131ZM496.411 56.28C494.811 56.28 493.411 56.0133 492.211 55.48C491.011 54.92 490.077 54.16 489.411 53.2C488.771 52.2133 488.451 51.1067 488.451 49.88C488.451 48.68 488.731 47.6 489.291 46.64C489.877 45.68 490.824 44.92 492.131 44.36C493.437 43.8 495.171 43.52 497.331 43.52H503.531V46.84H497.691C495.984 46.84 494.837 47.12 494.251 47.68C493.664 48.2133 493.371 48.88 493.371 49.68C493.371 50.5867 493.731 51.3067 494.451 51.84C495.171 52.3733 496.171 52.64 497.451 52.64C498.677 52.64 499.771 52.36 500.731 51.8C501.717 51.24 502.424 50.4133 502.851 49.32L503.691 52.32C503.211 53.5733 502.344 54.5467 501.091 55.24C499.864 55.9333 498.304 56.28 496.411 56.28ZM519.548 51.24L519.668 44.96L530.828 34.64H536.828L527.348 44.16L524.708 46.36L519.548 51.24ZM515.468 56V26.32H520.468V56H515.468ZM531.588 56L523.788 46.36L526.948 42.36L537.668 56H531.588ZM554.867 56V51.68L554.587 50.76V43.2C554.587 41.7333 554.147 40.6 553.267 39.8C552.387 38.9733 551.053 38.56 549.267 38.56C548.067 38.56 546.88 38.7467 545.707 39.12C544.56 39.4933 543.587 40.0133 542.787 40.68L540.827 37.04C541.973 36.16 543.333 35.5067 544.907 35.08C546.507 34.6267 548.16 34.4 549.867 34.4C552.96 34.4 555.347 35.1467 557.027 36.64C558.733 38.1067 559.587 40.3867 559.587 43.48V56H554.867ZM548.147 56.28C546.547 56.28 545.147 56.0133 543.947 55.48C542.747 54.92 541.813 54.16 541.147 53.2C540.507 52.2133 540.187 51.1067 540.187 49.88C540.187 48.68 540.467 47.6 541.027 46.64C541.613 45.68 542.56 44.92 543.867 44.36C545.173 43.8 546.907 43.52 549.067 43.52H555.267V46.84H549.427C547.72 46.84 546.573 47.12 545.987 47.68C545.4 48.2133 545.107 48.88 545.107 49.68C545.107 50.5867 545.467 51.3067 546.187 51.84C546.907 52.3733 547.907 52.64 549.187 52.64C550.413 52.64 551.507 52.36 552.467 51.8C553.453 51.24 554.16 50.4133 554.587 49.32L555.427 52.32C554.947 53.5733 554.08 54.5467 552.827 55.24C551.6 55.9333 550.04 56.28 548.147 56.28ZM567.203 56V26.32H572.203V56H567.203ZM591.806 56.28C590.073 56.28 588.486 55.88 587.046 55.08C585.633 54.28 584.499 53.08 583.646 51.48C582.819 49.8533 582.406 47.8 582.406 45.32C582.406 42.8133 582.806 40.76 583.606 39.16C584.433 37.56 585.553 36.3733 586.966 35.6C588.379 34.8 589.993 34.4 591.806 34.4C593.913 34.4 595.766 34.8533 597.366 35.76C598.993 36.6667 600.273 37.9333 601.206 39.56C602.166 41.1867 602.646 43.1067 602.646 45.32C602.646 47.5333 602.166 49.4667 601.206 51.12C600.273 52.7467 598.993 54.0133 597.366 54.92C595.766 55.8267 593.913 56.28 591.806 56.28ZM579.966 63.76V34.64H584.726V39.68L584.566 45.36L584.966 51.04V63.76H579.966ZM591.246 52C592.446 52 593.513 51.7333 594.446 51.2C595.406 50.6667 596.166 49.8933 596.726 48.88C597.286 47.8667 597.566 46.68 597.566 45.32C597.566 43.9333 597.286 42.7467 596.726 41.76C596.166 40.7467 595.406 39.9733 594.446 39.44C593.513 38.9067 592.446 38.64 591.246 38.64C590.046 38.64 588.966 38.9067 588.006 39.44C587.046 39.9733 586.286 40.7467 585.726 41.76C585.166 42.7467 584.886 43.9333 584.886 45.32C584.886 46.68 585.166 47.8667 585.726 48.88C586.286 49.8933 587.046 50.6667 588.006 51.2C588.966 51.7333 590.046 52 591.246 52ZM621.474 56V51.68L621.194 50.76V43.2C621.194 41.7333 620.754 40.6 619.874 39.8C618.994 38.9733 617.661 38.56 615.874 38.56C614.674 38.56 613.488 38.7467 612.314 39.12C611.168 39.4933 610.194 40.0133 609.394 40.68L607.434 37.04C608.581 36.16 609.941 35.5067 611.514 35.08C613.114 34.6267 614.768 34.4 616.474 34.4C619.568 34.4 621.954 35.1467 623.634 36.64C625.341 38.1067 626.194 40.3867 626.194 43.48V56H621.474ZM614.754 56.28C613.154 56.28 611.754 56.0133 610.554 55.48C609.354 54.92 608.421 54.16 607.754 53.2C607.114 52.2133 606.794 51.1067 606.794 49.88C606.794 48.68 607.074 47.6 607.634 46.64C608.221 45.68 609.168 44.92 610.474 44.36C611.781 43.8 613.514 43.52 615.674 43.52H621.874V46.84H616.034C614.328 46.84 613.181 47.12 612.594 47.68C612.008 48.2133 611.714 48.88 611.714 49.68C611.714 50.5867 612.074 51.3067 612.794 51.84C613.514 52.3733 614.514 52.64 615.794 52.64C617.021 52.64 618.114 52.36 619.074 51.8C620.061 51.24 620.768 50.4133 621.194 49.32L622.034 52.32C621.554 53.5733 620.688 54.5467 619.434 55.24C618.208 55.9333 616.648 56.28 614.754 56.28ZM637.891 51.24L638.011 44.96L649.171 34.64H655.171L645.691 44.16L643.051 46.36L637.891 51.24ZM633.811 56V26.32H638.811V56H633.811ZM649.931 56L642.131 46.36L645.291 42.36L656.011 56H649.931ZM666.377 56.28C664.59 56.28 662.87 56.0533 661.217 55.6C659.59 55.12 658.297 54.5467 657.337 53.88L659.257 50.08C660.217 50.6933 661.364 51.2 662.697 51.6C664.03 52 665.364 52.2 666.697 52.2C668.27 52.2 669.404 51.9867 670.097 51.56C670.817 51.1333 671.177 50.56 671.177 49.84C671.177 49.2533 670.937 48.8133 670.457 48.52C669.977 48.2 669.35 47.96 668.577 47.8C667.804 47.64 666.937 47.4933 665.977 47.36C665.044 47.2267 664.097 47.0533 663.137 46.84C662.204 46.6 661.35 46.2667 660.577 45.84C659.804 45.3867 659.177 44.7867 658.697 44.04C658.217 43.2933 657.977 42.3067 657.977 41.08C657.977 39.72 658.364 38.5467 659.137 37.56C659.91 36.5467 660.99 35.7733 662.377 35.24C663.79 34.68 665.457 34.4 667.377 34.4C668.817 34.4 670.27 34.56 671.737 34.88C673.204 35.2 674.417 35.6533 675.377 36.24L673.457 40.04C672.444 39.4267 671.417 39.0133 670.377 38.8C669.364 38.56 668.35 38.44 667.337 38.44C665.817 38.44 664.684 38.6667 663.937 39.12C663.217 39.5733 662.857 40.1467 662.857 40.84C662.857 41.48 663.097 41.96 663.577 42.28C664.057 42.6 664.684 42.8533 665.457 43.04C666.23 43.2267 667.084 43.3867 668.017 43.52C668.977 43.6267 669.924 43.8 670.857 44.04C671.79 44.28 672.644 44.6133 673.417 45.04C674.217 45.44 674.857 46.0133 675.337 46.76C675.817 47.5067 676.057 48.48 676.057 49.68C676.057 51.0133 675.657 52.1733 674.857 53.16C674.084 54.1467 672.977 54.92 671.537 55.48C670.097 56.0133 668.377 56.28 666.377 56.28ZM689.603 56.28C687.256 56.28 685.443 55.68 684.163 54.48C682.883 53.2533 682.243 51.4533 682.243 49.08V29.92H687.243V48.96C687.243 49.9733 687.496 50.76 688.003 51.32C688.536 51.88 689.27 52.16 690.203 52.16C691.323 52.16 692.256 51.8667 693.003 51.28L694.403 54.84C693.816 55.32 693.096 55.68 692.243 55.92C691.39 56.16 690.51 56.28 689.603 56.28ZM678.723 38.8V34.8H692.963V38.8H678.723ZM712.876 56V51.68L712.596 50.76V43.2C712.596 41.7333 712.156 40.6 711.276 39.8C710.396 38.9733 709.063 38.56 707.276 38.56C706.076 38.56 704.889 38.7467 703.716 39.12C702.569 39.4933 701.596 40.0133 700.796 40.68L698.836 37.04C699.983 36.16 701.343 35.5067 702.916 35.08C704.516 34.6267 706.169 34.4 707.876 34.4C710.969 34.4 713.356 35.1467 715.036 36.64C716.743 38.1067 717.596 40.3867 717.596 43.48V56H712.876ZM706.156 56.28C704.556 56.28 703.156 56.0133 701.956 55.48C700.756 54.92 699.823 54.16 699.156 53.2C698.516 52.2133 698.196 51.1067 698.196 49.88C698.196 48.68 698.476 47.6 699.036 46.64C699.623 45.68 700.569 44.92 701.876 44.36C703.183 43.8 704.916 43.52 707.076 43.52H713.276V46.84H707.436C705.729 46.84 704.583 47.12 703.996 47.68C703.409 48.2133 703.116 48.88 703.116 49.68C703.116 50.5867 703.476 51.3067 704.196 51.84C704.916 52.3733 705.916 52.64 707.196 52.64C708.423 52.64 709.516 52.36 710.476 51.8C711.463 51.24 712.169 50.4133 712.596 49.32L713.436 52.32C712.956 53.5733 712.089 54.5467 710.836 55.24C709.609 55.9333 708.049 56.28 706.156 56.28ZM737.333 34.4C739.039 34.4 740.559 34.7333 741.893 35.4C743.253 36.0667 744.319 37.0933 745.093 38.48C745.866 39.84 746.253 41.6 746.253 43.76V56H741.253V44.4C741.253 42.5067 740.799 41.0933 739.893 40.16C739.013 39.2267 737.773 38.76 736.173 38.76C734.999 38.76 733.959 39 733.053 39.48C732.146 39.96 731.439 40.68 730.933 41.64C730.453 42.5733 730.213 43.76 730.213 45.2V56H725.213V34.64H729.973V40.4L729.133 38.64C729.879 37.28 730.959 36.24 732.373 35.52C733.813 34.7733 735.466 34.4 737.333 34.4Z" fill="black"/>
<g id="Frame 11">
<g id="Group 13">
<g id="Group">
<path id="Vector" d="M100.517 82.8354L100.48 82.8905" stroke="#FBE04B" stroke-width="2.40789" stroke-miterlimit="10"/>
<path id="Vector_2" d="M100.341 82.8561L100.321 82.8354L95.6401 76.8064C95.5272 76.6614 95.4194 76.5302 95.3065 76.3852C95.3014 76.3783 95.2962 76.3644 95.286 76.3575L94.5521 75.4114C94.4186 75.2388 94.2749 75.0592 94.1415 74.8796L90.1076 69.7001C90.0512 69.631 89.9998 69.5551 89.9485 69.4929C89.4507 68.8576 88.958 68.2153 88.4653 67.573C88.414 67.5109 88.3627 67.4418 88.3216 67.3866L82.4401 59.8106C81.6395 58.7885 80.8389 57.7802 80.0485 56.7512C78.3549 54.5827 76.6716 52.4211 74.9985 50.2457L69.6969 43.4156L69.6713 43.388L69.6918 43.3535L74.6751 36.3438C74.6957 36.3162 74.7162 36.2886 74.7316 36.2679L80.3924 28.3052C80.5566 28.0704 80.726 27.8287 80.9005 27.587L86.8795 19.1892C87.2079 18.7334 87.5261 18.2638 87.8597 17.808C87.8802 17.7734 87.9008 17.7458 87.9264 17.7113L88.1676 17.3729L93.7361 9.5276C93.8233 9.40329 93.9054 9.29279 93.9927 9.16848L97.5031 4.23756L98.976 2.16574L98.9966 2.13121L99.0479 2.06215L99.0889 2L99.1146 2.02762L99.171 2.10359L99.2172 2.16574L109.738 15.7016L111.796 18.3536L119.869 28.7403L120.577 29.6519L129.8 41.5234L129.841 41.5717L129.805 41.627L121.024 53.9819L120.49 54.7278L110.216 69.196L109.974 69.5343L109.928 69.6034H109.923L109.636 70.004L109.579 70.0868L109.456 70.2595L109.369 70.3838" stroke="#FBE04B" stroke-width="2.40789" stroke-miterlimit="10"/>
<g id="Group_2">
<path id="Vector_3" d="M72.4118 63.7401L68.1624 58.2775" stroke="#FBE04B" stroke-width="2.40789" stroke-miterlimit="10"/>
<path id="Vector_4" d="M81.886 26.2197C73.654 37.6562 65.7761 49.1755 57.5594 60.4531" stroke="#FBE04B" stroke-width="2.40789" stroke-miterlimit="10"/>
<path id="Vector_5" d="M66.6381 71.8685L57.6567 60.3146L63.4304 52.1862" stroke="#FBE04B" stroke-width="2.40789" stroke-miterlimit="10"/>
<path id="Vector_6" d="M72.6788 63.3605L66.3662 72.2417" stroke="#FBE04B" stroke-width="2.40789" stroke-miterlimit="10"/>
<path id="Vector_7" d="M112.156 66.4752L110.2 69.203L109.959 69.5415L109.913 69.6105L109.569 70.087L109.441 70.2666L109.359 70.3909L100.397 82.8915" stroke="#FBE04B" stroke-width="2.40789" stroke-miterlimit="10"/>
</g>
<g id="Group_3">
<path id="Vector_8" d="M99.1045 2.04138C99.0891 2.0621 99.0737 2.08282 99.0583 2.10353C99.0429 2.13116 99.0224 2.15878 99.007 2.1795C98.9967 2.19331 98.9916 2.20021 98.9865 2.20712C98.6016 2.74579 98.2166 3.27756 97.8317 3.81623C96.5487 5.6049 95.2656 7.39357 93.9775 9.18915C93.8902 9.31346 93.8081 9.42396 93.7208 9.54826C91.8579 12.1449 90.0052 14.7623 88.1524 17.3935C88.0395 17.5386 87.942 17.6836 87.8445 17.8286C87.5109 18.2844 87.1927 18.754 86.8643 19.2098" stroke="#FBE04B" stroke-width="2.40789" stroke-miterlimit="10"/>
<path id="Vector_9" d="M127.665 20.2599L131.92 25.7019" stroke="#FBE04B" stroke-width="2.40789" stroke-miterlimit="10"/>
<path id="Vector_10" d="M132.933 12.6437L141.93 24.163L136.182 32.319" stroke="#FBE04B" stroke-width="2.40789" stroke-miterlimit="10"/>
<path id="Vector_11" d="M136.667 31.779L131.386 39.2652L118.109 58.0911" stroke="#FBE04B" stroke-width="2.40789" stroke-miterlimit="10"/>
<path id="Vector_12" d="M127.398 20.6395L133.685 11.7238" stroke="#FBE04B" stroke-width="2.40789" stroke-miterlimit="10"/>
</g>
<path id="Vector_13" d="M67.6698 28.616L71.7294 22.9047" stroke="#FBE04B" stroke-width="2.40789" stroke-miterlimit="10"/>
<path id="Vector_14" d="M82.4402 59.8176C73.8336 48.8853 65.5861 37.8563 57 27.0829" stroke="#FBE04B" stroke-width="2.40789" stroke-miterlimit="10"/>
<path id="Vector_15" d="M63.1482 34.9833L57.1077 27.2139L65.6938 15.1353" stroke="#FBE04B" stroke-width="2.40789" stroke-miterlimit="10"/>
<path id="Vector_16" d="M72.0117 23.2707L65.4117 14.7762" stroke="#FBE04B" stroke-width="2.40789" stroke-miterlimit="10"/>
<path id="Vector_17" d="M99.0377 2.0755L99.0583 2.10312L99.1199 2.17909L99.1609 2.23434L109.723 15.715L111.345 17.7868" stroke="#FBE04B" stroke-width="2.40789" stroke-miterlimit="10"/>
<g id="Group_4">
<path id="Vector_18" d="M100.367 82.8278C100.362 82.821 100.352 82.8143 100.346 82.8008" stroke="#FBE04B" stroke-width="2.40789" stroke-miterlimit="10"/>
<path id="Vector_19" d="M95.6403 76.8065C95.5274 76.6615 95.4197 76.5303 95.3068 76.3852C95.3016 76.3783 95.2965 76.3645 95.2862 76.3576C95.2708 76.3369 95.2554 76.3162 95.24 76.2885C95.0091 75.9985 94.7833 75.7015 94.5523 75.4115C94.4189 75.2388 94.2752 75.0592 94.1417 74.8797C92.7971 73.167 91.4474 71.4405 90.1079 69.7001C90.0514 69.6311 90.0001 69.5551 89.9488 69.493C89.4509 68.8576 88.9582 68.2154 88.4655 67.5731C88.4142 67.5109 88.3629 67.4419 88.3218 67.3866C88.1011 67.0966 87.8805 66.8134 87.6598 66.5234" stroke="#FBE04B" stroke-width="2.40789" stroke-miterlimit="10"/>
<path id="Vector_20" d="M132.448 57.3246L128.378 63.0221" stroke="#FBE04B" stroke-width="2.40789" stroke-miterlimit="10"/>
<path id="Vector_21" d="M136.985 50.9708L143 58.7747L134.393 70.8188" stroke="#FBE04B" stroke-width="2.40789" stroke-miterlimit="10"/>
<path id="Vector_22" d="M117.57 25.7982L131.463 43.8091L136.985 50.9707" stroke="#FBE04B" stroke-width="2.40789" stroke-miterlimit="10"/>
<path id="Vector_23" d="M128.096 62.656L134.671 71.185" stroke="#FBE04B" stroke-width="2.40789" stroke-miterlimit="10"/>
</g>
</g>
<g id="Group_5">
<path id="Vector_24" d="M100.221 59.6676L112.792 41.9795L99.6467 25.0648L87.0767 42.7529L100.221 59.6676Z" stroke="#FBE04B" stroke-width="2.40789" stroke-miterlimit="10"/>
<g id="Group_6">
<path id="Vector_25" d="M88.2346 51.4613L86.4178 49.1271" stroke="#FBE04B" stroke-width="2.40789" stroke-miterlimit="10"/>
<path id="Vector_26" d="M92.2837 35.4254C88.763 40.3149 85.3963 45.2389 81.8807 50.0594" stroke="#FBE04B" stroke-width="2.40789" stroke-miterlimit="10"/>
<path id="Vector_27" d="M85.7661 54.935L81.9272 49.9972L84.3958 46.5234" stroke="#FBE04B" stroke-width="2.40789" stroke-miterlimit="10"/>
<path id="Vector_28" d="M88.3526 51.3026L85.6531 55.1009" stroke="#FBE04B" stroke-width="2.40789" stroke-miterlimit="10"/>
<path id="Vector_29" d="M95.209 61.1852L93.4025 58.844" stroke="#FBE04B" stroke-width="2.40789" stroke-miterlimit="10"/>
<path id="Vector_30" d="M97.2312 63.8024L94.7523 67.2624L90.9237 62.3107" stroke="#FBE04B" stroke-width="2.40789" stroke-miterlimit="10"/>
<path id="Vector_31" d="M105.227 52.6283L99.5048 60.6255L97.2312 63.8023" stroke="#FBE04B" stroke-width="2.40789" stroke-miterlimit="10"/>
<path id="Vector_32" d="M93.5154 58.6849L90.8057 62.4694" stroke="#FBE04B" stroke-width="2.40789" stroke-miterlimit="10"/>
</g>
<g id="Group_7">
<path id="Vector_33" d="M104.334 23.9199L106.146 26.2542" stroke="#FBE04B" stroke-width="2.40789" stroke-miterlimit="10"/>
<path id="Vector_34" d="M94.4188 32.421C97.8933 27.4694 101.399 22.7249 104.822 17.7871" stroke="#FBE04B" stroke-width="2.40789" stroke-miterlimit="10"/>
<path id="Vector_35" d="M102.307 21.3159L104.776 17.8422L108.614 22.7869" stroke="#FBE04B" stroke-width="2.40789" stroke-miterlimit="10"/>
<path id="Vector_36" d="M106.033 26.4197L108.733 22.6214" stroke="#FBE04B" stroke-width="2.40789" stroke-miterlimit="10"/>
<path id="Vector_37" d="M111.858 32.8701L113.68 35.1974" stroke="#FBE04B" stroke-width="2.40789" stroke-miterlimit="10"/>
<path id="Vector_38" d="M114.316 29.3826L118.165 34.3136L115.707 37.7942" stroke="#FBE04B" stroke-width="2.40789" stroke-miterlimit="10"/>
<path id="Vector_39" d="M115.707 37.7943L113.449 40.9987L107.773 49.0512" stroke="#FBE04B" stroke-width="2.40789" stroke-miterlimit="10"/>
<path id="Vector_40" d="M111.745 33.036L114.434 29.2238" stroke="#FBE04B" stroke-width="2.40789" stroke-miterlimit="10"/>
</g>
<path id="Vector_41" d="M86.2073 36.4474L87.9471 34.0027" stroke="#FBE04B" stroke-width="2.40789" stroke-miterlimit="10"/>
<path id="Vector_42" d="M92.5249 49.7832C88.8451 45.1078 85.3193 40.3909 81.6498 35.7846" stroke="#FBE04B" stroke-width="2.40789" stroke-miterlimit="10"/>
<path id="Vector_43" d="M84.2729 39.1684L81.6914 35.8466L85.3661 30.6808" stroke="#FBE04B" stroke-width="2.40789" stroke-miterlimit="10"/>
<path id="Vector_44" d="M88.0651 34.1615L85.2424 30.5289" stroke="#FBE04B" stroke-width="2.40789" stroke-miterlimit="10"/>
<path id="Vector_45" d="M92.8588 26.3163L94.5934 23.8715" stroke="#FBE04B" stroke-width="2.40789" stroke-miterlimit="10"/>
<path id="Vector_46" d="M90.272 23.008L93.9312 17.8285L96.523 21.1365" stroke="#FBE04B" stroke-width="2.40789" stroke-miterlimit="10"/>
<path id="Vector_47" d="M96.5229 21.1367L98.8992 24.1753L104.883 31.8134" stroke="#FBE04B" stroke-width="2.40789" stroke-miterlimit="10"/>
<path id="Vector_48" d="M92.9819 26.4752L90.1489 22.8564" stroke="#FBE04B" stroke-width="2.40789" stroke-miterlimit="10"/>
<g id="Group_8">
<path id="Vector_49" d="M106.675 58.1049L104.94 60.5496" stroke="#FBE04B" stroke-width="2.40789" stroke-miterlimit="10"/>
<path id="Vector_50" d="M94.7577 52.6558C98.3913 57.3934 102.051 61.9237 105.633 66.6544" stroke="#FBE04B" stroke-width="2.40789" stroke-miterlimit="10"/>
<path id="Vector_51" d="M109.256 61.4266L105.587 66.5923L103.005 63.2705" stroke="#FBE04B" stroke-width="2.40789" stroke-miterlimit="10"/>
<path id="Vector_52" d="M106.557 57.9529L109.379 61.5855" stroke="#FBE04B" stroke-width="2.40789" stroke-miterlimit="10"/>
<path id="Vector_53" d="M113.906 48.7195L112.161 51.1573" stroke="#FBE04B" stroke-width="2.40789" stroke-miterlimit="10"/>
<path id="Vector_54" d="M115.846 46.0053L118.417 49.3409L114.737 54.4929" stroke="#FBE04B" stroke-width="2.40789" stroke-miterlimit="10"/>
<path id="Vector_55" d="M107.542 35.239L113.485 42.9392L115.846 46.0055" stroke="#FBE04B" stroke-width="2.40789" stroke-miterlimit="10"/>
<path id="Vector_56" d="M112.043 50.9985L114.855 54.6449" stroke="#FBE04B" stroke-width="2.40789" stroke-miterlimit="10"/>
</g>
</g>
</g>
<g id="Group 12">
<g id="Group_9">
<path id="Vector_57" d="M14.5166 82.8354L14.4799 82.8905" stroke="#FBE04B" stroke-width="2.40789" stroke-miterlimit="10"/>
<path id="Vector_58" d="M14.3412 82.8561L14.3206 82.8354L9.6401 76.8064C9.52719 76.6614 9.41943 76.5302 9.30652 76.3852C9.30139 76.3783 9.29624 76.3644 9.28597 76.3575L8.55208 75.4114C8.41864 75.2388 8.27494 75.0592 8.14151 74.8796L4.10762 69.7001C4.05117 69.631 3.99984 69.5551 3.94852 69.4929C3.4507 68.8576 2.958 68.2153 2.46531 67.573C2.41399 67.5109 2.36266 67.4418 2.3216 67.3866L-3.55986 59.8106C-4.36048 58.7885 -5.16112 57.7802 -5.95148 56.7512C-7.6451 54.5827 -9.32844 52.4211 -11.0015 50.2457L-16.3031 43.4156L-16.3287 43.388L-16.3082 43.3535L-11.3249 36.3438C-11.3043 36.3162 -11.2838 36.2886 -11.2684 36.2679L-5.6076 28.3052C-5.44337 28.0704 -5.27401 27.8287 -5.09952 27.587L0.879456 19.1892C1.20792 18.7334 1.52613 18.2638 1.85972 17.808C1.88025 17.7734 1.90078 17.7458 1.92644 17.7113L2.16764 17.3729L7.73608 9.5276C7.82332 9.40329 7.90544 9.29279 7.99269 9.16848L11.5031 4.23756L12.976 2.16574L12.9966 2.13121L13.0479 2.06215L13.0889 2L13.1146 2.02762L13.171 2.10359L13.2172 2.16574L23.7382 15.7016L25.7962 18.3536L33.8691 28.7403L34.5774 29.6519L43.7999 41.5234L43.841 41.5717L43.805 41.627L35.0239 53.9819L34.4901 54.7278L24.2155 69.196L23.9743 69.5343L23.9281 69.6034H23.923L23.6356 70.004L23.5791 70.0868L23.456 70.2595L23.3687 70.3838" stroke="#FBE04B" stroke-width="2.40789" stroke-miterlimit="10"/>
<g id="Group_10">
<path id="Vector_59" d="M26.1557 66.4752L24.2003 69.203L23.9591 69.5415L23.9129 69.6105L23.5691 70.087L23.4408 70.2666L23.3587 70.3909L14.3972 82.8915" stroke="#FBE04B" stroke-width="2.40789" stroke-miterlimit="10"/>
</g>
<g id="Group_11">
<path id="Vector_60" d="M13.1045 2.04138C13.0891 2.0621 13.0737 2.08282 13.0583 2.10353C13.0429 2.13116 13.0224 2.15878 13.007 2.1795C12.9967 2.19331 12.9916 2.20021 12.9865 2.20712C12.6016 2.74579 12.2166 3.27756 11.8317 3.81623C10.5487 5.6049 9.26563 7.39357 7.97746 9.18915C7.89021 9.31346 7.80809 9.42396 7.72085 9.54826C5.85786 12.1449 4.00516 14.7623 2.15244 17.3935C2.03953 17.5386 1.942 17.6836 1.84449 17.8286C1.5109 18.2844 1.19272 18.754 0.864258 19.2098" stroke="#FBE04B" stroke-width="2.40789" stroke-miterlimit="10"/>
<path id="Vector_61" d="M41.665 20.2599L45.9196 25.7019" stroke="#FBE04B" stroke-width="2.40789" stroke-miterlimit="10"/>
<path id="Vector_62" d="M46.9332 12.6437L55.93 24.163L50.1819 32.319" stroke="#FBE04B" stroke-width="2.40789" stroke-miterlimit="10"/>
<path id="Vector_63" d="M50.6668 31.779L45.3858 39.2652L32.1089 58.0911" stroke="#FBE04B" stroke-width="2.40789" stroke-miterlimit="10"/>
<path id="Vector_64" d="M41.3982 20.6395L47.6851 11.7238" stroke="#FBE04B" stroke-width="2.40789" stroke-miterlimit="10"/>
</g>
<path id="Vector_65" d="M13.0377 2.0755L13.0583 2.10312L13.1199 2.17909L13.1609 2.23434L23.7229 15.715L25.3447 17.7868" stroke="#FBE04B" stroke-width="2.40789" stroke-miterlimit="10"/>
<g id="Group_12">
<path id="Vector_66" d="M14.3674 82.8278C14.3622 82.821 14.3517 82.8143 14.3464 82.8008" stroke="#FBE04B" stroke-width="2.40789" stroke-miterlimit="10"/>
<path id="Vector_67" d="M9.64033 76.8065C9.52742 76.6615 9.41966 76.5303 9.30675 76.3852C9.30162 76.3783 9.29647 76.3645 9.28621 76.3576C9.27081 76.3369 9.25543 76.3162 9.24003 76.2885C9.00909 75.9985 8.78326 75.7015 8.55231 75.4115C8.41887 75.2388 8.27518 75.0592 8.14174 74.8797C6.79711 73.167 5.44735 71.4405 4.10785 69.7001C4.0514 69.6311 4.00008 69.5551 3.94875 69.493C3.45093 68.8576 2.95824 68.2154 2.46555 67.5731C2.41422 67.5109 2.36289 67.4419 2.32183 67.3866C2.10115 67.0966 1.88047 66.8134 1.65979 66.5234" stroke="#FBE04B" stroke-width="2.40789" stroke-miterlimit="10"/>
<path id="Vector_68" d="M46.4482 57.3246L42.3784 63.0221" stroke="#FBE04B" stroke-width="2.40789" stroke-miterlimit="10"/>
<path id="Vector_69" d="M50.9852 50.9708L57.0001 58.7747L48.3934 70.8188" stroke="#FBE04B" stroke-width="2.40789" stroke-miterlimit="10"/>
<path id="Vector_70" d="M31.5699 25.7982L45.4627 43.8091L50.985 50.9707" stroke="#FBE04B" stroke-width="2.40789" stroke-miterlimit="10"/>
<path id="Vector_71" d="M42.0962 62.656L48.6705 71.185" stroke="#FBE04B" stroke-width="2.40789" stroke-miterlimit="10"/>
</g>
</g>
<g id="Group_13">
<path id="Vector_72" d="M14.2215 59.6676L26.7915 41.9795L13.6467 25.0648L1.07666 42.7529L14.2215 59.6676Z" stroke="#FBE04B" stroke-width="2.40789" stroke-miterlimit="10"/>
<g id="Group_14">
<path id="Vector_73" d="M2.23463 51.4613L0.417847 49.1271" stroke="#FBE04B" stroke-width="2.40789" stroke-miterlimit="10"/>
<path id="Vector_74" d="M6.28368 35.4254C2.763 40.3149 -0.603718 45.2389 -4.11926 50.0594" stroke="#FBE04B" stroke-width="2.40789" stroke-miterlimit="10"/>
<path id="Vector_75" d="M-0.233892 54.935L-4.07275 49.9972L-1.60418 46.5234" stroke="#FBE04B" stroke-width="2.40789" stroke-miterlimit="10"/>
<path id="Vector_76" d="M2.35258 51.3026L-0.346924 55.1009" stroke="#FBE04B" stroke-width="2.40789" stroke-miterlimit="10"/>
<path id="Vector_77" d="M9.209 61.1852L7.40247 58.844" stroke="#FBE04B" stroke-width="2.40789" stroke-miterlimit="10"/>
<path id="Vector_78" d="M11.2312 63.8024L8.75233 67.2624L4.92371 62.3107" stroke="#FBE04B" stroke-width="2.40789" stroke-miterlimit="10"/>
<path id="Vector_79" d="M19.2271 52.6283L13.5048 60.6255L11.2312 63.8023" stroke="#FBE04B" stroke-width="2.40789" stroke-miterlimit="10"/>
<path id="Vector_80" d="M7.51544 58.6849L4.80566 62.4694" stroke="#FBE04B" stroke-width="2.40789" stroke-miterlimit="10"/>
</g>
<g id="Group_15">
<path id="Vector_81" d="M18.3341 23.9199L20.1458 26.2542" stroke="#FBE04B" stroke-width="2.40789" stroke-miterlimit="10"/>
<path id="Vector_82" d="M8.41882 32.421C11.8933 27.4694 15.3986 22.7249 18.8218 17.7871" stroke="#FBE04B" stroke-width="2.40789" stroke-miterlimit="10"/>
<path id="Vector_83" d="M16.307 21.3159L18.7756 17.8422L22.6145 22.7869" stroke="#FBE04B" stroke-width="2.40789" stroke-miterlimit="10"/>
<path id="Vector_84" d="M20.0331 26.4197L22.7326 22.6214" stroke="#FBE04B" stroke-width="2.40789" stroke-miterlimit="10"/>
<path id="Vector_85" d="M25.8583 32.8701L27.6802 35.1974" stroke="#FBE04B" stroke-width="2.40789" stroke-miterlimit="10"/>
<path id="Vector_86" d="M28.3163 29.3826L32.1654 34.3136L29.7071 37.7942" stroke="#FBE04B" stroke-width="2.40789" stroke-miterlimit="10"/>
<path id="Vector_87" d="M29.7072 37.7943L27.449 40.9987L21.7728 49.0512" stroke="#FBE04B" stroke-width="2.40789" stroke-miterlimit="10"/>
<path id="Vector_88" d="M25.7452 33.036L28.4345 29.2238" stroke="#FBE04B" stroke-width="2.40789" stroke-miterlimit="10"/>
</g>
<path id="Vector_89" d="M0.207275 36.4474L1.94709 34.0027" stroke="#FBE04B" stroke-width="2.40789" stroke-miterlimit="10"/>
<path id="Vector_90" d="M6.52488 49.7832C2.8451 45.1078 -0.680709 40.3909 -4.35022 35.7846" stroke="#FBE04B" stroke-width="2.40789" stroke-miterlimit="10"/>
<path id="Vector_91" d="M-1.72709 39.1684L-4.30859 35.8466L-0.633933 30.6808" stroke="#FBE04B" stroke-width="2.40789" stroke-miterlimit="10"/>
<path id="Vector_92" d="M2.06513 34.1615L-0.757568 30.5289" stroke="#FBE04B" stroke-width="2.40789" stroke-miterlimit="10"/>
<path id="Vector_93" d="M6.85876 26.3163L8.59344 23.8715" stroke="#FBE04B" stroke-width="2.40789" stroke-miterlimit="10"/>
<path id="Vector_94" d="M4.27197 23.008L7.93122 17.8285L10.523 21.1365" stroke="#FBE04B" stroke-width="2.40789" stroke-miterlimit="10"/>
<path id="Vector_95" d="M10.5229 21.1367L12.8992 24.1753L18.8833 31.8134" stroke="#FBE04B" stroke-width="2.40789" stroke-miterlimit="10"/>
<path id="Vector_96" d="M6.9819 26.4752L4.14893 22.8564" stroke="#FBE04B" stroke-width="2.40789" stroke-miterlimit="10"/>
<g id="Group_16">
<path id="Vector_97" d="M20.6746 58.1049L18.9399 60.5496" stroke="#FBE04B" stroke-width="2.40789" stroke-miterlimit="10"/>
<path id="Vector_98" d="M8.75769 52.6558C12.3913 57.3934 16.0505 61.9237 19.6328 66.6544" stroke="#FBE04B" stroke-width="2.40789" stroke-miterlimit="10"/>
<path id="Vector_99" d="M23.2562 61.4266L19.5867 66.5923L17.0052 63.2705" stroke="#FBE04B" stroke-width="2.40789" stroke-miterlimit="10"/>
<path id="Vector_100" d="M20.5566 57.9529L23.3793 61.5855" stroke="#FBE04B" stroke-width="2.40789" stroke-miterlimit="10"/>
<path id="Vector_101" d="M27.9058 48.7195L26.1609 51.1573" stroke="#FBE04B" stroke-width="2.40789" stroke-miterlimit="10"/>
<path id="Vector_102" d="M29.8457 46.0053L32.4169 49.3409L28.7372 54.4929" stroke="#FBE04B" stroke-width="2.40789" stroke-miterlimit="10"/>
<path id="Vector_103" d="M21.542 35.239L27.4851 42.9392L29.8459 46.0055" stroke="#FBE04B" stroke-width="2.40789" stroke-miterlimit="10"/>
<path id="Vector_104" d="M26.043 50.9985L28.8554 54.6449" stroke="#FBE04B" stroke-width="2.40789" stroke-miterlimit="10"/>
</g>
</g>
</g>
</g>
</g>
<defs>
<clipPath id="clip0_0_1">
<rect width="1440" height="4748" fill="white" transform="translate(0 -983)"/>
</clipPath>
</defs>
</svg>
